<?xml version="1.0" standalone="no"?>
  <!DOCTYPE svg PUBLIC "-//W3C//DTD SVG 1.1//EN" "http://www.w3.org/Graphics/SVG/1.1/DTD/svg11.dtd" >
  <svg>
  <metadata>
  Created by font-carrier
  </metadata>
  <defs>
  <font id="FiraSans-Bold" horiz-adv-x="1460" vert-adv-y="1460" >
    <font-face
      
      font-family="Fira Sans"
      
      font-weight="400"
      
      font-stretch="normal"
      
      units-per-em="1000"
      
      ascent="935"
      
      descent="-265"
      
    />
      <missing-glyph />

      

      
      <glyph glyph-name="uni41" unicode="&#x41;" d="M430 0L394 149L192 149L157 0L-13 0L196 693L395 693L604 0L430 0M220 268L366 268L293 574L220 268Z"  horiz-adv-x="590" vert-adv-y="1000"  />

      
      <glyph glyph-name="unic1" unicode="&#xc1;" d="M430 0L394 149L192 149L157 0L-13 0L196 693L395 693L604 0L430 0M220 268L366 268L293 574L220 268M377 956L436 838L196 751L156 831L377 956Z"  horiz-adv-x="590" vert-adv-y="1000"  />

      
      <glyph glyph-name="uni0102" unicode="&#x0102;" d="M430 0L394 149L192 149L157 0L-13 0L196 693L395 693L604 0L430 0M220 268L366 268L293 574L220 268M295 751Q220 751 174.50 798Q129 845 123 913L210 928Q220 897 241 878.50Q262 860 295 860Q328 860 349 878.50Q370 897 381 928L468 913Q462 845 416 798Q370 751 295 751Z"  horiz-adv-x="590" vert-adv-y="1000"  />

      
      <glyph glyph-name="uni1EAE" unicode="&#x1EAE;" d="M430 0L394 149L192 149L157 0L-13 0L196 693L395 693L604 0L430 0M220 268L366 268L293 574L220 268M296 737Q221 737 175.50 784Q130 831 124 899L211 914Q221 883 242 864.50Q263 846 296 846Q329 846 350 864.50Q371 883 382 914L469 899Q463 831 417 784Q371 737 296 737M370 1125L456 1041L298 900L238 954L370 1125Z"  horiz-adv-x="590" vert-adv-y="1000"  />

      
      <glyph glyph-name="uni1EB6" unicode="&#x1EB6;" d="M430 0L394 149L192 149L157 0L-13 0L196 693L395 693L604 0L430 0M220 268L366 268L293 574L220 268M295 751Q220 751 174.50 798Q129 845 123 913L210 928Q220 897 241 878.50Q262 860 295 860Q328 860 349 878.50Q370 897 381 928L468 913Q462 845 416 798Q370 751 295 751M296-240Q255-240 228.50-214.50Q202-189 202-150Q202-111 228.50-85.50Q255-60 296-60Q337-60 363-85.50Q389-111 389-150Q389-189 363-214.50Q337-240 296-240Z"  horiz-adv-x="590" vert-adv-y="1000"  />

      
      <glyph glyph-name="uni1EB0" unicode="&#x1EB0;" d="M430 0L394 149L192 149L157 0L-13 0L196 693L395 693L604 0L430 0M220 268L366 268L293 574L220 268M296 737Q221 737 175.50 784Q130 831 124 899L211 914Q221 883 242 864.50Q263 846 296 846Q329 846 350 864.50Q371 883 382 914L469 899Q463 831 417 784Q371 737 296 737M221 1125L352 954L293 900L135 1041L221 1125Z"  horiz-adv-x="590" vert-adv-y="1000"  />

      
      <glyph glyph-name="uni1EB2" unicode="&#x1EB2;" d="M430 0L394 149L192 149L157 0L-13 0L196 693L395 693L604 0L430 0M220 268L366 268L293 574L220 268M296 737Q221 737 175.50 784Q130 831 124 899L211 914Q221 883 242 864.50Q263 846 296 846Q329 846 350 864.50Q371 883 382 914L469 899Q463 831 417 784Q371 737 296 737M250 989Q288 991 304.50 999.50Q321 1008 321 1027Q321 1042 310.50 1050Q300 1058 281 1058Q254 1058 221 1045L195 1111Q240 1137 304 1137Q363 1137 395.50 1109Q428 1081 428 1035Q428 958 344 942L344 900L250 900L250 989Z"  horiz-adv-x="590" vert-adv-y="1000"  />

      
      <glyph glyph-name="uni1EB4" unicode="&#x1EB4;" d="M430 0L394 149L192 149L157 0L-13 0L196 693L395 693L604 0L430 0M220 268L366 268L293 574L220 268M297 737Q222 737 176.50 784Q131 831 125 899L212 914Q222 883 243 864.50Q264 846 297 846Q330 846 351 864.50Q372 883 383 914L470 899Q464 831 418 784Q372 737 297 737M356 941Q334 941 317.50 948Q301 955 283 967Q270 976 260.50 980Q251 984 242 984Q225 984 213.50 974Q202 964 189 942L110 978Q130 1027 163.50 1058Q197 1089 239 1089Q262 1089 278.50 1082.50Q295 1076 315 1063Q329 1054 337.50 1050Q346 1046 355 1046Q371 1046 382.50 1056Q394 1066 407 1088L486 1051Q465 1001 431.50 971Q398 941 356 941Z"  horiz-adv-x="590" vert-adv-y="1000"  />

      
      <glyph glyph-name="uni01CD" unicode="&#x01CD;" d="M430 0L394 149L192 149L157 0L-13 0L196 693L395 693L604 0L430 0M220 268L366 268L293 574L220 268M429 944L485 879L344 750L248 750L106 879L163 944L296 860L429 944Z"  horiz-adv-x="590" vert-adv-y="1000"  />

      
      <glyph glyph-name="unic2" unicode="&#xc2;" d="M430 0L394 149L192 149L157 0L-13 0L196 693L395 693L604 0L430 0M220 268L366 268L293 574L220 268M163 755L106 820L248 949L344 949L485 820L429 755L296 839L163 755Z"  horiz-adv-x="590" vert-adv-y="1000"  />

      
      <glyph glyph-name="uni1EA4" unicode="&#x1EA4;" d="M430 0L394 149L192 149L157 0L-13 0L196 693L395 693L604 0L430 0M220 268L366 268L293 574L220 268M163 721L106 786L248 915L344 915L485 786L429 721L296 805L163 721M531 1094L617 1010L459 869L399 923L531 1094Z"  horiz-adv-x="590" vert-adv-y="1000"  />

      
      <glyph glyph-name="uni1EAC" unicode="&#x1EAC;" d="M430 0L394 149L192 149L157 0L-13 0L196 693L395 693L604 0L430 0M220 268L366 268L293 574L220 268M163 755L106 820L248 949L344 949L485 820L429 755L296 839L163 755M296-240Q255-240 228.50-214.50Q202-189 202-150Q202-111 228.50-85.50Q255-60 296-60Q337-60 363-85.50Q389-111 389-150Q389-189 363-214.50Q337-240 296-240Z"  horiz-adv-x="590" vert-adv-y="1000"  />

      
      <glyph glyph-name="uni1EA6" unicode="&#x1EA6;" d="M430 0L394 149L192 149L157 0L-13 0L196 693L395 693L604 0L430 0M220 268L366 268L293 574L220 268M162 721L105 786L247 915L343 915L484 786L428 721L295 805L162 721M62 1094L193 923L134 869L-24 1010L62 1094Z"  horiz-adv-x="590" vert-adv-y="1000"  />

      
      <glyph glyph-name="uni1EA8" unicode="&#x1EA8;" d="M430 0L394 149L192 149L157 0L-13 0L196 693L395 693L604 0L430 0M220 268L366 268L293 574L220 268M162 721L105 786L247 915L343 915L484 786L428 721L295 805L162 721M420 945Q458 947 474.50 955.50Q491 964 491 983Q491 998 480.50 1006Q470 1014 451 1014Q424 1014 391 1001L365 1067Q410 1093 474 1093Q533 1093 565.50 1065Q598 1037 598 991Q598 914 514 898L514 856L420 856L420 945Z"  horiz-adv-x="590" vert-adv-y="1000"  />

      
      <glyph glyph-name="uni1EAA" unicode="&#x1EAA;" d="M430 0L394 149L192 149L157 0L-13 0L196 693L395 693L604 0L430 0M220 268L366 268L293 574L220 268M161 721L104 786L246 915L342 915L483 786L427 721L294 805L161 721M352 941Q330 941 313.50 948Q297 955 279 967Q266 976 256.50 980Q247 984 238 984Q221 984 209.50 974Q198 964 185 942L106 978Q126 1027 159.50 1058Q193 1089 235 1089Q258 1089 274.50 1082.50Q291 1076 311 1063Q325 1054 333.50 1050Q342 1046 351 1046Q367 1046 378.50 1056Q390 1066 403 1088L482 1051Q461 1001 427.50 971Q394 941 352 941Z"  horiz-adv-x="590" vert-adv-y="1000"  />

      
      <glyph glyph-name="uni0200" unicode="&#x0200;" d="M430 0L394 149L192 149L157 0L-13 0L196 693L395 693L604 0L430 0M220 268L366 268L293 574L220 268M165 986L262 789L181 751L59 933L165 986M341 986L429 789L346 756L233 936L341 986Z"  horiz-adv-x="590" vert-adv-y="1000"  />

      
      <glyph glyph-name="unic4" unicode="&#xc4;" d="M430 0L394 149L192 149L157 0L-13 0L196 693L395 693L604 0L430 0M220 268L366 268L293 574L220 268M179 925Q213 925 236.50 902Q260 879 260 846Q260 813 236.50 790Q213 767 179 767Q145 767 121.50 790Q98 813 98 846Q98 879 121.50 902Q145 925 179 925M410 925Q445 925 468 902Q491 879 491 846Q491 813 468 790Q445 767 410 767Q377 767 353.50 790Q330 813 330 846Q330 879 353.50 902Q377 925 410 925Z"  horiz-adv-x="590" vert-adv-y="1000"  />

      
      <glyph glyph-name="uni01DE" unicode="&#x01DE;" d="M430 0L394 149L192 149L157 0L-13 0L196 693L395 693L604 0L430 0M220 268L366 268L293 574L220 268M180 903Q214 903 237.50 880Q261 857 261 824Q261 791 237.50 768Q214 745 180 745Q146 745 122.50 768Q99 791 99 824Q99 857 122.50 880Q146 903 180 903M411 903Q446 903 469 880Q492 857 492 824Q492 791 469 768Q446 745 411 745Q378 745 354.50 768Q331 791 331 824Q331 857 354.50 880Q378 903 411 903M451 940L146 940L146 1050L451 1050L451 940Z"  horiz-adv-x="590" vert-adv-y="1000"  />

      
      <glyph glyph-name="uni0226" unicode="&#x0226;" d="M430 0L394 149L192 149L157 0L-13 0L196 693L395 693L604 0L430 0M220 268L366 268L293 574L220 268M295 937Q336 937 362.50 911.50Q389 886 389 847Q389 808 362.50 782.50Q336 757 295 757Q254 757 228 782.50Q202 808 202 847Q202 886 228 911.50Q254 937 295 937Z"  horiz-adv-x="590" vert-adv-y="1000"  />

      
      <glyph glyph-name="uni1EA0" unicode="&#x1EA0;" d="M430 0L394 149L192 149L157 0L-13 0L196 693L395 693L604 0L430 0M220 268L366 268L293 574L220 268M296-240Q255-240 228.50-214.50Q202-189 202-150Q202-111 228.50-85.50Q255-60 296-60Q337-60 363-85.50Q389-111 389-150Q389-189 363-214.50Q337-240 296-240Z"  horiz-adv-x="590" vert-adv-y="1000"  />

      
      <glyph glyph-name="uni01E0" unicode="&#x01E0;" d="M430 0L394 149L192 149L157 0L-13 0L196 693L395 693L604 0L430 0M220 268L366 268L293 574L220 268M294 916Q335 916 361.50 890.50Q388 865 388 826Q388 787 361.50 761.50Q335 736 294 736Q253 736 227 761.50Q201 787 201 826Q201 865 227 890.50Q253 916 294 916M448 941L143 941L143 1051L448 1051L448 941Z"  horiz-adv-x="590" vert-adv-y="1000"  />

      
      <glyph glyph-name="unic0" unicode="&#xc0;" d="M430 0L394 149L192 149L157 0L-13 0L196 693L395 693L604 0L430 0M220 268L366 268L293 574L220 268M211 956L432 831L392 751L152 838L211 956Z"  horiz-adv-x="590" vert-adv-y="1000"  />

      
      <glyph glyph-name="uni1EA2" unicode="&#x1EA2;" d="M430 0L394 149L192 149L157 0L-13 0L196 693L395 693L604 0L430 0M220 268L366 268L293 574L220 268M248 853Q286 855 302.50 863.50Q319 872 319 891Q319 906 308.50 914Q298 922 279 922Q252 922 219 909L193 975Q238 1001 302 1001Q361 1001 393.50 973Q426 945 426 899Q426 822 342 806L342 764L248 764L248 853Z"  horiz-adv-x="590" vert-adv-y="1000"  />

      
      <glyph glyph-name="uni0202" unicode="&#x0202;" d="M430 0L394 149L192 149L157 0L-13 0L196 693L395 693L604 0L430 0M220 268L366 268L293 574L220 268M295 952Q371 952 416.50 903Q462 854 468 779L381 764Q360 842 295 842Q229 842 210 764L123 779Q129 855 174 903.50Q219 952 295 952Z"  horiz-adv-x="590" vert-adv-y="1000"  />

      
      <glyph glyph-name="uni2C6D" unicode="&#x2C6D;" d="M618 179Q618 144 627 127.50Q636 111 661 99L614-17Q563-8 530.50 10Q498 28 480 60Q413-17 306-17Q225-17 163.50 24.50Q102 66 67.50 145.50Q33 225 33 335Q33 451 68.50 536Q104 621 166.50 665.50Q229 710 309 710Q401 710 468 641L478 693L618 693L618 179M339 100Q408 100 454 151L454 539Q408 590 342 590Q274 590 239.50 530Q205 470 205 335Q205 209 239.50 154.50Q274 100 339 100Z"  horiz-adv-x="689" vert-adv-y="1000"  />

      
      <glyph glyph-name="uni0100" unicode="&#x0100;" d="M430 0L394 149L192 149L157 0L-13 0L196 693L395 693L604 0L430 0M220 268L366 268L293 574L220 268M448 781L143 781L143 891L448 891L448 781Z"  horiz-adv-x="590" vert-adv-y="1000"  />

      
      <glyph glyph-name="uni0104" unicode="&#x0104;" d="M520 0Q402-44 402-102Q402-148 455-148Q479-148 516-140L505-238Q470-246 435-246Q370-246 329-214Q288-182 288-129Q288-76 323-38Q358 0 424 26L394 149L192 149L157 0L-13 0L196 693L395 693L604 0L520 0M220 268L366 268L293 574L220 268Z"  horiz-adv-x="590" vert-adv-y="1000"  />

      
      <glyph glyph-name="unic5" unicode="&#xc5;" d="M430 0L394 149L192 149L157 0L-13 0L196 693L395 693L604 0L430 0M220 268L366 268L293 574L220 268M296 993Q359 993 397 955Q435 917 435 862Q435 807 397 769Q359 731 296 731Q233 731 195 769Q157 807 157 862Q157 917 195 955Q233 993 296 993M296 912Q275 912 263 899Q251 886 251 862Q251 838 263 825Q275 812 296 812Q316 812 328.50 825Q341 838 341 862Q341 886 329 899Q317 912 296 912Z"  horiz-adv-x="590" vert-adv-y="1000"  />

      
      <glyph glyph-name="uni01FA" unicode="&#x01FA;" d="M430 0L394 149L192 149L157 0L-13 0L196 693L395 693L604 0L430 0M220 268L366 268L293 574L220 268M296 982Q359 982 397 944Q435 906 435 851Q435 796 397 758Q359 720 296 720Q233 720 195 758Q157 796 157 851Q157 906 195 944Q233 982 296 982M296 901Q275 901 263 888Q251 875 251 851Q251 827 263 814Q275 801 296 801Q316 801 328.50 814Q341 827 341 851Q341 875 329 888Q317 901 296 901M378 1191L437 1073L197 986L157 1066L378 1191Z"  horiz-adv-x="590" vert-adv-y="1000"  />

      
      <glyph glyph-name="uni023A" unicode="&#x023A;" d="M444 0L406 149L292 149L233-74L175-61L231 149L181 149L143 0L-13 0L196 693L374 693L391 756L448 742L416 622L604 0L444 0M209 261L260 261L320 486L293 590L209 261M321 261L377 261L350 369L321 261Z"  horiz-adv-x="590" vert-adv-y="1000"  />

      
      <glyph glyph-name="unic3" unicode="&#xc3;" d="M430 0L394 149L192 149L157 0L-13 0L196 693L395 693L604 0L430 0M220 268L366 268L293 574L220 268M354 761Q332 761 316 768Q300 775 281 788Q256 806 240 806Q223 806 211.50 795.50Q200 785 187 762L108 800Q128 852 161.50 885Q195 918 237 918Q260 918 276.50 910.50Q293 903 313 890Q327 881 335.50 877Q344 873 353 873Q369 873 380.50 883.50Q392 894 405 917L484 878Q463 825 429.50 793Q396 761 354 761Z"  horiz-adv-x="590" vert-adv-y="1000"  />

      
      <glyph glyph-name="unic6" unicode="&#xc6;" d="M582 118L812 118L812 0L444 0L418 149L203 149L153 0L-23 0L249 693L775 693L758 576L488 576L522 408L766 408L766 293L546 293L582 118M243 268L398 268L345 573L243 268Z"  horiz-adv-x="845" vert-adv-y="1000"  />

      
      <glyph glyph-name="uni01FC" unicode="&#x01FC;" d="M582 118L812 118L812 0L444 0L418 149L203 149L153 0L-23 0L249 693L775 693L758 576L488 576L522 408L766 408L766 293L546 293L582 118M243 268L398 268L345 573L243 268M564 956L623 838L383 751L343 831L564 956Z"  horiz-adv-x="845" vert-adv-y="1000"  />

      
      <glyph glyph-name="uni01E2" unicode="&#x01E2;" d="M582 118L812 118L812 0L444 0L418 149L203 149L153 0L-23 0L249 693L775 693L758 576L488 576L522 408L766 408L766 293L546 293L582 118M243 268L398 268L345 573L243 268M635 781L330 781L330 891L635 891L635 781Z"  horiz-adv-x="845" vert-adv-y="1000"  />

      
      <glyph glyph-name="uni42" unicode="&#x42;" d="M434 367Q503 354 546.50 316Q590 278 590 202Q590 91 510.50 45.50Q431 0 288 0L65 0L65 693L261 693Q407 693 484 651.50Q561 610 561 516Q561 455 524.50 417.50Q488 380 434 367M229 577L229 416L290 416Q394 416 394 500Q394 542 366 559.50Q338 577 277 577L229 577M289 119Q354 119 387.50 138.50Q421 158 421 211Q421 307 301 307L229 307L229 119L289 119Z"  horiz-adv-x="617" vert-adv-y="1000"  />

      
      <glyph glyph-name="uni1E02" unicode="&#x1E02;" d="M434 367Q503 354 546.50 316Q590 278 590 202Q590 91 510.50 45.50Q431 0 288 0L65 0L65 693L261 693Q407 693 484 651.50Q561 610 561 516Q561 455 524.50 417.50Q488 380 434 367M229 577L229 416L290 416Q394 416 394 500Q394 542 366 559.50Q338 577 277 577L229 577M289 119Q354 119 387.50 138.50Q421 158 421 211Q421 307 301 307L229 307L229 119L289 119M294 937Q335 937 361.50 911.50Q388 886 388 847Q388 808 361.50 782.50Q335 757 294 757Q253 757 227 782.50Q201 808 201 847Q201 886 227 911.50Q253 937 294 937Z"  horiz-adv-x="617" vert-adv-y="1000"  />

      
      <glyph glyph-name="uni1E04" unicode="&#x1E04;" d="M434 367Q503 354 546.50 316Q590 278 590 202Q590 91 510.50 45.50Q431 0 288 0L65 0L65 693L261 693Q407 693 484 651.50Q561 610 561 516Q561 455 524.50 417.50Q488 380 434 367M229 577L229 416L290 416Q394 416 394 500Q394 542 366 559.50Q338 577 277 577L229 577M289 119Q354 119 387.50 138.50Q421 158 421 211Q421 307 301 307L229 307L229 119L289 119M310-240Q269-240 242.50-214.50Q216-189 216-150Q216-111 242.50-85.50Q269-60 310-60Q351-60 377-85.50Q403-111 403-150Q403-189 377-214.50Q351-240 310-240Z"  horiz-adv-x="617" vert-adv-y="1000"  />

      
      <glyph glyph-name="uniA7B4" unicode="&#xA7B4;" d="M434 367Q590 337 590 206Q590 98 516.50 49Q443 0 331 0Q282 0 229 10L229-210L65-210L65 693L261 693Q407 693 484 651.50Q561 610 561 516Q561 455 524.50 417.50Q488 380 434 367M309 119Q361 119 391 142Q421 165 421 216Q421 262 392 284.50Q363 307 314 307L280 307L290 416L303 416Q344 416 369 436.50Q394 457 394 497Q394 541 366 559Q338 577 277 577L229 577L229 125Q268 119 309 119Z"  horiz-adv-x="617" vert-adv-y="1000"  />

      
      <glyph glyph-name="uni0181" unicode="&#x0181;" d="M576 367Q645 354 688.50 316Q732 278 732 202Q732 91 652.50 45.50Q573 0 430 0L207 0L207 576L178 576Q156 576 144 565Q132 554 132 534Q132 508 149 469L48 424Q28 454 16 483Q4 512 4 544Q4 613 53.50 653Q103 693 187 693L403 693Q549 693 626 651.50Q703 610 703 516Q703 455 666.50 417.50Q630 380 576 367M371 577L371 416L432 416Q536 416 536 500Q536 542 508 559.50Q480 577 419 577L371 577M431 119Q496 119 529.50 138.50Q563 158 563 211Q563 307 443 307L371 307L371 119L431 119Z"  horiz-adv-x="758" vert-adv-y="1000"  />

      
      <glyph glyph-name="uni0243" unicode="&#x0243;" d="M448 367Q517 354 560.50 316Q604 278 604 202Q604 91 524.50 45.50Q445 0 302 0L79 0L79 175L14 175L14 255L79 255L79 693L275 693Q421 693 498 651.50Q575 610 575 516Q575 455 538.50 417.50Q502 380 448 367M243 577L243 416L304 416Q408 416 408 500Q408 542 380 559.50Q352 577 291 577L243 577M303 119Q368 119 401.50 138.50Q435 158 435 211Q435 307 315 307L243 307L243 255L358 255L358 175L243 175L243 119L303 119Z"  horiz-adv-x="631" vert-adv-y="1000"  />

      
      <glyph glyph-name="uni0182" unicode="&#x0182;" d="M303 446Q435 446 506.50 391Q578 336 578 229Q578 116 504 58Q430 0 306 0L65 0L65 693L497 693L480 569L229 569L229 446L303 446M292 119Q407 119 407 227Q407 332 289 332L229 332L229 119L292 119Z"  horiz-adv-x="596" vert-adv-y="1000"  />

      
      <glyph glyph-name="uni43" unicode="&#x43;" d="M348 710Q413 710 463.50 691Q514 672 559 634L481 541Q450 565 420 577Q390 589 356 589Q286 589 245.50 530Q205 471 205 348Q205 227 245.50 168.50Q286 110 358 110Q396 110 427 124.50Q458 139 494 166L567 72Q528 33 472.50 8Q417-17 350-17Q254-17 183 25Q112 67 72.50 149.50Q33 232 33 348Q33 461 73.50 543Q114 625 185.50 667.50Q257 710 348 710Z"  horiz-adv-x="575" vert-adv-y="1000"  />

      
      <glyph glyph-name="uni0106" unicode="&#x0106;" d="M348 710Q413 710 463.50 691Q514 672 559 634L481 541Q450 565 420 577Q390 589 356 589Q286 589 245.50 530Q205 471 205 348Q205 227 245.50 168.50Q286 110 358 110Q396 110 427 124.50Q458 139 494 166L567 72Q528 33 472.50 8Q417-17 350-17Q254-17 183 25Q112 67 72.50 149.50Q33 232 33 348Q33 461 73.50 543Q114 625 185.50 667.50Q257 710 348 710M435 956L494 838L254 751L214 831L435 956Z"  horiz-adv-x="575" vert-adv-y="1000"  />

      
      <glyph glyph-name="uni010C" unicode="&#x010C;" d="M348 710Q413 710 463.50 691Q514 672 559 634L481 541Q450 565 420 577Q390 589 356 589Q286 589 245.50 530Q205 471 205 348Q205 227 245.50 168.50Q286 110 358 110Q396 110 427 124.50Q458 139 494 166L567 72Q528 33 472.50 8Q417-17 350-17Q254-17 183 25Q112 67 72.50 149.50Q33 232 33 348Q33 461 73.50 543Q114 625 185.50 667.50Q257 710 348 710M487 944L543 879L402 750L306 750L164 879L221 944L354 860L487 944Z"  horiz-adv-x="575" vert-adv-y="1000"  />

      
      <glyph glyph-name="unic7" unicode="&#xc7;" d="M383-48Q436-54 461.50-79.50Q487-105 487-147Q487-198 446.50-230Q406-262 338-262Q304-262 275-253.50Q246-245 226-232L262-159Q296-176 326-176Q373-176 373-146Q373-128 351-120Q329-112 281-112L293-13Q172 5 102.50 98.50Q33 192 33 348Q33 461 73.50 543Q114 625 185.50 667.50Q257 710 348 710Q413 710 463.50 691Q514 672 559 634L481 541Q450 565 420 577Q390 589 356 589Q286 589 245.50 530Q205 471 205 348Q205 227 245.50 168.50Q286 110 358 110Q396 110 427 124.50Q458 139 494 166L567 72Q533 38 486 14.50Q439-9 383-15L383-48Z"  horiz-adv-x="575" vert-adv-y="1000"  />

      
      <glyph glyph-name="uni0108" unicode="&#x0108;" d="M348 710Q413 710 463.50 691Q514 672 559 634L481 541Q450 565 420 577Q390 589 356 589Q286 589 245.50 530Q205 471 205 348Q205 227 245.50 168.50Q286 110 358 110Q396 110 427 124.50Q458 139 494 166L567 72Q528 33 472.50 8Q417-17 350-17Q254-17 183 25Q112 67 72.50 149.50Q33 232 33 348Q33 461 73.50 543Q114 625 185.50 667.50Q257 710 348 710M221 755L164 820L306 949L402 949L543 820L487 755L354 839L221 755Z"  horiz-adv-x="575" vert-adv-y="1000"  />

      
      <glyph glyph-name="uni010A" unicode="&#x010A;" d="M348 710Q413 710 463.50 691Q514 672 559 634L481 541Q450 565 420 577Q390 589 356 589Q286 589 245.50 530Q205 471 205 348Q205 227 245.50 168.50Q286 110 358 110Q396 110 427 124.50Q458 139 494 166L567 72Q528 33 472.50 8Q417-17 350-17Q254-17 183 25Q112 67 72.50 149.50Q33 232 33 348Q33 461 73.50 543Q114 625 185.50 667.50Q257 710 348 710M353 937Q394 937 420.50 911.50Q447 886 447 847Q447 808 420.50 782.50Q394 757 353 757Q312 757 286 782.50Q260 808 260 847Q260 886 286 911.50Q312 937 353 937Z"  horiz-adv-x="575" vert-adv-y="1000"  />

      
      <glyph glyph-name="uniA7B3" unicode="&#xA7B3;" d="M381 295L576-161L397-161L282 185L170-161L-4-161L185 290L11 693L189 693L284 392L385 693L559 693L381 295Z"  horiz-adv-x="572" vert-adv-y="1000"  />

      
      <glyph glyph-name="uni0187" unicode="&#x0187;" d="M590 851Q666 851 725 814L679 716Q660 726 644.50 730.50Q629 735 611 735Q559 735 559 673L559 634L489 550Q457 569 425 579Q393 589 355 589Q286 589 245.50 529.50Q205 470 205 348Q205 227 245.50 168.50Q286 110 358 110Q395 110 425.50 125Q456 140 493 168L567 72Q529 34 473 8.50Q417-17 350-17Q254-17 183 25Q112 67 72.50 149.50Q33 232 33 348Q33 460 73 542Q113 624 181 667Q249 710 329 710Q380 710 420 694Q424 769 466.50 810Q509 851 590 851Z"  horiz-adv-x="575" vert-adv-y="1000"  />

      
      <glyph glyph-name="uni023B" unicode="&#x023B;" d="M567 72Q528 33 472.50 8Q417-17 350-17Q309-17 275-10L258-74L200-61L218 8Q131 44 82 131Q33 218 33 348Q33 461 73.50 543Q114 625 185.50 667.50Q257 710 348 710Q380 710 404 706L417 756L474 742L461 692Q514 673 559 634L481 541Q453 562 429 573L309 118Q333 110 358 110Q396 110 427 124.50Q458 139 494 166L567 72M205 348Q205 212 257 154L372 588Q367 589 356 589Q286 589 245.50 530Q205 471 205 348Z"  horiz-adv-x="575" vert-adv-y="1000"  />

      
      <glyph glyph-name="uni44" unicode="&#x44;" d="M258 693Q421 693 519.50 619.50Q618 546 618 350Q618 157 522 78.50Q426 0 273 0L65 0L65 693L258 693M229 574L229 119L283 119Q364 119 406 169.50Q448 220 448 350Q448 439 427 488Q406 537 370 555.50Q334 574 281 574L229 574Z"  horiz-adv-x="651" vert-adv-y="1000"  />

      
      <glyph glyph-name="uni01F1" unicode="&#x01F1;" d="M258 693Q421 693 519.50 619.50Q618 546 618 350Q618 157 522 78.50Q426 0 273 0L65 0L65 693L258 693M229 574L229 119L283 119Q364 119 406 169.50Q448 220 448 350Q448 439 427 488Q406 537 370 555.50Q334 574 281 574L229 574M1138 693L1138 569L837 131L1143 131L1127 0L644 0L644 123L951 566L675 566L675 693L1138 693Z"  horiz-adv-x="1170" vert-adv-y="1000"  />

      
      <glyph glyph-name="uni01C4" unicode="&#x01C4;" d="M258 693Q421 693 519.50 619.50Q618 546 618 350Q618 157 522 78.50Q426 0 273 0L65 0L65 693L258 693M229 574L229 119L283 119Q364 119 406 169.50Q448 220 448 350Q448 439 427 488Q406 537 370 555.50Q334 574 281 574L229 574M1138 693L1138 569L837 131L1143 131L1127 0L644 0L644 123L951 566L675 566L675 693L1138 693M1035 944L1091 879L950 750L854 750L712 879L769 944L902 860L1035 944Z"  horiz-adv-x="1170" vert-adv-y="1000"  />

      
      <glyph glyph-name="uni0189" unicode="&#x0189;" d="M272 693Q435 693 533.50 619.50Q632 546 632 350Q632 157 536 78.50Q440 0 287 0L79 0L79 304L14 304L14 402L79 402L79 693L272 693M297 119Q378 119 420 169.50Q462 220 462 350Q462 439 441 488Q420 537 384 555.50Q348 574 295 574L243 574L243 402L377 402L377 304L243 304L243 119L297 119Z"  horiz-adv-x="665" vert-adv-y="1000"  />

      
      <glyph glyph-name="unid0" unicode="&#xd0;" d="M272 693Q435 693 533.50 619.50Q632 546 632 350Q632 157 536 78.50Q440 0 287 0L79 0L79 304L14 304L14 402L79 402L79 693L272 693M297 119Q378 119 420 169.50Q462 220 462 350Q462 439 441 488Q420 537 384 555.50Q348 574 295 574L243 574L243 402L377 402L377 304L243 304L243 119L297 119Z"  horiz-adv-x="665" vert-adv-y="1000"  />

      
      <glyph glyph-name="uni010E" unicode="&#x010E;" d="M258 693Q421 693 519.50 619.50Q618 546 618 350Q618 157 522 78.50Q426 0 273 0L65 0L65 693L258 693M229 574L229 119L283 119Q364 119 406 169.50Q448 220 448 350Q448 439 427 488Q406 537 370 555.50Q334 574 281 574L229 574M429 944L485 879L344 750L248 750L106 879L163 944L296 860L429 944Z"  horiz-adv-x="651" vert-adv-y="1000"  />

      
      <glyph glyph-name="uni1E12" unicode="&#x1E12;" d="M258 693Q421 693 519.50 619.50Q618 546 618 350Q618 157 522 78.50Q426 0 273 0L65 0L65 693L258 693M229 574L229 119L283 119Q364 119 406 169.50Q448 220 448 350Q448 439 427 488Q406 537 370 555.50Q334 574 281 574L229 574M172-265L116-200L257-63L354-63L495-200L439-265L306-173L172-265Z"  horiz-adv-x="651" vert-adv-y="1000"  />

      
      <glyph glyph-name="uni0110" unicode="&#x0110;" d="M272 693Q435 693 533.50 619.50Q632 546 632 350Q632 157 536 78.50Q440 0 287 0L79 0L79 304L14 304L14 402L79 402L79 693L272 693M297 119Q378 119 420 169.50Q462 220 462 350Q462 439 441 488Q420 537 384 555.50Q348 574 295 574L243 574L243 402L377 402L377 304L243 304L243 119L297 119Z"  horiz-adv-x="665" vert-adv-y="1000"  />

      
      <glyph glyph-name="uni1E0A" unicode="&#x1E0A;" d="M258 693Q421 693 519.50 619.50Q618 546 618 350Q618 157 522 78.50Q426 0 273 0L65 0L65 693L258 693M229 574L229 119L283 119Q364 119 406 169.50Q448 220 448 350Q448 439 427 488Q406 537 370 555.50Q334 574 281 574L229 574M295 937Q336 937 362.50 911.50Q389 886 389 847Q389 808 362.50 782.50Q336 757 295 757Q254 757 228 782.50Q202 808 202 847Q202 886 228 911.50Q254 937 295 937Z"  horiz-adv-x="651" vert-adv-y="1000"  />

      
      <glyph glyph-name="uni1E0C" unicode="&#x1E0C;" d="M258 693Q421 693 519.50 619.50Q618 546 618 350Q618 157 522 78.50Q426 0 273 0L65 0L65 693L258 693M229 574L229 119L283 119Q364 119 406 169.50Q448 220 448 350Q448 439 427 488Q406 537 370 555.50Q334 574 281 574L229 574M306-240Q265-240 238.50-214.50Q212-189 212-150Q212-111 238.50-85.50Q265-60 306-60Q347-60 373-85.50Q399-111 399-150Q399-189 373-214.50Q347-240 306-240Z"  horiz-adv-x="651" vert-adv-y="1000"  />

      
      <glyph glyph-name="uni018A" unicode="&#x018A;" d="M400 693Q563 693 661.50 619.50Q760 546 760 350Q760 157 664 78.50Q568 0 415 0L207 0L207 576L178 576Q156 576 144 565Q132 554 132 534Q132 508 149 469L48 424Q28 454 16 483Q4 512 4 544Q4 613 53.50 653Q103 693 187 693L400 693M425 119Q506 119 548 169.50Q590 220 590 350Q590 439 569 488Q548 537 512 555.50Q476 574 423 574L371 574L371 119L425 119Z"  horiz-adv-x="793" vert-adv-y="1000"  />

      
      <glyph glyph-name="uni1E0E" unicode="&#x1E0E;" d="M258 693Q421 693 519.50 619.50Q618 546 618 350Q618 157 522 78.50Q426 0 273 0L65 0L65 693L258 693M229 574L229 119L283 119Q364 119 406 169.50Q448 220 448 350Q448 439 427 488Q406 537 370 555.50Q334 574 281 574L229 574M458-191L153-191L153-81L458-81L458-191Z"  horiz-adv-x="651" vert-adv-y="1000"  />

      
      <glyph glyph-name="uni018B" unicode="&#x018B;" d="M531 0L284 0Q162 0 90 55.50Q18 111 18 223Q18 330 90.50 388Q163 446 293 446L367 446L367 569L105 569L105 693L531 693L531 0M367 119L367 332L307 332Q189 332 189 223Q189 119 303 119L367 119Z"  horiz-adv-x="596" vert-adv-y="1000"  />

      
      <glyph glyph-name="uni01F2" unicode="&#x01F2;" d="M258 693Q421 693 519.50 619.50Q618 546 618 350Q618 157 522 78.50Q426 0 273 0L65 0L65 693L258 693M229 574L229 119L283 119Q364 119 406 169.50Q448 220 448 350Q448 439 427 488Q406 537 370 555.50Q334 574 281 574L229 574M1077 531L1077 420L837 120L1082 120L1068 0L654 0L654 112L895 412L675 412L675 531L1077 531Z"  horiz-adv-x="1100" vert-adv-y="1000"  />

      
      <glyph glyph-name="uni01C5" unicode="&#x01C5;" d="M258 693Q421 693 519.50 619.50Q618 546 618 350Q618 157 522 78.50Q426 0 273 0L65 0L65 693L258 693M229 574L229 119L283 119Q364 119 406 169.50Q448 220 448 350Q448 439 427 488Q406 537 370 555.50Q334 574 281 574L229 574M1077 531L1077 420L837 120L1082 120L1068 0L654 0L654 112L895 412L675 412L675 531L1077 531M1007 813L1063 748L922 611L826 611L684 748L741 813L874 722L1007 813Z"  horiz-adv-x="1100" vert-adv-y="1000"  />

      
      <glyph glyph-name="uni45" unicode="&#x45;" d="M490 693L473 576L229 576L229 410L442 410L442 295L229 295L229 118L490 118L490 0L65 0L65 693L490 693Z"  horiz-adv-x="526" vert-adv-y="1000"  />

      
      <glyph glyph-name="unic9" unicode="&#xc9;" d="M490 693L473 576L229 576L229 410L442 410L442 295L229 295L229 118L490 118L490 0L65 0L65 693L490 693M360 956L419 838L179 751L139 831L360 956Z"  horiz-adv-x="526" vert-adv-y="1000"  />

      
      <glyph glyph-name="uni0114" unicode="&#x0114;" d="M490 693L473 576L229 576L229 410L442 410L442 295L229 295L229 118L490 118L490 0L65 0L65 693L490 693M278 751Q203 751 157.50 798Q112 845 106 913L193 928Q203 897 224 878.50Q245 860 278 860Q311 860 332 878.50Q353 897 364 928L451 913Q445 845 399 798Q353 751 278 751Z"  horiz-adv-x="526" vert-adv-y="1000"  />

      
      <glyph glyph-name="uni011A" unicode="&#x011A;" d="M490 693L473 576L229 576L229 410L442 410L442 295L229 295L229 118L490 118L490 0L65 0L65 693L490 693M412 944L468 879L327 750L231 750L89 879L146 944L279 860L412 944Z"  horiz-adv-x="526" vert-adv-y="1000"  />

      
      <glyph glyph-name="uni0228" unicode="&#x0228;" d="M229 118L490 118L490 0L318 0L318-48Q371-54 396.50-79.50Q422-105 422-147Q422-198 381.50-230Q341-262 273-262Q239-262 210-253.50Q181-245 161-232L197-159Q231-176 261-176Q308-176 308-146Q308-128 286-120Q264-112 216-112L229 0L65 0L65 693L490 693L473 576L229 576L229 410L442 410L442 295L229 295L229 118Z"  horiz-adv-x="526" vert-adv-y="1000"  />

      
      <glyph glyph-name="unica" unicode="&#xca;" d="M490 693L473 576L229 576L229 410L442 410L442 295L229 295L229 118L490 118L490 0L65 0L65 693L490 693M146 755L89 820L231 949L327 949L468 820L412 755L279 839L146 755Z"  horiz-adv-x="526" vert-adv-y="1000"  />

      
      <glyph glyph-name="uni1EBE" unicode="&#x1EBE;" d="M490 693L473 576L229 576L229 410L442 410L442 295L229 295L229 118L490 118L490 0L65 0L65 693L490 693M146 721L89 786L231 915L327 915L468 786L412 721L279 805L146 721M514 1094L600 1010L442 869L382 923L514 1094Z"  horiz-adv-x="526" vert-adv-y="1000"  />

      
      <glyph glyph-name="uni1EC6" unicode="&#x1EC6;" d="M490 693L473 576L229 576L229 410L442 410L442 295L229 295L229 118L490 118L490 0L65 0L65 693L490 693M146 755L89 820L231 949L327 949L468 820L412 755L279 839L146 755M277-240Q236-240 209.50-214.50Q183-189 183-150Q183-111 209.50-85.50Q236-60 277-60Q318-60 344-85.50Q370-111 370-150Q370-189 344-214.50Q318-240 277-240Z"  horiz-adv-x="526" vert-adv-y="1000"  />

      
      <glyph glyph-name="uni1EC0" unicode="&#x1EC0;" d="M490 693L473 576L229 576L229 410L442 410L442 295L229 295L229 118L490 118L490 0L65 0L65 693L490 693M145 721L88 786L230 915L326 915L467 786L411 721L278 805L145 721M45 1094L176 923L117 869L-41 1010L45 1094Z"  horiz-adv-x="526" vert-adv-y="1000"  />

      
      <glyph glyph-name="uni1EC2" unicode="&#x1EC2;" d="M490 693L473 576L229 576L229 410L442 410L442 295L229 295L229 118L490 118L490 0L65 0L65 693L490 693M145 721L88 786L230 915L326 915L467 786L411 721L278 805L145 721M403 945Q441 947 457.50 955.50Q474 964 474 983Q474 998 463.50 1006Q453 1014 434 1014Q407 1014 374 1001L348 1067Q393 1093 457 1093Q516 1093 548.50 1065Q581 1037 581 991Q581 914 497 898L497 856L403 856L403 945Z"  horiz-adv-x="526" vert-adv-y="1000"  />

      
      <glyph glyph-name="uni1EC4" unicode="&#x1EC4;" d="M490 693L473 576L229 576L229 410L442 410L442 295L229 295L229 118L490 118L490 0L65 0L65 693L490 693M144 721L87 786L229 915L325 915L466 786L410 721L277 805L144 721M335 941Q313 941 296.50 948Q280 955 262 967Q249 976 239.50 980Q230 984 221 984Q204 984 192.50 974Q181 964 168 942L89 978Q109 1027 142.50 1058Q176 1089 218 1089Q241 1089 257.50 1082.50Q274 1076 294 1063Q308 1054 316.50 1050Q325 1046 334 1046Q350 1046 361.50 1056Q373 1066 386 1088L465 1051Q444 1001 410.50 971Q377 941 335 941Z"  horiz-adv-x="526" vert-adv-y="1000"  />

      
      <glyph glyph-name="uni0204" unicode="&#x0204;" d="M490 693L473 576L229 576L229 410L442 410L442 295L229 295L229 118L490 118L490 0L65 0L65 693L490 693M148 986L245 789L164 751L42 933L148 986M324 986L412 789L329 756L216 936L324 986Z"  horiz-adv-x="526" vert-adv-y="1000"  />

      
      <glyph glyph-name="unicb" unicode="&#xcb;" d="M490 693L473 576L229 576L229 410L442 410L442 295L229 295L229 118L490 118L490 0L65 0L65 693L490 693M162 925Q196 925 219.50 902Q243 879 243 846Q243 813 219.50 790Q196 767 162 767Q128 767 104.50 790Q81 813 81 846Q81 879 104.50 902Q128 925 162 925M393 925Q428 925 451 902Q474 879 474 846Q474 813 451 790Q428 767 393 767Q360 767 336.50 790Q313 813 313 846Q313 879 336.50 902Q360 925 393 925Z"  horiz-adv-x="526" vert-adv-y="1000"  />

      
      <glyph glyph-name="uni0116" unicode="&#x0116;" d="M490 693L473 576L229 576L229 410L442 410L442 295L229 295L229 118L490 118L490 0L65 0L65 693L490 693M278 937Q319 937 345.50 911.50Q372 886 372 847Q372 808 345.50 782.50Q319 757 278 757Q237 757 211 782.50Q185 808 185 847Q185 886 211 911.50Q237 937 278 937Z"  horiz-adv-x="526" vert-adv-y="1000"  />

      
      <glyph glyph-name="uni1EB8" unicode="&#x1EB8;" d="M490 693L473 576L229 576L229 410L442 410L442 295L229 295L229 118L490 118L490 0L65 0L65 693L490 693M277-240Q236-240 209.50-214.50Q183-189 183-150Q183-111 209.50-85.50Q236-60 277-60Q318-60 344-85.50Q370-111 370-150Q370-189 344-214.50Q318-240 277-240Z"  horiz-adv-x="526" vert-adv-y="1000"  />

      
      <glyph glyph-name="unic8" unicode="&#xc8;" d="M490 693L473 576L229 576L229 410L442 410L442 295L229 295L229 118L490 118L490 0L65 0L65 693L490 693M194 956L415 831L375 751L135 838L194 956Z"  horiz-adv-x="526" vert-adv-y="1000"  />

      
      <glyph glyph-name="uni1EBA" unicode="&#x1EBA;" d="M490 693L473 576L229 576L229 410L442 410L442 295L229 295L229 118L490 118L490 0L65 0L65 693L490 693M231 853Q269 855 285.50 863.50Q302 872 302 891Q302 906 291.50 914Q281 922 262 922Q235 922 202 909L176 975Q221 1001 285 1001Q344 1001 376.50 973Q409 945 409 899Q409 822 325 806L325 764L231 764L231 853Z"  horiz-adv-x="526" vert-adv-y="1000"  />

      
      <glyph glyph-name="uni0206" unicode="&#x0206;" d="M490 693L473 576L229 576L229 410L442 410L442 295L229 295L229 118L490 118L490 0L65 0L65 693L490 693M278 952Q354 952 399.50 903Q445 854 451 779L364 764Q343 842 278 842Q212 842 193 764L106 779Q112 855 157 903.50Q202 952 278 952Z"  horiz-adv-x="526" vert-adv-y="1000"  />

      
      <glyph glyph-name="uni0112" unicode="&#x0112;" d="M490 693L473 576L229 576L229 410L442 410L442 295L229 295L229 118L490 118L490 0L65 0L65 693L490 693M431 781L126 781L126 891L431 891L431 781Z"  horiz-adv-x="526" vert-adv-y="1000"  />

      
      <glyph glyph-name="uni0118" unicode="&#x0118;" d="M229 118L490 118L490 0L450 0Q332-44 332-102Q332-148 385-148Q409-148 446-140L435-238Q400-246 365-246Q300-246 259-214Q218-182 218-129Q218-49 300 0L65 0L65 693L490 693L473 576L229 576L229 410L442 410L442 295L229 295L229 118Z"  horiz-adv-x="526" vert-adv-y="1000"  />

      
      <glyph glyph-name="uni0190" unicode="&#x0190;" d="M291 710Q361 710 417.50 687Q474 664 523 618L444 535Q381 591 310 591Q261 591 238.50 569Q216 547 216 510Q216 469 243 446.50Q270 424 319 424L395 424L375 306L322 306Q260 306 229 279.50Q198 253 198 205Q198 157 229 130.50Q260 104 315 104Q356 104 389.50 119Q423 134 456 166L543 80Q452-17 299-17Q220-17 158 9Q96 35 61 83.50Q26 132 26 195Q26 271 72.50 315Q119 359 202 368Q126 383 86.50 425Q47 467 47 528Q47 580 77.50 621.50Q108 663 163 686.50Q218 710 291 710Z"  horiz-adv-x="541" vert-adv-y="1000"  />

      
      <glyph glyph-name="uni018E" unicode="&#x018E;" d="M41 693L461 693L461 0L36 0L36 118L297 118L297 295L84 295L84 410L297 410L297 576L41 576L41 693Z"  horiz-adv-x="526" vert-adv-y="1000"  />

      
      <glyph glyph-name="uni01A9" unicode="&#x01A9;" d="M482 693L482 574L202 574L370 374L370 309L201 122L482 122L482 0L21 0L21 119L213 340L21 574L21 693L482 693Z"  horiz-adv-x="503" vert-adv-y="1000"  />

      
      <glyph glyph-name="uni0246" unicode="&#x0246;" d="M337 295L290 118L490 118L490 0L259 0L239-74L181-61L197 0L65 0L65 693L380 693L397 756L455 742L442 693L490 693L473 576L411 576L367 410L442 410L442 295L337 295M229 576L229 410L306 410L349 576L229 576M229 295L229 121L275 295L229 295Z"  horiz-adv-x="526" vert-adv-y="1000"  />

      
      <glyph glyph-name="uni1EBC" unicode="&#x1EBC;" d="M490 693L473 576L229 576L229 410L442 410L442 295L229 295L229 118L490 118L490 0L65 0L65 693L490 693M337 761Q315 761 299 768Q283 775 264 788Q239 806 223 806Q206 806 194.50 795.50Q183 785 170 762L91 800Q111 852 144.50 885Q178 918 220 918Q243 918 259.50 910.50Q276 903 296 890Q310 881 318.50 877Q327 873 336 873Q352 873 363.50 883.50Q375 894 388 917L467 878Q446 825 412.50 793Q379 761 337 761Z"  horiz-adv-x="526" vert-adv-y="1000"  />

      
      <glyph glyph-name="uni01B7" unicode="&#x01B7;" d="M307 403Q410 399 465 347Q520 295 520 205Q520 142 487 91.50Q454 41 391.50 12Q329-17 243-17Q162-17 104 9Q46 35 4 85L88 167Q123 134 156.50 119.50Q190 105 235 105Q290 105 320.50 133Q351 161 351 212Q351 308 226 308L127 308L127 400L304 574L43 574L43 693L485 693L485 578L307 403Z"  horiz-adv-x="547" vert-adv-y="1000"  />

      
      <glyph glyph-name="uni01EE" unicode="&#x01EE;" d="M307 403Q410 399 465 347Q520 295 520 205Q520 142 487 91.50Q454 41 391.50 12Q329-17 243-17Q162-17 104 9Q46 35 4 85L88 167Q123 134 156.50 119.50Q190 105 235 105Q290 105 320.50 133Q351 161 351 212Q351 308 226 308L127 308L127 400L304 574L43 574L43 693L485 693L485 578L307 403M398 944L454 879L313 750L217 750L75 879L132 944L265 860L398 944Z"  horiz-adv-x="547" vert-adv-y="1000"  />

      
      <glyph glyph-name="uni01B8" unicode="&#x01B8;" d="M543 85Q499 35 439.50 9Q380-17 296-17Q214-17 152.50 11.50Q91 40 58.50 89.50Q26 139 26 203Q26 290 83.50 344.50Q141 399 240 403L62 578L62 693L503 693L503 574L245 574L420 398L420 308L320 308Q259 308 227.50 281.50Q196 255 196 205Q196 158 225 131.50Q254 105 305 105Q353 105 388.50 119.50Q424 134 458 167L543 85Z"  horiz-adv-x="547" vert-adv-y="1000"  />

      
      <glyph glyph-name="uni46" unicode="&#x46;" d="M65 0L65 693L478 693L461 576L229 576L229 392L431 392L431 275L229 275L229 0L65 0Z"  horiz-adv-x="487" vert-adv-y="1000"  />

      
      <glyph glyph-name="uni1E1E" unicode="&#x1E1E;" d="M65 0L65 693L478 693L461 576L229 576L229 392L431 392L431 275L229 275L229 0L65 0M280 937Q321 937 347.50 911.50Q374 886 374 847Q374 808 347.50 782.50Q321 757 280 757Q239 757 213 782.50Q187 808 187 847Q187 886 213 911.50Q239 937 280 937Z"  horiz-adv-x="487" vert-adv-y="1000"  />

      
      <glyph glyph-name="uni0191" unicode="&#x0191;" d="M229 576L229 392L431 392L431 275L229 275L229-31Q229-125 175-173.50Q121-222 28-222Q-56-222-113-179L-59-82Q-37-93-23-98Q-9-103 11-103Q37-103 51-87.50Q65-72 65-42L65 693L478 693L461 576L229 576Z"  horiz-adv-x="487" vert-adv-y="1000"  />

      
      <glyph glyph-name="uni47" unicode="&#x47;" d="M365 710Q499 710 596 625L513 538Q476 566 444.50 578.50Q413 591 372 591Q295 591 249 530.50Q203 470 203 347Q203 214 238 158.50Q273 103 347 103Q399 103 441 126L441 283L351 283L335 399L600 399L600 56Q546 21 481 2Q416-17 351-17Q193-17 113 75.50Q33 168 33 347Q33 461 76.50 543Q120 625 195.50 667.50Q271 710 365 710Z"  horiz-adv-x="645" vert-adv-y="1000"  />

      
      <glyph glyph-name="uni01F4" unicode="&#x01F4;" d="M365 710Q499 710 596 625L513 538Q476 566 444.50 578.50Q413 591 372 591Q295 591 249 530.50Q203 470 203 347Q203 214 238 158.50Q273 103 347 103Q399 103 441 126L441 283L351 283L335 399L600 399L600 56Q546 21 481 2Q416-17 351-17Q193-17 113 75.50Q33 168 33 347Q33 461 76.50 543Q120 625 195.50 667.50Q271 710 365 710M433 956L492 838L252 751L212 831L433 956Z"  horiz-adv-x="645" vert-adv-y="1000"  />

      
      <glyph glyph-name="uni0194" unicode="&#x0194;" d="M372 92Q407 35 422.50-8.50Q438-52 438-97Q438-155 401.50-188.50Q365-222 287-222Q211-222 173.50-189Q136-156 136-98Q136-57 151.50-15Q167 27 204 92L-13 693L160 693L288 199L415 693L583 693L372 92M316-87Q316-69 309-48.50Q302-28 287 6Q258-57 258-87Q258-103 265.50-111Q273-119 287-119Q301-119 308.50-110.50Q316-102 316-87Z"  horiz-adv-x="570" vert-adv-y="1000"  />

      
      <glyph glyph-name="uni011E" unicode="&#x011E;" d="M365 710Q499 710 596 625L513 538Q476 566 444.50 578.50Q413 591 372 591Q295 591 249 530.50Q203 470 203 347Q203 214 238 158.50Q273 103 347 103Q399 103 441 126L441 283L351 283L335 399L600 399L600 56Q546 21 481 2Q416-17 351-17Q193-17 113 75.50Q33 168 33 347Q33 461 76.50 543Q120 625 195.50 667.50Q271 710 365 710M351 751Q276 751 230.50 798Q185 845 179 913L266 928Q276 897 297 878.50Q318 860 351 860Q384 860 405 878.50Q426 897 437 928L524 913Q518 845 472 798Q426 751 351 751Z"  horiz-adv-x="645" vert-adv-y="1000"  />

      
      <glyph glyph-name="uni01E6" unicode="&#x01E6;" d="M365 710Q499 710 596 625L513 538Q476 566 444.50 578.50Q413 591 372 591Q295 591 249 530.50Q203 470 203 347Q203 214 238 158.50Q273 103 347 103Q399 103 441 126L441 283L351 283L335 399L600 399L600 56Q546 21 481 2Q416-17 351-17Q193-17 113 75.50Q33 168 33 347Q33 461 76.50 543Q120 625 195.50 667.50Q271 710 365 710M485 944L541 879L400 750L304 750L162 879L219 944L352 860L485 944Z"  horiz-adv-x="645" vert-adv-y="1000"  />

      
      <glyph glyph-name="uni011C" unicode="&#x011C;" d="M365 710Q499 710 596 625L513 538Q476 566 444.50 578.50Q413 591 372 591Q295 591 249 530.50Q203 470 203 347Q203 214 238 158.50Q273 103 347 103Q399 103 441 126L441 283L351 283L335 399L600 399L600 56Q546 21 481 2Q416-17 351-17Q193-17 113 75.50Q33 168 33 347Q33 461 76.50 543Q120 625 195.50 667.50Q271 710 365 710M219 755L162 820L304 949L400 949L541 820L485 755L352 839L219 755Z"  horiz-adv-x="645" vert-adv-y="1000"  />

      
      <glyph glyph-name="uni0122" unicode="&#x0122;" d="M365 710Q499 710 596 625L513 538Q476 566 444.50 578.50Q413 591 372 591Q295 591 249 530.50Q203 470 203 347Q203 214 238 158.50Q273 103 347 103Q399 103 441 126L441 283L351 283L335 399L600 399L600 56Q546 21 481 2Q416-17 351-17Q193-17 113 75.50Q33 168 33 347Q33 461 76.50 543Q120 625 195.50 667.50Q271 710 365 710M348-68Q382-68 404.50-90Q427-112 427-145Q427-164 421-181.50Q415-199 400-229L354-325L275-325L302-210Q269-184 269-145Q269-113 291.50-90.50Q314-68 348-68Z"  horiz-adv-x="645" vert-adv-y="1000"  />

      
      <glyph glyph-name="uni0120" unicode="&#x0120;" d="M365 710Q499 710 596 625L513 538Q476 566 444.50 578.50Q413 591 372 591Q295 591 249 530.50Q203 470 203 347Q203 214 238 158.50Q273 103 347 103Q399 103 441 126L441 283L351 283L335 399L600 399L600 56Q546 21 481 2Q416-17 351-17Q193-17 113 75.50Q33 168 33 347Q33 461 76.50 543Q120 625 195.50 667.50Q271 710 365 710M351 937Q392 937 418.50 911.50Q445 886 445 847Q445 808 418.50 782.50Q392 757 351 757Q310 757 284 782.50Q258 808 258 847Q258 886 284 911.50Q310 937 351 937Z"  horiz-adv-x="645" vert-adv-y="1000"  />

      
      <glyph glyph-name="uni0193" unicode="&#x0193;" d="M627 851Q705 851 762 814L716 716Q697 726 681.50 730.50Q666 735 648 735Q596 735 596 673L596 625L519 545Q481 568 446.50 579.50Q412 591 372 591Q295 591 249 530.50Q203 470 203 347Q203 214 238 158.50Q273 103 347 103Q399 103 441 126L441 283L351 283L335 399L600 399L600 56Q546 21 481 2Q416-17 348-17Q192-17 112.50 75.50Q33 168 33 347Q33 460 76 542.50Q119 625 191 667.50Q263 710 346 710Q409 710 457 689Q459 766 502 808.50Q545 851 627 851Z"  horiz-adv-x="612" vert-adv-y="1000"  />

      
      <glyph glyph-name="uni0241" unicode="&#x0241;" d="M147 330L202 345Q264 363 291.50 394.50Q319 426 319 485Q319 534 293 562.50Q267 591 219 591Q183 591 150.50 577.50Q118 564 83 535L4 618Q102 710 241 710Q317 710 373 683Q429 656 459 606.50Q489 557 489 493Q489 410 450.50 363Q412 316 336 288L311 279L311 0L147 0L147 330Z"  horiz-adv-x="509" vert-adv-y="1000"  />

      
      <glyph glyph-name="uni01E4" unicode="&#x01E4;" d="M663 176L600 176L600 56Q546 21 481 2Q416-17 350-17Q193-17 113 75.50Q33 168 33 347Q33 461 76.50 543Q120 625 195.50 667.50Q271 710 364 710Q436 710 492.50 688Q549 666 596 625L514 538Q476 566 444.50 578.50Q413 591 372 591Q295 591 249 530.50Q203 470 203 347Q203 214 238 158.50Q273 103 347 103Q400 103 453 125L453 176L345 176L345 271L453 271L453 314L349 314L335 414L600 414L600 271L663 271L663 176Z"  horiz-adv-x="665" vert-adv-y="1000"  />

      
      <glyph glyph-name="uni021C" unicode="&#x021C;" d="M236 710Q309 710 362.50 686Q416 662 444.50 620Q473 578 473 523Q473 458 434 416Q395 374 318 358Q494 338 494 195Q494 89 391 8Q288-73 69-113L56 8Q161 35 219.50 64.50Q278 94 300 127Q322 160 322 202Q322 296 198 296L125 296L145 414L201 414Q251 414 278 437.50Q305 461 305 505Q305 545 283 568Q261 591 214 591Q145 591 74 535L-2 618Q95 710 236 710Z"  horiz-adv-x="520" vert-adv-y="1000"  />

      
      <glyph glyph-name="uni48" unicode="&#x48;" d="M437 0L437 297L229 297L229 0L65 0L65 693L229 693L229 425L437 425L437 693L601 693L601 0L437 0Z"  horiz-adv-x="666" vert-adv-y="1000"  />

      
      <glyph glyph-name="uni0126" unicode="&#x0126;" d="M664 592L664 500L607 500L607 0L443 0L443 297L235 297L235 0L71 0L71 500L13 500L13 592L71 592L71 693L235 693L235 592L443 592L443 693L607 693L607 592L664 592M443 425L443 500L235 500L235 425L443 425Z"  horiz-adv-x="677" vert-adv-y="1000"  />

      
      <glyph glyph-name="uni021E" unicode="&#x021E;" d="M437 0L437 297L229 297L229 0L65 0L65 693L229 693L229 425L437 425L437 693L601 693L601 0L437 0M466 944L522 879L381 750L285 750L143 879L200 944L333 860L466 944Z"  horiz-adv-x="666" vert-adv-y="1000"  />

      
      <glyph glyph-name="uni0124" unicode="&#x0124;" d="M437 0L437 297L229 297L229 0L65 0L65 693L229 693L229 425L437 425L437 693L601 693L601 0L437 0M200 755L143 820L285 949L381 949L522 820L466 755L333 839L200 755Z"  horiz-adv-x="666" vert-adv-y="1000"  />

      
      <glyph glyph-name="uni1E24" unicode="&#x1E24;" d="M437 0L437 297L229 297L229 0L65 0L65 693L229 693L229 425L437 425L437 693L601 693L601 0L437 0M333-240Q292-240 265.50-214.50Q239-189 239-150Q239-111 265.50-85.50Q292-60 333-60Q374-60 400-85.50Q426-111 426-150Q426-189 400-214.50Q374-240 333-240Z"  horiz-adv-x="666" vert-adv-y="1000"  />

      
      <glyph glyph-name="uniA7AA" unicode="&#xA7AA;" d="M743 693L743 0L579 0L579 297L371 297L371 0L207 0L207 576L178 576Q156 576 144 565Q132 554 132 534Q132 508 149 469L48 424Q28 454 16 483Q4 512 4 544Q4 613 53.50 653Q103 693 187 693L371 693L371 425L579 425L579 693L743 693Z"  horiz-adv-x="807" vert-adv-y="1000"  />

      
      <glyph glyph-name="uniA78D" unicode="&#xA78D;" d="M554 693L554 0L390 0L390 256Q355 229 318.50 216Q282 203 236 203Q135 203 78 267Q21 331 21 441L21 693L183 693L183 443Q183 382 207 353.50Q231 325 283 325Q349 325 390 364L390 693L554 693Z"  horiz-adv-x="619" vert-adv-y="1000"  />

      
      <glyph glyph-name="uni01F6" unicode="&#x01F6;" d="M880 531Q894 458 901.50 391Q909 324 909 248Q909 158 872 98.50Q835 39 776 11Q717-17 650-17Q557-17 497 32.50Q437 82 437 180L437 297L229 297L229 0L65 0L65 693L229 693L229 425L437 425L437 693L601 693L601 183Q601 99 661 99Q698 99 724.50 137.50Q751 176 751 261Q751 374 724 531L880 531Z"  horiz-adv-x="951" vert-adv-y="1000"  />

      
      <glyph glyph-name="uni49" unicode="&#x49;" d="M229 693L229 0L65 0L65 693L229 693Z"  horiz-adv-x="293" vert-adv-y="1000"  />

      
      <glyph glyph-name="uni0132" unicode="&#x0132;" d="M229 693L229 0L65 0L65 693L229 693M549 105Q549 22 519.50-32Q490-86 441.50-116.50Q393-147 326-169L282-53Q326-36 348-14Q370 8 377.50 37Q385 66 385 111L385 693L549 693L549 105Z"  horiz-adv-x="610" vert-adv-y="1000"  />

      
      <glyph glyph-name="unicd" unicode="&#xcd;" d="M229 693L229 0L65 0L65 693L229 693M227 956L286 838L46 751L6 831L227 956Z"  horiz-adv-x="293" vert-adv-y="1000"  />

      
      <glyph glyph-name="uni012C" unicode="&#x012C;" d="M229 693L229 0L65 0L65 693L229 693M145 751Q70 751 24.50 798Q-21 845-27 913L60 928Q70 897 91 878.50Q112 860 145 860Q178 860 199 878.50Q220 897 231 928L318 913Q312 845 266 798Q220 751 145 751Z"  horiz-adv-x="293" vert-adv-y="1000"  />

      
      <glyph glyph-name="uni01CF" unicode="&#x01CF;" d="M229 693L229 0L65 0L65 693L229 693M279 944L335 879L194 750L98 750L-44 879L13 944L146 860L279 944Z"  horiz-adv-x="293" vert-adv-y="1000"  />

      
      <glyph glyph-name="unice" unicode="&#xce;" d="M229 693L229 0L65 0L65 693L229 693M13 755L-44 820L98 949L194 949L335 820L279 755L146 839L13 755Z"  horiz-adv-x="293" vert-adv-y="1000"  />

      
      <glyph glyph-name="uni0208" unicode="&#x0208;" d="M229 693L229 0L65 0L65 693L229 693M15 986L112 789L31 751L-91 933L15 986M191 986L279 789L196 756L83 936L191 986Z"  horiz-adv-x="293" vert-adv-y="1000"  />

      
      <glyph glyph-name="unicf" unicode="&#xcf;" d="M229 693L229 0L65 0L65 693L229 693M29 925Q63 925 86.50 902Q110 879 110 846Q110 813 86.50 790Q63 767 29 767Q-5 767-28.50 790Q-52 813-52 846Q-52 879-28.50 902Q-5 925 29 925M260 925Q295 925 318 902Q341 879 341 846Q341 813 318 790Q295 767 260 767Q227 767 203.50 790Q180 813 180 846Q180 879 203.50 902Q227 925 260 925Z"  horiz-adv-x="293" vert-adv-y="1000"  />

      
      <glyph glyph-name="uni1E2E" unicode="&#x1E2E;" d="M229 693L229 0L65 0L65 693L229 693M218 1097L304 1013L146 872L86 926L218 1097M24 906Q57 906 81 883Q105 860 105 827Q105 794 81 771Q57 748 24 748Q-10 748-33.50 771Q-57 794-57 827Q-57 860-33.50 883Q-10 906 24 906M268 906Q302 906 325.50 883Q349 860 349 827Q349 794 325.50 771Q302 748 268 748Q234 748 210.50 771Q187 794 187 827Q187 860 210.50 883Q234 906 268 906Z"  horiz-adv-x="293" vert-adv-y="1000"  />

      
      <glyph glyph-name="uni0130" unicode="&#x0130;" d="M229 693L229 0L65 0L65 693L229 693M145 937Q186 937 212.50 911.50Q239 886 239 847Q239 808 212.50 782.50Q186 757 145 757Q104 757 78 782.50Q52 808 52 847Q52 886 78 911.50Q104 937 145 937Z"  horiz-adv-x="293" vert-adv-y="1000"  />

      
      <glyph glyph-name="uni1ECA" unicode="&#x1ECA;" d="M229 693L229 0L65 0L65 693L229 693M146-240Q105-240 78.50-214.50Q52-189 52-150Q52-111 78.50-85.50Q105-60 146-60Q187-60 213-85.50Q239-111 239-150Q239-189 213-214.50Q187-240 146-240Z"  horiz-adv-x="293" vert-adv-y="1000"  />

      
      <glyph glyph-name="unicc" unicode="&#xcc;" d="M229 693L229 0L65 0L65 693L229 693M61 956L282 831L242 751L2 838L61 956Z"  horiz-adv-x="293" vert-adv-y="1000"  />

      
      <glyph glyph-name="uni1EC8" unicode="&#x1EC8;" d="M229 693L229 0L65 0L65 693L229 693M98 853Q136 855 152.50 863.50Q169 872 169 891Q169 906 158.50 914Q148 922 129 922Q102 922 69 909L43 975Q88 1001 152 1001Q211 1001 243.50 973Q276 945 276 899Q276 822 192 806L192 764L98 764L98 853Z"  horiz-adv-x="293" vert-adv-y="1000"  />

      
      <glyph glyph-name="uni020A" unicode="&#x020A;" d="M229 693L229 0L65 0L65 693L229 693M145 952Q221 952 266.50 903Q312 854 318 779L231 764Q210 842 145 842Q79 842 60 764L-27 779Q-21 855 24 903.50Q69 952 145 952Z"  horiz-adv-x="293" vert-adv-y="1000"  />

      
      <glyph glyph-name="uni012A" unicode="&#x012A;" d="M229 693L229 0L65 0L65 693L229 693M298 781L-7 781L-7 891L298 891L298 781Z"  horiz-adv-x="293" vert-adv-y="1000"  />

      
      <glyph glyph-name="uni012E" unicode="&#x012E;" d="M229 693L229 0L200 0Q82-44 82-102Q82-148 135-148Q159-148 196-140L185-238Q150-246 115-246Q50-246 9-214Q-32-182-32-129Q-32-43 65 8L65 693L229 693Z"  horiz-adv-x="293" vert-adv-y="1000"  />

      
      <glyph glyph-name="uni0196" unicode="&#x0196;" d="M396 26Q339-17 255-17Q162-17 108 31.50Q54 80 54 174L54 206L55 206L55 693L219 693L219 205L218 205L218 163Q218 133 232 117.50Q246 102 272 102Q292 102 306 107Q320 112 342 123L396 26Z"  horiz-adv-x="391" vert-adv-y="1000"  />

      
      <glyph glyph-name="uni0197" unicode="&#x0197;" d="M324 420L324 300L247 300L247 0L83 0L83 300L5 300L5 420L83 420L83 693L247 693L247 420L324 420Z"  horiz-adv-x="330" vert-adv-y="1000"  />

      
      <glyph glyph-name="uni0128" unicode="&#x0128;" d="M229 693L229 0L65 0L65 693L229 693M204 761Q182 761 166 768Q150 775 131 788Q106 806 90 806Q73 806 61.50 795.50Q50 785 37 762L-42 800Q-22 852 11.50 885Q45 918 87 918Q110 918 126.50 910.50Q143 903 163 890Q177 881 185.50 877Q194 873 203 873Q219 873 230.50 883.50Q242 894 255 917L334 878Q313 825 279.50 793Q246 761 204 761Z"  horiz-adv-x="293" vert-adv-y="1000"  />

      
      <glyph glyph-name="uni4a" unicode="&#x4a;" d="M256 105Q256 22 226.50-32Q197-86 148.50-116.50Q100-147 33-169L-11-53Q33-36 55-14Q77 8 84.50 37Q92 66 92 111L92 693L256 693L256 105Z"  horiz-adv-x="317" vert-adv-y="1000"  />

      
      <glyph glyph-name="uni0134" unicode="&#x0134;" d="M256 105Q256 22 226.50-32Q197-86 148.50-116.50Q100-147 33-169L-11-53Q33-36 55-14Q77 8 84.50 37Q92 66 92 111L92 693L256 693L256 105M41 755L-16 820L126 949L222 949L363 820L307 755L174 839L41 755Z"  horiz-adv-x="317" vert-adv-y="1000"  />

      
      <glyph glyph-name="uniA7B2" unicode="&#xA7B2;" d="M369-110Q315-86 276-76Q237-222 65-222Q-8-222-48-190Q-88-158-88-103Q-88-42-43.50-8.50Q1 25 83 25Q103 25 125 23L125 693L289 693L289 31Q289 9 288-1Q344-17 398-44L369-110M59-139Q93-139 107.50-119.50Q122-100 124-53Q104-51 83-51Q45-51 27.50-63Q10-75 10-99Q10-139 59-139Z"  horiz-adv-x="354" vert-adv-y="1000"  />

      
      <glyph glyph-name="uni0248" unicode="&#x0248;" d="M333 282L256 282L256 105Q256 22 226.50-32Q197-86 148.50-116.50Q100-147 33-169L-11-53Q33-36 55-14Q77 8 84.50 37Q92 66 92 111L92 282L14 282L14 404L92 404L92 693L256 693L256 404L333 404L333 282Z"  horiz-adv-x="337" vert-adv-y="1000"  />

      
      <glyph glyph-name="uni4b" unicode="&#x4b;" d="M229 693L229 0L65 0L65 693L229 693M627 693L406 382L645 0L455 0L234 370L454 693L627 693Z"  horiz-adv-x="633" vert-adv-y="1000"  />

      
      <glyph glyph-name="uni01E8" unicode="&#x01E8;" d="M229 693L229 0L65 0L65 693L229 693M627 693L406 382L645 0L455 0L234 370L454 693L627 693M462 944L518 879L377 750L281 750L139 879L196 944L329 860L462 944Z"  horiz-adv-x="633" vert-adv-y="1000"  />

      
      <glyph glyph-name="uni0136" unicode="&#x0136;" d="M229 693L229 0L65 0L65 693L229 693M627 693L406 382L645 0L455 0L234 370L454 693L627 693M325-68Q359-68 381.50-90Q404-112 404-145Q404-164 398-181.50Q392-199 377-229L331-325L252-325L279-210Q246-184 246-145Q246-113 268.50-90.50Q291-68 325-68Z"  horiz-adv-x="633" vert-adv-y="1000"  />

      
      <glyph glyph-name="uni0198" unicode="&#x0198;" d="M234 370L373 591Q413 657 452 683.50Q491 710 553 710Q615 710 666 673L622 579Q600 593 576 593Q555 593 540.50 583Q526 573 506 541L405 382L645 0L455 0L234 370M229 693L229 0L65 0L65 693L229 693Z"  horiz-adv-x="653" vert-adv-y="1000"  />

      
      <glyph glyph-name="uni4c" unicode="&#x4c;" d="M229 693L229 130L499 130L482 0L65 0L65 693L229 693Z"  horiz-adv-x="513" vert-adv-y="1000"  />

      
      <glyph glyph-name="uni01C7" unicode="&#x01C7;" d="M229 693L229 130L499 130L482 0L65 0L65 693L229 693M746 105Q746 22 716.50-32Q687-86 638.50-116.50Q590-147 523-169L479-53Q523-36 545-14Q567 8 574.50 37Q582 66 582 111L582 693L746 693L746 105Z"  horiz-adv-x="807" vert-adv-y="1000"  />

      
      <glyph glyph-name="uni0139" unicode="&#x0139;" d="M229 693L229 130L499 130L482 0L65 0L65 693L229 693M228 956L287 838L47 751L7 831L228 956Z"  horiz-adv-x="513" vert-adv-y="1000"  />

      
      <glyph glyph-name="uni023D" unicode="&#x023D;" d="M246 130L516 130L499 0L82 0L82 302L5 302L5 424L82 424L82 693L246 693L246 424L324 424L324 302L246 302L246 130Z"  horiz-adv-x="530" vert-adv-y="1000"  />

      
      <glyph glyph-name="uniA7AD" unicode="&#xA7AD;" d="M599 130L582 0L165 0L165 252L164 252Q83 254 42 289Q1 324 1 383Q1 438 36 469Q71 500 127 500Q145 500 165 496L165 693L329 693L329 345Q389 348 449 359L461 274Q395 260 329 256L329 130L599 130M165 343L165 414Q153 417 139 417Q123 417 114.50 408.50Q106 400 106 384Q106 343 164 343L165 343Z"  horiz-adv-x="613" vert-adv-y="1000"  />

      
      <glyph glyph-name="uni013D" unicode="&#x013D;" d="M229 693L229 130L499 130L482 0L65 0L65 693L229 693M358 478L413 693L293 710L270 491L358 478Z"  horiz-adv-x="513" vert-adv-y="1000"  />

      
      <glyph glyph-name="uni1E3C" unicode="&#x1E3C;" d="M229 693L229 130L499 130L482 0L65 0L65 693L229 693M139-265L83-200L224-63L321-63L462-200L406-265L273-173L139-265Z"  horiz-adv-x="513" vert-adv-y="1000"  />

      
      <glyph glyph-name="uni013B" unicode="&#x013B;" d="M229 693L229 130L499 130L482 0L65 0L65 693L229 693M274-68Q308-68 330.50-90Q353-112 353-145Q353-164 347-181.50Q341-199 326-229L280-325L201-325L228-210Q195-184 195-145Q195-113 217.50-90.50Q240-68 274-68Z"  horiz-adv-x="513" vert-adv-y="1000"  />

      
      <glyph glyph-name="uni013F" unicode="&#x013F;" d="M229 693L229 130L499 130L482 0L65 0L65 693L229 693M399 490Q440 490 466.50 464.50Q493 439 493 400Q493 361 466.50 335.50Q440 310 399 310Q358 310 332 335.50Q306 361 306 400Q306 439 332 464.50Q358 490 399 490Z"  horiz-adv-x="513" vert-adv-y="1000"  />

      
      <glyph glyph-name="uni1E36" unicode="&#x1E36;" d="M229 693L229 130L499 130L482 0L65 0L65 693L229 693M273-240Q232-240 205.50-214.50Q179-189 179-150Q179-111 205.50-85.50Q232-60 273-60Q314-60 340-85.50Q366-111 366-150Q366-189 340-214.50Q314-240 273-240Z"  horiz-adv-x="513" vert-adv-y="1000"  />

      
      <glyph glyph-name="uni01C8" unicode="&#x01C8;" d="M229 693L229 130L499 130L482 0L65 0L65 693L229 693M717 60Q717-23 690.50-77Q664-131 618.50-163.50Q573-196 504-221L451-106Q490-88 512-71Q534-54 546.50-25.50Q559 3 559 50L559 531L717 531L717 60M638 811Q679 811 705.50 785.50Q732 760 732 721Q732 682 705.50 656.50Q679 631 638 631Q597 631 571 656.50Q545 682 545 721Q545 760 571 785.50Q597 811 638 811Z"  horiz-adv-x="779" vert-adv-y="1000"  />

      
      <glyph glyph-name="uni0141" unicode="&#x0141;" d="M269 130L539 130L522 0L105 0L105 225L62 198L8 285L104 344L105 345L105 693L269 693L269 446L396 525L450 439L269 327L269 130Z"  horiz-adv-x="553" vert-adv-y="1000"  />

      
      <glyph glyph-name="uni4d" unicode="&#x4d;" d="M753 0L592 0L580 271Q575 368 575 444Q575 502 578 554L471 73L316 73L202 554Q208 467 208 390Q208 332 205 269L193 0L33 0L85 693L292 693L396 223L493 693L701 693L753 0Z"  horiz-adv-x="786" vert-adv-y="1000"  />

      
      <glyph glyph-name="uni1E3E" unicode="&#x1E3E;" d="M753 0L592 0L580 271Q575 368 575 444Q575 502 578 554L471 73L316 73L202 554Q208 467 208 390Q208 332 205 269L193 0L33 0L85 693L292 693L396 223L493 693L701 693L753 0M474 956L533 838L293 751L253 831L474 956Z"  horiz-adv-x="786" vert-adv-y="1000"  />

      
      <glyph glyph-name="uni1E40" unicode="&#x1E40;" d="M753 0L592 0L580 271Q575 368 575 444Q575 502 578 554L471 73L316 73L202 554Q208 467 208 390Q208 332 205 269L193 0L33 0L85 693L292 693L396 223L493 693L701 693L753 0M392 937Q433 937 459.50 911.50Q486 886 486 847Q486 808 459.50 782.50Q433 757 392 757Q351 757 325 782.50Q299 808 299 847Q299 886 325 911.50Q351 937 392 937Z"  horiz-adv-x="786" vert-adv-y="1000"  />

      
      <glyph glyph-name="uni019C" unicode="&#x019C;" d="M850 693L850 0L707 0L695 64Q660 22 622.50 2.50Q585-17 538-17Q486-17 448.50 7Q411 31 391 75Q350 26 311 4.50Q272-17 222-17Q144-17 99.50 36.50Q55 90 55 177L55 693L219 693L219 185Q219 147 234 126Q249 105 277 105Q301 105 322 121.50Q343 138 370 172L370 177L370 693L535 693L535 185Q535 147 550 126Q565 105 592 105Q620 105 641 121Q662 137 686 173L686 693L850 693Z"  horiz-adv-x="915" vert-adv-y="1000"  />

      
      <glyph glyph-name="uni4e" unicode="&#x4e;" d="M599 0L390 0L190 537Q200 458 205.50 397.50Q211 337 211 254L211 0L65 0L65 693L269 693L474 155Q452 292 452 413L452 693L599 693L599 0Z"  horiz-adv-x="663" vert-adv-y="1000"  />

      
      <glyph glyph-name="uni01CA" unicode="&#x01CA;" d="M599 0L390 0L190 537Q200 458 205.50 397.50Q211 337 211 254L211 0L65 0L65 693L269 693L474 155Q452 292 452 413L452 693L599 693L599 0M919 105Q919 22 889.50-32Q860-86 811.50-116.50Q763-147 696-169L652-53Q696-36 718-14Q740 8 747.50 37Q755 66 755 111L755 693L919 693L919 105Z"  horiz-adv-x="980" vert-adv-y="1000"  />

      
      <glyph glyph-name="uni0143" unicode="&#x0143;" d="M599 0L390 0L190 537Q200 458 205.50 397.50Q211 337 211 254L211 0L65 0L65 693L269 693L474 155Q452 292 452 413L452 693L599 693L599 0M417 956L476 838L236 751L196 831L417 956Z"  horiz-adv-x="663" vert-adv-y="1000"  />

      
      <glyph glyph-name="uni0147" unicode="&#x0147;" d="M599 0L390 0L190 537Q200 458 205.50 397.50Q211 337 211 254L211 0L65 0L65 693L269 693L474 155Q452 292 452 413L452 693L599 693L599 0M469 944L525 879L384 750L288 750L146 879L203 944L336 860L469 944Z"  horiz-adv-x="663" vert-adv-y="1000"  />

      
      <glyph glyph-name="uni1E4A" unicode="&#x1E4A;" d="M599 0L390 0L190 537Q200 458 205.50 397.50Q211 337 211 254L211 0L65 0L65 693L269 693L474 155Q452 292 452 413L452 693L599 693L599 0M198-265L142-200L283-63L380-63L521-200L465-265L332-173L198-265Z"  horiz-adv-x="663" vert-adv-y="1000"  />

      
      <glyph glyph-name="uni0145" unicode="&#x0145;" d="M599 0L390 0L190 537Q200 458 205.50 397.50Q211 337 211 254L211 0L65 0L65 693L269 693L474 155Q452 292 452 413L452 693L599 693L599 0M333-68Q367-68 389.50-90Q412-112 412-145Q412-164 406-181.50Q400-199 385-229L339-325L260-325L287-210Q254-184 254-145Q254-113 276.50-90.50Q299-68 333-68Z"  horiz-adv-x="663" vert-adv-y="1000"  />

      
      <glyph glyph-name="uni1E44" unicode="&#x1E44;" d="M599 0L390 0L190 537Q200 458 205.50 397.50Q211 337 211 254L211 0L65 0L65 693L269 693L474 155Q452 292 452 413L452 693L599 693L599 0M335 937Q376 937 402.50 911.50Q429 886 429 847Q429 808 402.50 782.50Q376 757 335 757Q294 757 268 782.50Q242 808 242 847Q242 886 268 911.50Q294 937 335 937Z"  horiz-adv-x="663" vert-adv-y="1000"  />

      
      <glyph glyph-name="uni1E46" unicode="&#x1E46;" d="M599 0L390 0L190 537Q200 458 205.50 397.50Q211 337 211 254L211 0L65 0L65 693L269 693L474 155Q452 292 452 413L452 693L599 693L599 0M332-240Q291-240 264.50-214.50Q238-189 238-150Q238-111 264.50-85.50Q291-60 332-60Q373-60 399-85.50Q425-111 425-150Q425-189 399-214.50Q373-240 332-240Z"  horiz-adv-x="663" vert-adv-y="1000"  />

      
      <glyph glyph-name="uni01F8" unicode="&#x01F8;" d="M599 0L390 0L190 537Q200 458 205.50 397.50Q211 337 211 254L211 0L65 0L65 693L269 693L474 155Q452 292 452 413L452 693L599 693L599 0M251 956L472 831L432 751L192 838L251 956Z"  horiz-adv-x="663" vert-adv-y="1000"  />

      
      <glyph glyph-name="uni014A" unicode="&#x014A;" d="M599 693L599-31Q599-125 545-173.50Q491-222 398-222Q314-222 257-179L311-82Q333-93 347-98Q361-103 381-103Q407-103 421-87.50Q435-72 435-42L435 0L390 0L190 537Q200 458 205.50 397.50Q211 337 211 254L211 0L65 0L65 693L269 693L474 155Q452 292 452 413L452 693L599 693Z"  horiz-adv-x="663" vert-adv-y="1000"  />

      
      <glyph glyph-name="uni019D" unicode="&#x019D;" d="M599 693L599 0L390 0L190 537Q200 458 205.50 397.50Q211 337 211 254L211-32Q211-125 161-173.50Q111-222 25-222Q-59-222-116-179L-62-85Q-41-97-26.50-102Q-12-107 8-107Q35-107 50-91.50Q65-76 65-46L65 693L269 693L474 155Q452 292 452 413L452 693L599 693Z"  horiz-adv-x="663" vert-adv-y="1000"  />

      
      <glyph glyph-name="uni01CB" unicode="&#x01CB;" d="M599 0L390 0L190 537Q200 458 205.50 397.50Q211 337 211 254L211 0L65 0L65 693L269 693L474 155Q452 292 452 413L452 693L599 693L599 0M882 60Q882-23 855.50-77Q829-131 783.50-163.50Q738-196 669-221L616-106Q655-88 677-71Q699-54 711.50-25.50Q724 3 724 50L724 531L882 531L882 60M803 811Q844 811 870.50 785.50Q897 760 897 721Q897 682 870.50 656.50Q844 631 803 631Q762 631 736 656.50Q710 682 710 721Q710 760 736 785.50Q762 811 803 811Z"  horiz-adv-x="944" vert-adv-y="1000"  />

      
      <glyph glyph-name="uni0220" unicode="&#x0220;" d="M415 710Q504 710 549.50 659Q595 608 595 525L595-210L431-210L431 499Q431 544 413.50 566Q396 588 358 588Q320 588 291 572Q262 556 229 520L229 0L65 0L65 693L208 693L221 627Q265 670 310 690Q355 710 415 710Z"  horiz-adv-x="654" vert-adv-y="1000"  />

      
      <glyph glyph-name="unid1" unicode="&#xd1;" d="M599 0L390 0L190 537Q200 458 205.50 397.50Q211 337 211 254L211 0L65 0L65 693L269 693L474 155Q452 292 452 413L452 693L599 693L599 0M394 761Q372 761 356 768Q340 775 321 788Q296 806 280 806Q263 806 251.50 795.50Q240 785 227 762L148 800Q168 852 201.50 885Q235 918 277 918Q300 918 316.50 910.50Q333 903 353 890Q367 881 375.50 877Q384 873 393 873Q409 873 420.50 883.50Q432 894 445 917L524 878Q503 825 469.50 793Q436 761 394 761Z"  horiz-adv-x="663" vert-adv-y="1000"  />

      
      <glyph glyph-name="uni4f" unicode="&#x4f;" d="M345 710Q493 710 575.50 615Q658 520 658 347Q658 234 620.50 152Q583 70 512.50 26.50Q442-17 345-17Q248-17 178 26Q108 69 70.50 150.50Q33 232 33 347Q33 459 70.50 541Q108 623 178 666.50Q248 710 345 710M345 590Q274 590 239.50 532.50Q205 475 205 347Q205 219 240 161Q275 103 345 103Q417 103 451.50 160.50Q486 218 486 347Q486 476 451 533Q416 590 345 590Z"  horiz-adv-x="691" vert-adv-y="1000"  />

      
      <glyph glyph-name="uni0222" unicode="&#x0222;" d="M487 400Q551 376 584.50 329.50Q618 283 618 218Q618 155 582.50 101Q547 47 480.50 15Q414-17 325-17Q236-17 170 14Q104 45 68.50 98.50Q33 152 33 217Q33 280 66.50 326.50Q100 373 163 398Q74 446 74 551L74 693L238 693L238 544Q238 497 258 473Q278 449 326 449Q414 449 414 544L414 693L578 693L578 551Q578 501 554.50 462.50Q531 424 487 400M325 103Q386 103 416 133.50Q446 164 446 220Q446 273 415 303.50Q384 334 325 334Q267 334 236 303.50Q205 273 205 219Q205 164 236 133.50Q267 103 325 103Z"  horiz-adv-x="651" vert-adv-y="1000"  />

      
      <glyph glyph-name="unid3" unicode="&#xd3;" d="M345 710Q493 710 575.50 615Q658 520 658 347Q658 234 620.50 152Q583 70 512.50 26.50Q442-17 345-17Q248-17 178 26Q108 69 70.50 150.50Q33 232 33 347Q33 459 70.50 541Q108 623 178 666.50Q248 710 345 710M345 590Q274 590 239.50 532.50Q205 475 205 347Q205 219 240 161Q275 103 345 103Q417 103 451.50 160.50Q486 218 486 347Q486 476 451 533Q416 590 345 590M426 956L485 838L245 751L205 831L426 956Z"  horiz-adv-x="691" vert-adv-y="1000"  />

      
      <glyph glyph-name="uni014E" unicode="&#x014E;" d="M345 710Q493 710 575.50 615Q658 520 658 347Q658 234 620.50 152Q583 70 512.50 26.50Q442-17 345-17Q248-17 178 26Q108 69 70.50 150.50Q33 232 33 347Q33 459 70.50 541Q108 623 178 666.50Q248 710 345 710M345 590Q274 590 239.50 532.50Q205 475 205 347Q205 219 240 161Q275 103 345 103Q417 103 451.50 160.50Q486 218 486 347Q486 476 451 533Q416 590 345 590M344 751Q269 751 223.50 798Q178 845 172 913L259 928Q269 897 290 878.50Q311 860 344 860Q377 860 398 878.50Q419 897 430 928L517 913Q511 845 465 798Q419 751 344 751Z"  horiz-adv-x="691" vert-adv-y="1000"  />

      
      <glyph glyph-name="uni01D1" unicode="&#x01D1;" d="M345 710Q493 710 575.50 615Q658 520 658 347Q658 234 620.50 152Q583 70 512.50 26.50Q442-17 345-17Q248-17 178 26Q108 69 70.50 150.50Q33 232 33 347Q33 459 70.50 541Q108 623 178 666.50Q248 710 345 710M345 590Q274 590 239.50 532.50Q205 475 205 347Q205 219 240 161Q275 103 345 103Q417 103 451.50 160.50Q486 218 486 347Q486 476 451 533Q416 590 345 590M478 944L534 879L393 750L297 750L155 879L212 944L345 860L478 944Z"  horiz-adv-x="691" vert-adv-y="1000"  />

      
      <glyph glyph-name="uni019F" unicode="&#x019F;" d="M345 710Q493 710 575.50 615Q658 520 658 347Q658 234 620.50 152Q583 70 512.50 26.50Q442-17 345-17Q248-17 178 26Q108 69 70.50 150.50Q33 232 33 347Q33 459 70.50 541Q108 623 178 666.50Q248 710 345 710M345 590Q281 590 245 544Q209 498 202 397L489 397Q482 498 446 544Q410 590 345 590M345 103Q411 103 447.50 151Q484 199 490 305L201 305Q212 103 345 103Z"  horiz-adv-x="691" vert-adv-y="1000"  />

      
      <glyph glyph-name="unid4" unicode="&#xd4;" d="M345 710Q493 710 575.50 615Q658 520 658 347Q658 234 620.50 152Q583 70 512.50 26.50Q442-17 345-17Q248-17 178 26Q108 69 70.50 150.50Q33 232 33 347Q33 459 70.50 541Q108 623 178 666.50Q248 710 345 710M345 590Q274 590 239.50 532.50Q205 475 205 347Q205 219 240 161Q275 103 345 103Q417 103 451.50 160.50Q486 218 486 347Q486 476 451 533Q416 590 345 590M212 755L155 820L297 949L393 949L534 820L478 755L345 839L212 755Z"  horiz-adv-x="691" vert-adv-y="1000"  />

      
      <glyph glyph-name="uni1ED0" unicode="&#x1ED0;" d="M345 710Q493 710 575.50 615Q658 520 658 347Q658 234 620.50 152Q583 70 512.50 26.50Q442-17 345-17Q248-17 178 26Q108 69 70.50 150.50Q33 232 33 347Q33 459 70.50 541Q108 623 178 666.50Q248 710 345 710M345 590Q274 590 239.50 532.50Q205 475 205 347Q205 219 240 161Q275 103 345 103Q417 103 451.50 160.50Q486 218 486 347Q486 476 451 533Q416 590 345 590M212 721L155 786L297 915L393 915L534 786L478 721L345 805L212 721M580 1094L666 1010L508 869L448 923L580 1094Z"  horiz-adv-x="691" vert-adv-y="1000"  />

      
      <glyph glyph-name="uni1ED8" unicode="&#x1ED8;" d="M345 710Q493 710 575.50 615Q658 520 658 347Q658 234 620.50 152Q583 70 512.50 26.50Q442-17 345-17Q248-17 178 26Q108 69 70.50 150.50Q33 232 33 347Q33 459 70.50 541Q108 623 178 666.50Q248 710 345 710M345 590Q274 590 239.50 532.50Q205 475 205 347Q205 219 240 161Q275 103 345 103Q417 103 451.50 160.50Q486 218 486 347Q486 476 451 533Q416 590 345 590M212 755L155 820L297 949L393 949L534 820L478 755L345 839L212 755M345-240Q304-240 277.50-214.50Q251-189 251-150Q251-111 277.50-85.50Q304-60 345-60Q386-60 412-85.50Q438-111 438-150Q438-189 412-214.50Q386-240 345-240Z"  horiz-adv-x="691" vert-adv-y="1000"  />

      
      <glyph glyph-name="uni1ED2" unicode="&#x1ED2;" d="M345 710Q493 710 575.50 615Q658 520 658 347Q658 234 620.50 152Q583 70 512.50 26.50Q442-17 345-17Q248-17 178 26Q108 69 70.50 150.50Q33 232 33 347Q33 459 70.50 541Q108 623 178 666.50Q248 710 345 710M345 590Q274 590 239.50 532.50Q205 475 205 347Q205 219 240 161Q275 103 345 103Q417 103 451.50 160.50Q486 218 486 347Q486 476 451 533Q416 590 345 590M211 721L154 786L296 915L392 915L533 786L477 721L344 805L211 721M111 1094L242 923L183 869L25 1010L111 1094Z"  horiz-adv-x="691" vert-adv-y="1000"  />

      
      <glyph glyph-name="uni1ED4" unicode="&#x1ED4;" d="M345 710Q493 710 575.50 615Q658 520 658 347Q658 234 620.50 152Q583 70 512.50 26.50Q442-17 345-17Q248-17 178 26Q108 69 70.50 150.50Q33 232 33 347Q33 459 70.50 541Q108 623 178 666.50Q248 710 345 710M345 590Q274 590 239.50 532.50Q205 475 205 347Q205 219 240 161Q275 103 345 103Q417 103 451.50 160.50Q486 218 486 347Q486 476 451 533Q416 590 345 590M211 721L154 786L296 915L392 915L533 786L477 721L344 805L211 721M469 945Q507 947 523.50 955.50Q540 964 540 983Q540 998 529.50 1006Q519 1014 500 1014Q473 1014 440 1001L414 1067Q459 1093 523 1093Q582 1093 614.50 1065Q647 1037 647 991Q647 914 563 898L563 856L469 856L469 945Z"  horiz-adv-x="691" vert-adv-y="1000"  />

      
      <glyph glyph-name="uni1ED6" unicode="&#x1ED6;" d="M345 710Q493 710 575.50 615Q658 520 658 347Q658 234 620.50 152Q583 70 512.50 26.50Q442-17 345-17Q248-17 178 26Q108 69 70.50 150.50Q33 232 33 347Q33 459 70.50 541Q108 623 178 666.50Q248 710 345 710M345 590Q274 590 239.50 532.50Q205 475 205 347Q205 219 240 161Q275 103 345 103Q417 103 451.50 160.50Q486 218 486 347Q486 476 451 533Q416 590 345 590M210 721L153 786L295 915L391 915L532 786L476 721L343 805L210 721M401 941Q379 941 362.50 948Q346 955 328 967Q315 976 305.50 980Q296 984 287 984Q270 984 258.50 974Q247 964 234 942L155 978Q175 1027 208.50 1058Q242 1089 284 1089Q307 1089 323.50 1082.50Q340 1076 360 1063Q374 1054 382.50 1050Q391 1046 400 1046Q416 1046 427.50 1056Q439 1066 452 1088L531 1051Q510 1001 476.50 971Q443 941 401 941Z"  horiz-adv-x="691" vert-adv-y="1000"  />

      
      <glyph glyph-name="uni020C" unicode="&#x020C;" d="M345 710Q493 710 575.50 615Q658 520 658 347Q658 234 620.50 152Q583 70 512.50 26.50Q442-17 345-17Q248-17 178 26Q108 69 70.50 150.50Q33 232 33 347Q33 459 70.50 541Q108 623 178 666.50Q248 710 345 710M345 590Q274 590 239.50 532.50Q205 475 205 347Q205 219 240 161Q275 103 345 103Q417 103 451.50 160.50Q486 218 486 347Q486 476 451 533Q416 590 345 590M214 986L311 789L230 751L108 933L214 986M390 986L478 789L395 756L282 936L390 986Z"  horiz-adv-x="691" vert-adv-y="1000"  />

      
      <glyph glyph-name="unid6" unicode="&#xd6;" d="M345 710Q493 710 575.50 615Q658 520 658 347Q658 234 620.50 152Q583 70 512.50 26.50Q442-17 345-17Q248-17 178 26Q108 69 70.50 150.50Q33 232 33 347Q33 459 70.50 541Q108 623 178 666.50Q248 710 345 710M345 590Q274 590 239.50 532.50Q205 475 205 347Q205 219 240 161Q275 103 345 103Q417 103 451.50 160.50Q486 218 486 347Q486 476 451 533Q416 590 345 590M228 925Q262 925 285.50 902Q309 879 309 846Q309 813 285.50 790Q262 767 228 767Q194 767 170.50 790Q147 813 147 846Q147 879 170.50 902Q194 925 228 925M459 925Q494 925 517 902Q540 879 540 846Q540 813 517 790Q494 767 459 767Q426 767 402.50 790Q379 813 379 846Q379 879 402.50 902Q426 925 459 925Z"  horiz-adv-x="691" vert-adv-y="1000"  />

      
      <glyph glyph-name="uni022A" unicode="&#x022A;" d="M345 710Q493 710 575.50 615Q658 520 658 347Q658 234 620.50 152Q583 70 512.50 26.50Q442-17 345-17Q248-17 178 26Q108 69 70.50 150.50Q33 232 33 347Q33 459 70.50 541Q108 623 178 666.50Q248 710 345 710M345 590Q274 590 239.50 532.50Q205 475 205 347Q205 219 240 161Q275 103 345 103Q417 103 451.50 160.50Q486 218 486 347Q486 476 451 533Q416 590 345 590M229 903Q263 903 286.50 880Q310 857 310 824Q310 791 286.50 768Q263 745 229 745Q195 745 171.50 768Q148 791 148 824Q148 857 171.50 880Q195 903 229 903M460 903Q495 903 518 880Q541 857 541 824Q541 791 518 768Q495 745 460 745Q427 745 403.50 768Q380 791 380 824Q380 857 403.50 880Q427 903 460 903M500 940L195 940L195 1050L500 1050L500 940Z"  horiz-adv-x="691" vert-adv-y="1000"  />

      
      <glyph glyph-name="uni022E" unicode="&#x022E;" d="M345 710Q493 710 575.50 615Q658 520 658 347Q658 234 620.50 152Q583 70 512.50 26.50Q442-17 345-17Q248-17 178 26Q108 69 70.50 150.50Q33 232 33 347Q33 459 70.50 541Q108 623 178 666.50Q248 710 345 710M345 590Q274 590 239.50 532.50Q205 475 205 347Q205 219 240 161Q275 103 345 103Q417 103 451.50 160.50Q486 218 486 347Q486 476 451 533Q416 590 345 590M344 937Q385 937 411.50 911.50Q438 886 438 847Q438 808 411.50 782.50Q385 757 344 757Q303 757 277 782.50Q251 808 251 847Q251 886 277 911.50Q303 937 344 937Z"  horiz-adv-x="691" vert-adv-y="1000"  />

      
      <glyph glyph-name="uni0230" unicode="&#x0230;" d="M345 710Q493 710 575.50 615Q658 520 658 347Q658 234 620.50 152Q583 70 512.50 26.50Q442-17 345-17Q248-17 178 26Q108 69 70.50 150.50Q33 232 33 347Q33 459 70.50 541Q108 623 178 666.50Q248 710 345 710M345 590Q274 590 239.50 532.50Q205 475 205 347Q205 219 240 161Q275 103 345 103Q417 103 451.50 160.50Q486 218 486 347Q486 476 451 533Q416 590 345 590M343 916Q384 916 410.50 890.50Q437 865 437 826Q437 787 410.50 761.50Q384 736 343 736Q302 736 276 761.50Q250 787 250 826Q250 865 276 890.50Q302 916 343 916M497 941L192 941L192 1051L497 1051L497 941Z"  horiz-adv-x="691" vert-adv-y="1000"  />

      
      <glyph glyph-name="uni1ECC" unicode="&#x1ECC;" d="M345 710Q493 710 575.50 615Q658 520 658 347Q658 234 620.50 152Q583 70 512.50 26.50Q442-17 345-17Q248-17 178 26Q108 69 70.50 150.50Q33 232 33 347Q33 459 70.50 541Q108 623 178 666.50Q248 710 345 710M345 590Q274 590 239.50 532.50Q205 475 205 347Q205 219 240 161Q275 103 345 103Q417 103 451.50 160.50Q486 218 486 347Q486 476 451 533Q416 590 345 590M345-240Q304-240 277.50-214.50Q251-189 251-150Q251-111 277.50-85.50Q304-60 345-60Q386-60 412-85.50Q438-111 438-150Q438-189 412-214.50Q386-240 345-240Z"  horiz-adv-x="691" vert-adv-y="1000"  />

      
      <glyph glyph-name="unid2" unicode="&#xd2;" d="M345 710Q493 710 575.50 615Q658 520 658 347Q658 234 620.50 152Q583 70 512.50 26.50Q442-17 345-17Q248-17 178 26Q108 69 70.50 150.50Q33 232 33 347Q33 459 70.50 541Q108 623 178 666.50Q248 710 345 710M345 590Q274 590 239.50 532.50Q205 475 205 347Q205 219 240 161Q275 103 345 103Q417 103 451.50 160.50Q486 218 486 347Q486 476 451 533Q416 590 345 590M260 956L481 831L441 751L201 838L260 956Z"  horiz-adv-x="691" vert-adv-y="1000"  />

      
      <glyph glyph-name="uni1ECE" unicode="&#x1ECE;" d="M345 710Q493 710 575.50 615Q658 520 658 347Q658 234 620.50 152Q583 70 512.50 26.50Q442-17 345-17Q248-17 178 26Q108 69 70.50 150.50Q33 232 33 347Q33 459 70.50 541Q108 623 178 666.50Q248 710 345 710M345 590Q274 590 239.50 532.50Q205 475 205 347Q205 219 240 161Q275 103 345 103Q417 103 451.50 160.50Q486 218 486 347Q486 476 451 533Q416 590 345 590M297 853Q335 855 351.50 863.50Q368 872 368 891Q368 906 357.50 914Q347 922 328 922Q301 922 268 909L242 975Q287 1001 351 1001Q410 1001 442.50 973Q475 945 475 899Q475 822 391 806L391 764L297 764L297 853Z"  horiz-adv-x="691" vert-adv-y="1000"  />

      
      <glyph glyph-name="uni01A0" unicode="&#x01A0;" d="M713 685Q713 634 686.50 603.50Q660 573 611 563Q658 477 658 347Q658 234 620.50 152Q583 70 512.50 26.50Q442-17 345-17Q248-17 178 26Q108 69 70.50 150.50Q33 232 33 347Q33 459 70.50 541Q108 623 178 666.50Q248 710 345 710Q476 710 557 634Q583 637 594 650.50Q605 664 605 690Q605 710 602 724.50Q599 739 592 758L694 773Q713 737 713 685M345 103Q417 103 451.50 160.50Q486 218 486 347Q486 476 451 533Q416 590 345 590Q274 590 239.50 532.50Q205 475 205 347Q205 219 240 161Q275 103 345 103Z"  horiz-adv-x="715" vert-adv-y="1000"  />

      
      <glyph glyph-name="uni1EDA" unicode="&#x1EDA;" d="M485 838L245 751L205 831L426 956L485 838M713 685Q713 634 686.50 603.50Q660 573 611 563Q658 477 658 347Q658 234 620.50 152Q583 70 512.50 26.50Q442-17 345-17Q248-17 178 26Q108 69 70.50 150.50Q33 232 33 347Q33 459 70.50 541Q108 623 178 666.50Q248 710 345 710Q476 710 557 634Q583 637 594 650.50Q605 664 605 690Q605 710 602 724.50Q599 739 592 758L694 773Q713 737 713 685M345 103Q417 103 451.50 160.50Q486 218 486 347Q486 476 451 533Q416 590 345 590Q274 590 239.50 532.50Q205 475 205 347Q205 219 240 161Q275 103 345 103Z"  horiz-adv-x="715" vert-adv-y="1000"  />

      
      <glyph glyph-name="uni1EE2" unicode="&#x1EE2;" d="M713 685Q713 634 686.50 603.50Q660 573 611 563Q658 477 658 347Q658 234 620.50 152Q583 70 512.50 26.50Q442-17 345-17Q248-17 178 26Q108 69 70.50 150.50Q33 232 33 347Q33 459 70.50 541Q108 623 178 666.50Q248 710 345 710Q476 710 557 634Q583 637 594 650.50Q605 664 605 690Q605 710 602 724.50Q599 739 592 758L694 773Q713 737 713 685M345 103Q417 103 451.50 160.50Q486 218 486 347Q486 476 451 533Q416 590 345 590Q274 590 239.50 532.50Q205 475 205 347Q205 219 240 161Q275 103 345 103M345-60Q386-60 412-85.50Q438-111 438-150Q438-189 412-214.50Q386-240 345-240Q304-240 277.50-214.50Q251-189 251-150Q251-111 277.50-85.50Q304-60 345-60Z"  horiz-adv-x="715" vert-adv-y="1000"  />

      
      <glyph glyph-name="uni1EDC" unicode="&#x1EDC;" d="M481 831L441 751L201 838L260 956L481 831M713 685Q713 634 686.50 603.50Q660 573 611 563Q658 477 658 347Q658 234 620.50 152Q583 70 512.50 26.50Q442-17 345-17Q248-17 178 26Q108 69 70.50 150.50Q33 232 33 347Q33 459 70.50 541Q108 623 178 666.50Q248 710 345 710Q476 710 557 634Q583 637 594 650.50Q605 664 605 690Q605 710 602 724.50Q599 739 592 758L694 773Q713 737 713 685M345 103Q417 103 451.50 160.50Q486 218 486 347Q486 476 451 533Q416 590 345 590Q274 590 239.50 532.50Q205 475 205 347Q205 219 240 161Q275 103 345 103Z"  horiz-adv-x="715" vert-adv-y="1000"  />

      
      <glyph glyph-name="uni1EDE" unicode="&#x1EDE;" d="M328 922Q301 922 268 909L242 975Q287 1001 351 1001Q410 1001 442.50 973Q475 945 475 899Q475 822 391 806L391 764L297 764L297 853Q335 855 351.50 863.50Q368 872 368 891Q368 906 357.50 914Q347 922 328 922M713 685Q713 634 686.50 603.50Q660 573 611 563Q658 477 658 347Q658 234 620.50 152Q583 70 512.50 26.50Q442-17 345-17Q248-17 178 26Q108 69 70.50 150.50Q33 232 33 347Q33 459 70.50 541Q108 623 178 666.50Q248 710 345 710Q476 710 557 634Q583 637 594 650.50Q605 664 605 690Q605 710 602 724.50Q599 739 592 758L694 773Q713 737 713 685M345 103Q417 103 451.50 160.50Q486 218 486 347Q486 476 451 533Q416 590 345 590Q274 590 239.50 532.50Q205 475 205 347Q205 219 240 161Q275 103 345 103Z"  horiz-adv-x="715" vert-adv-y="1000"  />

      
      <glyph glyph-name="uni1EE0" unicode="&#x1EE0;" d="M289 806Q272 806 260.50 795.50Q249 785 236 762L157 800Q177 852 210.50 885Q244 918 286 918Q309 918 325.50 910.50Q342 903 362 890Q376 881 384.50 877Q393 873 402 873Q418 873 429.50 883.50Q441 894 454 917L533 878Q512 825 478.50 793Q445 761 403 761Q381 761 365 768Q349 775 330 788Q305 806 289 806M713 685Q713 634 686.50 603.50Q660 573 611 563Q658 477 658 347Q658 234 620.50 152Q583 70 512.50 26.50Q442-17 345-17Q248-17 178 26Q108 69 70.50 150.50Q33 232 33 347Q33 459 70.50 541Q108 623 178 666.50Q248 710 345 710Q476 710 557 634Q583 637 594 650.50Q605 664 605 690Q605 710 602 724.50Q599 739 592 758L694 773Q713 737 713 685M345 103Q417 103 451.50 160.50Q486 218 486 347Q486 476 451 533Q416 590 345 590Q274 590 239.50 532.50Q205 475 205 347Q205 219 240 161Q275 103 345 103Z"  horiz-adv-x="715" vert-adv-y="1000"  />

      
      <glyph glyph-name="uni0150" unicode="&#x0150;" d="M345 710Q493 710 575.50 615Q658 520 658 347Q658 234 620.50 152Q583 70 512.50 26.50Q442-17 345-17Q248-17 178 26Q108 69 70.50 150.50Q33 232 33 347Q33 459 70.50 541Q108 623 178 666.50Q248 710 345 710M345 590Q274 590 239.50 532.50Q205 475 205 347Q205 219 240 161Q275 103 345 103Q417 103 451.50 160.50Q486 218 486 347Q486 476 451 533Q416 590 345 590M300 986L408 936L295 756L212 789L300 986M476 986L582 933L461 751L379 789L476 986Z"  horiz-adv-x="691" vert-adv-y="1000"  />

      
      <glyph glyph-name="uni01A2" unicode="&#x01A2;" d="M692 711Q788 711 842 662Q896 613 896 519L896-210L732-210L732 525Q732 596 672 596Q638 596 599 579Q658 487 658 347Q658 234 620.50 152Q583 70 512.50 26.50Q442-17 345-17Q248-17 178 26Q108 69 70.50 150.50Q33 232 33 347Q33 459 70.50 541Q108 623 178 666.50Q248 710 345 710Q450 710 524 657Q563 684 603.50 697.50Q644 711 692 711M345 103Q417 103 451.50 160.50Q486 218 486 347Q486 476 451 533Q416 590 345 590Q274 590 239.50 532.50Q205 475 205 347Q205 219 240 161Q275 103 345 103Z"  horiz-adv-x="960" vert-adv-y="1000"  />

      
      <glyph glyph-name="uni020E" unicode="&#x020E;" d="M345 710Q493 710 575.50 615Q658 520 658 347Q658 234 620.50 152Q583 70 512.50 26.50Q442-17 345-17Q248-17 178 26Q108 69 70.50 150.50Q33 232 33 347Q33 459 70.50 541Q108 623 178 666.50Q248 710 345 710M345 590Q274 590 239.50 532.50Q205 475 205 347Q205 219 240 161Q275 103 345 103Q417 103 451.50 160.50Q486 218 486 347Q486 476 451 533Q416 590 345 590M344 952Q420 952 465.50 903Q511 854 517 779L430 764Q409 842 344 842Q278 842 259 764L172 779Q178 855 223 903.50Q268 952 344 952Z"  horiz-adv-x="691" vert-adv-y="1000"  />

      
      <glyph glyph-name="uni014C" unicode="&#x014C;" d="M345 710Q493 710 575.50 615Q658 520 658 347Q658 234 620.50 152Q583 70 512.50 26.50Q442-17 345-17Q248-17 178 26Q108 69 70.50 150.50Q33 232 33 347Q33 459 70.50 541Q108 623 178 666.50Q248 710 345 710M345 590Q274 590 239.50 532.50Q205 475 205 347Q205 219 240 161Q275 103 345 103Q417 103 451.50 160.50Q486 218 486 347Q486 476 451 533Q416 590 345 590M497 781L192 781L192 891L497 891L497 781Z"  horiz-adv-x="691" vert-adv-y="1000"  />

      
      <glyph glyph-name="uni1E52" unicode="&#x1E52;" d="M345 710Q493 710 575.50 615Q658 520 658 347Q658 234 620.50 152Q583 70 512.50 26.50Q442-17 345-17Q248-17 178 26Q108 69 70.50 150.50Q33 232 33 347Q33 459 70.50 541Q108 623 178 666.50Q248 710 345 710M345 590Q274 590 239.50 532.50Q205 475 205 347Q205 219 240 161Q275 103 345 103Q417 103 451.50 160.50Q486 218 486 347Q486 476 451 533Q416 590 345 590M497 761L192 761L192 871L497 871L497 761M427 1106L486 988L246 901L206 981L427 1106Z"  horiz-adv-x="691" vert-adv-y="1000"  />

      
      <glyph glyph-name="uni1E50" unicode="&#x1E50;" d="M261 1114L482 989L442 909L202 996L261 1114M497 761L192 761L192 871L497 871L497 761M345 710Q493 710 575.50 615Q658 520 658 347Q658 234 620.50 152Q583 70 512.50 26.50Q442-17 345-17Q248-17 178 26Q108 69 70.50 150.50Q33 232 33 347Q33 459 70.50 541Q108 623 178 666.50Q248 710 345 710M345 590Q274 590 239.50 532.50Q205 475 205 347Q205 219 240 161Q275 103 345 103Q417 103 451.50 160.50Q486 218 486 347Q486 476 451 533Q416 590 345 590Z"  horiz-adv-x="691" vert-adv-y="1000"  />

      
      <glyph glyph-name="uniA7B6" unicode="&#xA7B6;" d="M760 693Q796 611 817.50 520.50Q839 430 839 302Q839-17 613-17Q478-17 442 107Q426 45 383 14Q340-17 278-17Q162-17 105 59.50Q48 136 48 302Q48 430 69 520Q90 610 126 693L278 693Q245 595 228.50 510Q212 425 212 311Q212 197 231 150Q250 103 296 103Q362 103 362 193L362 399L524 399L524 193Q524 144 540.50 123.50Q557 103 592 103Q635 103 655 149Q675 195 675 310Q675 425 656.50 510.50Q638 596 602 693L760 693Z"  horiz-adv-x="887" vert-adv-y="1000"  />

      
      <glyph glyph-name="uni01EA" unicode="&#x01EA;" d="M658 347Q658 213 605 122.50Q552 32 456 0Q338-44 338-102Q338-148 391-148Q415-148 452-140L441-238Q406-246 371-246Q306-246 265-214Q224-182 224-129Q224-59 287-13Q166 6 99.50 99.50Q33 193 33 347Q33 459 70.50 541Q108 623 178 666.50Q248 710 345 710Q493 710 575.50 615Q658 520 658 347M345 103Q417 103 451.50 160.50Q486 218 486 347Q486 476 451 533Q416 590 345 590Q274 590 239.50 532.50Q205 475 205 347Q205 219 240 161Q275 103 345 103Z"  horiz-adv-x="691" vert-adv-y="1000"  />

      
      <glyph glyph-name="uni01EC" unicode="&#x01EC;" d="M497 891L497 781L192 781L192 891L497 891M658 347Q658 213 605 122.50Q552 32 456 0Q338-44 338-102Q338-148 391-148Q415-148 452-140L441-238Q406-246 371-246Q306-246 265-214Q224-182 224-129Q224-59 287-13Q166 6 99.50 99.50Q33 193 33 347Q33 459 70.50 541Q108 623 178 666.50Q248 710 345 710Q493 710 575.50 615Q658 520 658 347M345 103Q417 103 451.50 160.50Q486 218 486 347Q486 476 451 533Q416 590 345 590Q274 590 239.50 532.50Q205 475 205 347Q205 219 240 161Q275 103 345 103Z"  horiz-adv-x="691" vert-adv-y="1000"  />

      
      <glyph glyph-name="uni0186" unicode="&#x0186;" d="M242 710Q332 710 399.50 667.50Q467 625 504.50 543.50Q542 462 542 348Q542 232 503 149.50Q464 67 393 25Q322-17 228-17Q159-17 104 8Q49 33 8 72L81 165Q118 138 149 124Q180 110 220 110Q291 110 330.50 167Q370 224 370 348Q370 589 232 589Q193 589 160.50 576.50Q128 564 95 539L16 634Q63 672 117.50 691Q172 710 242 710Z"  horiz-adv-x="575" vert-adv-y="1000"  />

      
      <glyph glyph-name="unid8" unicode="&#xd8;" d="M514 667Q584 625 621 543Q658 461 658 347Q658 234 620.50 152Q583 70 512.50 26.50Q442-17 345-17Q320-17 296-14L260-134L136-102L176 27Q107 70 70 151.50Q33 233 33 347Q33 459 70.50 541Q108 623 178 666.50Q248 710 345 710Q371 710 395 707L432 828L555 795L514 667M345 590Q274 590 239.50 532.50Q205 475 205 347Q205 203 243 148L375 588Q357 590 345 590M345 103Q417 103 451.50 160.50Q486 218 486 347Q486 493 448 546L315 105Q335 103 345 103Z"  horiz-adv-x="691" vert-adv-y="1000"  />

      
      <glyph glyph-name="uni01FE" unicode="&#x01FE;" d="M514 667Q584 625 621 543Q658 461 658 347Q658 234 620.50 152Q583 70 512.50 26.50Q442-17 345-17Q320-17 296-14L260-134L136-102L176 27Q107 70 70 151.50Q33 233 33 347Q33 459 70.50 541Q108 623 178 666.50Q248 710 345 710Q371 710 395 707L432 828L555 795L514 667M345 590Q274 590 239.50 532.50Q205 475 205 347Q205 203 243 148L375 588Q357 590 345 590M345 103Q417 103 451.50 160.50Q486 218 486 347Q486 493 448 546L315 105Q335 103 345 103M424 990L483 872L243 785L203 865L424 990Z"  horiz-adv-x="691" vert-adv-y="1000"  />

      
      <glyph glyph-name="unid5" unicode="&#xd5;" d="M345 710Q493 710 575.50 615Q658 520 658 347Q658 234 620.50 152Q583 70 512.50 26.50Q442-17 345-17Q248-17 178 26Q108 69 70.50 150.50Q33 232 33 347Q33 459 70.50 541Q108 623 178 666.50Q248 710 345 710M345 590Q274 590 239.50 532.50Q205 475 205 347Q205 219 240 161Q275 103 345 103Q417 103 451.50 160.50Q486 218 486 347Q486 476 451 533Q416 590 345 590M403 761Q381 761 365 768Q349 775 330 788Q305 806 289 806Q272 806 260.50 795.50Q249 785 236 762L157 800Q177 852 210.50 885Q244 918 286 918Q309 918 325.50 910.50Q342 903 362 890Q376 881 384.50 877Q393 873 402 873Q418 873 429.50 883.50Q441 894 454 917L533 878Q512 825 478.50 793Q445 761 403 761Z"  horiz-adv-x="691" vert-adv-y="1000"  />

      
      <glyph glyph-name="uni1E4C" unicode="&#x1E4C;" d="M345 710Q493 710 575.50 615Q658 520 658 347Q658 234 620.50 152Q583 70 512.50 26.50Q442-17 345-17Q248-17 178 26Q108 69 70.50 150.50Q33 232 33 347Q33 459 70.50 541Q108 623 178 666.50Q248 710 345 710M345 590Q274 590 239.50 532.50Q205 475 205 347Q205 219 240 161Q275 103 345 103Q417 103 451.50 160.50Q486 218 486 347Q486 476 451 533Q416 590 345 590M403 756Q381 756 365 763Q349 770 330 783Q305 801 289 801Q272 801 260.50 790.50Q249 780 236 757L157 795Q177 847 210.50 880Q244 913 286 913Q309 913 325.50 905.50Q342 898 362 885Q376 876 384.50 872Q393 868 402 868Q418 868 429.50 878.50Q441 889 454 912L533 873Q512 820 478.50 788Q445 756 403 756M426 1133L485 1015L245 928L205 1008L426 1133Z"  horiz-adv-x="691" vert-adv-y="1000"  />

      
      <glyph glyph-name="uni022C" unicode="&#x022C;" d="M345 710Q493 710 575.50 615Q658 520 658 347Q658 234 620.50 152Q583 70 512.50 26.50Q442-17 345-17Q248-17 178 26Q108 69 70.50 150.50Q33 232 33 347Q33 459 70.50 541Q108 623 178 666.50Q248 710 345 710M345 590Q274 590 239.50 532.50Q205 475 205 347Q205 219 240 161Q275 103 345 103Q417 103 451.50 160.50Q486 218 486 347Q486 476 451 533Q416 590 345 590M403 756Q381 756 365 763Q349 770 330 783Q305 801 289 801Q272 801 260.50 790.50Q249 780 236 757L157 795Q177 847 210.50 880Q244 913 286 913Q309 913 325.50 905.50Q342 898 362 885Q376 876 384.50 872Q393 868 402 868Q418 868 429.50 878.50Q441 889 454 912L533 873Q512 820 478.50 788Q445 756 403 756M497 943L192 943L192 1053L497 1053L497 943Z"  horiz-adv-x="691" vert-adv-y="1000"  />

      
      <glyph glyph-name="uni0152" unicode="&#x0152;" d="M635 295Q622 189 566 118L869 118L869 0L424 0Q381-17 329-17Q239-17 172.50 26Q106 69 69.50 151Q33 233 33 347Q33 459 69.50 541Q106 623 173 666.50Q240 710 329 710Q383 710 428 693L869 693L852 576L570 576Q622 508 634 410L821 410L821 295L635 295M335 103Q400 103 433 161Q466 219 466 347Q466 474 432.50 532Q399 590 335 590Q271 590 238 532Q205 474 205 347Q205 103 335 103Z"  horiz-adv-x="905" vert-adv-y="1000"  />

      
      <glyph glyph-name="uni50" unicode="&#x50;" d="M289 693Q426 693 502 636Q578 579 578 467Q578 350 503.50 290.50Q429 231 304 231L229 231L229 0L65 0L65 693L289 693M290 349Q348 349 378.50 376.50Q409 404 409 467Q409 576 287 576L229 576L229 349L290 349Z"  horiz-adv-x="600" vert-adv-y="1000"  />

      
      <glyph glyph-name="uni1E54" unicode="&#x1E54;" d="M289 693Q426 693 502 636Q578 579 578 467Q578 350 503.50 290.50Q429 231 304 231L229 231L229 0L65 0L65 693L289 693M290 349Q348 349 378.50 376.50Q409 404 409 467Q409 576 287 576L229 576L229 349L290 349M381 956L440 838L200 751L160 831L381 956Z"  horiz-adv-x="600" vert-adv-y="1000"  />

      
      <glyph glyph-name="uni1E56" unicode="&#x1E56;" d="M289 693Q426 693 502 636Q578 579 578 467Q578 350 503.50 290.50Q429 231 304 231L229 231L229 0L65 0L65 693L289 693M290 349Q348 349 378.50 376.50Q409 404 409 467Q409 576 287 576L229 576L229 349L290 349M299 937Q340 937 366.50 911.50Q393 886 393 847Q393 808 366.50 782.50Q340 757 299 757Q258 757 232 782.50Q206 808 206 847Q206 886 232 911.50Q258 937 299 937Z"  horiz-adv-x="600" vert-adv-y="1000"  />

      
      <glyph glyph-name="uni01A4" unicode="&#x01A4;" d="M431 693Q568 693 644 636Q720 579 720 467Q720 350 645.50 290.50Q571 231 446 231L371 231L371 0L207 0L207 576L178 576Q156 576 144 565Q132 554 132 534Q132 508 149 469L48 424Q28 454 16 483Q4 512 4 544Q4 613 53.50 653Q103 693 187 693L431 693M432 349Q490 349 520.50 376.50Q551 404 551 467Q551 576 429 576L371 576L371 349L432 349Z"  horiz-adv-x="741" vert-adv-y="1000"  />

      
      <glyph glyph-name="unide" unicode="&#xde;" d="M289 585Q426 585 502 527Q578 469 578 356Q578 236 503.50 175Q429 114 304 114L229 114L229 0L65 0L65 693L229 693L229 585L289 585M290 233Q348 233 378.50 261.50Q409 290 409 356Q409 413 378.50 440.50Q348 468 287 468L229 468L229 233L290 233Z"  horiz-adv-x="600" vert-adv-y="1000"  />

      
      <glyph glyph-name="uni51" unicode="&#x51;" d="M495 45Q560 45 608 29.50Q656 14 700-18L601-147Q544-83 484-48.50Q424-14 335-14Q242-14 174 28.50Q106 71 69.50 152Q33 233 33 347Q33 459 70.50 541Q108 623 178 666.50Q248 710 345 710Q493 710 575.50 615Q658 520 658 347Q658 135 495 45M205 347Q205 219 240 161Q275 103 345 103Q417 103 451.50 160.50Q486 218 486 347Q486 476 451 533Q416 590 345 590Q274 590 239.50 532.50Q205 475 205 347Z"  horiz-adv-x="690" vert-adv-y="1000"  />

      
      <glyph glyph-name="uni024A" unicode="&#x024A;" d="M786-179Q729-222 645-222Q552-222 498-173.50Q444-125 444-31L444 36Q389-17 306-17Q225-17 163.50 24.50Q102 66 67.50 145.50Q33 225 33 335Q33 451 68.50 536Q104 621 166.50 665.50Q229 710 309 710Q394 710 456 653L462 693L608 693L608-42Q608-72 622-87.50Q636-103 662-103Q682-103 696-98Q710-93 732-82L786-179M339 100Q400 100 444 141L444 549Q400 590 342 590Q274 590 239.50 530Q205 470 205 335Q205 209 239.50 154.50Q274 100 339 100Z"  horiz-adv-x="673" vert-adv-y="1000"  />

      
      <glyph glyph-name="uni52" unicode="&#x52;" d="M293 265L229 265L229 0L65 0L65 693L292 693Q434 693 505.50 641Q577 589 577 482Q577 415 545 370.50Q513 326 444 295L620 0L435 0L293 265M229 378L298 378Q353 378 380.50 403Q408 428 408 482Q408 532 378.50 555Q349 578 288 578L229 578L229 378Z"  horiz-adv-x="617" vert-adv-y="1000"  />

      
      <glyph glyph-name="uni0154" unicode="&#x0154;" d="M293 265L229 265L229 0L65 0L65 693L292 693Q434 693 505.50 641Q577 589 577 482Q577 415 545 370.50Q513 326 444 295L620 0L435 0L293 265M229 378L298 378Q353 378 380.50 403Q408 428 408 482Q408 532 378.50 555Q349 578 288 578L229 578L229 378M382 956L441 838L201 751L161 831L382 956Z"  horiz-adv-x="617" vert-adv-y="1000"  />

      
      <glyph glyph-name="uni0158" unicode="&#x0158;" d="M293 265L229 265L229 0L65 0L65 693L292 693Q434 693 505.50 641Q577 589 577 482Q577 415 545 370.50Q513 326 444 295L620 0L435 0L293 265M229 378L298 378Q353 378 380.50 403Q408 428 408 482Q408 532 378.50 555Q349 578 288 578L229 578L229 378M434 944L490 879L349 750L253 750L111 879L168 944L301 860L434 944Z"  horiz-adv-x="617" vert-adv-y="1000"  />

      
      <glyph glyph-name="uni0156" unicode="&#x0156;" d="M293 265L229 265L229 0L65 0L65 693L292 693Q434 693 505.50 641Q577 589 577 482Q577 415 545 370.50Q513 326 444 295L620 0L435 0L293 265M229 378L298 378Q353 378 380.50 403Q408 428 408 482Q408 532 378.50 555Q349 578 288 578L229 578L229 378M312-68Q346-68 368.50-90Q391-112 391-145Q391-164 385-181.50Q379-199 364-229L318-325L239-325L266-210Q233-184 233-145Q233-113 255.50-90.50Q278-68 312-68Z"  horiz-adv-x="617" vert-adv-y="1000"  />

      
      <glyph glyph-name="uni0210" unicode="&#x0210;" d="M293 265L229 265L229 0L65 0L65 693L292 693Q434 693 505.50 641Q577 589 577 482Q577 415 545 370.50Q513 326 444 295L620 0L435 0L293 265M229 378L298 378Q353 378 380.50 403Q408 428 408 482Q408 532 378.50 555Q349 578 288 578L229 578L229 378M170 986L267 789L186 751L64 933L170 986M346 986L434 789L351 756L238 936L346 986Z"  horiz-adv-x="617" vert-adv-y="1000"  />

      
      <glyph glyph-name="uni1E5A" unicode="&#x1E5A;" d="M293 265L229 265L229 0L65 0L65 693L292 693Q434 693 505.50 641Q577 589 577 482Q577 415 545 370.50Q513 326 444 295L620 0L435 0L293 265M229 378L298 378Q353 378 380.50 403Q408 428 408 482Q408 532 378.50 555Q349 578 288 578L229 578L229 378M311-240Q270-240 243.50-214.50Q217-189 217-150Q217-111 243.50-85.50Q270-60 311-60Q352-60 378-85.50Q404-111 404-150Q404-189 378-214.50Q352-240 311-240Z"  horiz-adv-x="617" vert-adv-y="1000"  />

      
      <glyph glyph-name="uni0212" unicode="&#x0212;" d="M293 265L229 265L229 0L65 0L65 693L292 693Q434 693 505.50 641Q577 589 577 482Q577 415 545 370.50Q513 326 444 295L620 0L435 0L293 265M229 378L298 378Q353 378 380.50 403Q408 428 408 482Q408 532 378.50 555Q349 578 288 578L229 578L229 378M300 952Q376 952 421.50 903Q467 854 473 779L386 764Q365 842 300 842Q234 842 215 764L128 779Q134 855 179 903.50Q224 952 300 952Z"  horiz-adv-x="617" vert-adv-y="1000"  />

      
      <glyph glyph-name="uni024C" unicode="&#x024C;" d="M449 0L307 265L243 265L243 0L79 0L79 265L14 265L14 378L79 378L79 693L306 693Q448 693 519.50 641Q591 589 591 482Q591 415 559 370.50Q527 326 458 295L634 0L449 0M312 378Q367 378 394.50 403Q422 428 422 482Q422 532 392.50 555Q363 578 302 578L243 578L243 378L312 378Z"  horiz-adv-x="631" vert-adv-y="1000"  />

      
      <glyph glyph-name="uni2C64" unicode="&#x2C64;" d="M228 0L228-42Q228-72 242-87.50Q256-103 282-103Q302-103 316-98Q330-93 352-82L406-179Q349-222 265-222Q172-222 118-173.50Q64-125 64-31L64 1L65 1L65 693L292 693Q434 693 505.50 641Q577 589 577 482Q577 415 545 370.50Q513 326 444 295L620 0L435 0L293 265L229 265L229 0L228 0M229 578L229 378L298 378Q353 378 380.50 403Q408 428 408 482Q408 532 378.50 555Q349 578 288 578L229 578Z"  horiz-adv-x="617" vert-adv-y="1000"  />

      
      <glyph glyph-name="uni53" unicode="&#x53;" d="M288 710Q366 710 423.50 688Q481 666 528 621L452 532Q381 590 300 590Q257 590 232 572.50Q207 555 207 522Q207 499 218 484.50Q229 470 257 457Q285 444 341 426Q447 392 497 342.50Q547 293 547 202Q547 137 514 87.50Q481 38 419 10.50Q357-17 272-17Q187-17 121.50 10Q56 37 9 82L92 173Q132 139 174.50 122Q217 105 267 105Q318 105 347.50 127.50Q377 150 377 190Q377 216 366 233.50Q355 251 328 265Q301 279 250 295Q135 330 86.50 381Q38 432 38 510Q38 570 70 615.50Q102 661 159 685.50Q216 710 288 710Z"  horiz-adv-x="572" vert-adv-y="1000"  />

      
      <glyph glyph-name="uni015A" unicode="&#x015A;" d="M288 710Q366 710 423.50 688Q481 666 528 621L452 532Q381 590 300 590Q257 590 232 572.50Q207 555 207 522Q207 499 218 484.50Q229 470 257 457Q285 444 341 426Q447 392 497 342.50Q547 293 547 202Q547 137 514 87.50Q481 38 419 10.50Q357-17 272-17Q187-17 121.50 10Q56 37 9 82L92 173Q132 139 174.50 122Q217 105 267 105Q318 105 347.50 127.50Q377 150 377 190Q377 216 366 233.50Q355 251 328 265Q301 279 250 295Q135 330 86.50 381Q38 432 38 510Q38 570 70 615.50Q102 661 159 685.50Q216 710 288 710M376 956L435 838L195 751L155 831L376 956Z"  horiz-adv-x="572" vert-adv-y="1000"  />

      
      <glyph glyph-name="uniA78B" unicode="&#xA78B;" d="M67 334L48 693L202 693L183 334L67 334Z"  horiz-adv-x="250" vert-adv-y="1000"  />

      
      <glyph glyph-name="uni0160" unicode="&#x0160;" d="M288 710Q366 710 423.50 688Q481 666 528 621L452 532Q381 590 300 590Q257 590 232 572.50Q207 555 207 522Q207 499 218 484.50Q229 470 257 457Q285 444 341 426Q447 392 497 342.50Q547 293 547 202Q547 137 514 87.50Q481 38 419 10.50Q357-17 272-17Q187-17 121.50 10Q56 37 9 82L92 173Q132 139 174.50 122Q217 105 267 105Q318 105 347.50 127.50Q377 150 377 190Q377 216 366 233.50Q355 251 328 265Q301 279 250 295Q135 330 86.50 381Q38 432 38 510Q38 570 70 615.50Q102 661 159 685.50Q216 710 288 710M428 944L484 879L343 750L247 750L105 879L162 944L295 860L428 944Z"  horiz-adv-x="572" vert-adv-y="1000"  />

      
      <glyph glyph-name="uni015E" unicode="&#x015E;" d="M547 202Q547 115 488 56.50Q429-2 324-14L324-48Q377-54 402.50-79.50Q428-105 428-147Q428-198 387.50-230Q347-262 279-262Q245-262 216-253.50Q187-245 167-232L203-159Q237-176 267-176Q314-176 314-146Q314-128 292-120Q270-112 222-112L233-15Q99-4 9 82L92 173Q132 139 174.50 122Q217 105 267 105Q318 105 347.50 127.50Q377 150 377 190Q377 216 366 233.50Q355 251 328 265Q301 279 250 295Q135 330 86.50 381Q38 432 38 510Q38 570 70 615.50Q102 661 159 685.50Q216 710 288 710Q366 710 423.50 688Q481 666 528 621L452 532Q381 590 300 590Q257 590 232 572.50Q207 555 207 522Q207 499 218 484.50Q229 470 257 457Q285 444 341 426Q447 392 497 342.50Q547 293 547 202Z"  horiz-adv-x="572" vert-adv-y="1000"  />

      
      <glyph glyph-name="uni015C" unicode="&#x015C;" d="M288 710Q366 710 423.50 688Q481 666 528 621L452 532Q381 590 300 590Q257 590 232 572.50Q207 555 207 522Q207 499 218 484.50Q229 470 257 457Q285 444 341 426Q447 392 497 342.50Q547 293 547 202Q547 137 514 87.50Q481 38 419 10.50Q357-17 272-17Q187-17 121.50 10Q56 37 9 82L92 173Q132 139 174.50 122Q217 105 267 105Q318 105 347.50 127.50Q377 150 377 190Q377 216 366 233.50Q355 251 328 265Q301 279 250 295Q135 330 86.50 381Q38 432 38 510Q38 570 70 615.50Q102 661 159 685.50Q216 710 288 710M162 755L105 820L247 949L343 949L484 820L428 755L295 839L162 755Z"  horiz-adv-x="572" vert-adv-y="1000"  />

      
      <glyph glyph-name="uni0218" unicode="&#x0218;" d="M288 710Q366 710 423.50 688Q481 666 528 621L452 532Q381 590 300 590Q257 590 232 572.50Q207 555 207 522Q207 499 218 484.50Q229 470 257 457Q285 444 341 426Q447 392 497 342.50Q547 293 547 202Q547 137 514 87.50Q481 38 419 10.50Q357-17 272-17Q187-17 121.50 10Q56 37 9 82L92 173Q132 139 174.50 122Q217 105 267 105Q318 105 347.50 127.50Q377 150 377 190Q377 216 366 233.50Q355 251 328 265Q301 279 250 295Q135 330 86.50 381Q38 432 38 510Q38 570 70 615.50Q102 661 159 685.50Q216 710 288 710M284-68Q318-68 340.50-90Q363-112 363-145Q363-164 357-181.50Q351-199 336-229L290-325L211-325L238-210Q205-184 205-145Q205-113 227.50-90.50Q250-68 284-68Z"  horiz-adv-x="572" vert-adv-y="1000"  />

      
      </font>
</defs>
</svg>
