<?xml version="1.0" standalone="no"?>
  <!DOCTYPE svg PUBLIC "-//W3C//DTD SVG 1.1//EN" "http://www.w3.org/Graphics/SVG/1.1/DTD/svg11.dtd" >
  <svg>
  <metadata>
  Created by font-carrier
  </metadata>
  <defs>
  <font id="Lato-Bold" horiz-adv-x="2347" vert-adv-y="2347" >
    <font-face
      
      font-family="Lato"
      
      font-weight="400"
      
      font-stretch="normal"
      
      units-per-em="2000"
      
      ascent="1974"
      
      descent="-426"
      
    />
      <missing-glyph />

      

      
      <glyph glyph-name="uni21" unicode="&#x21;" d="M480 1446L480 874Q480 783 471 695.50Q462 608 447 510L280 510Q265 608 256 695.50Q247 783 247 874L247 1446L480 1446M209 136Q209 167 220.50 195Q232 223 252.50 243Q273 263 301 275Q329 287 361 287Q392 287 420 275Q448 263 468 243Q488 223 500 195Q512 167 512 136Q512 104 500 76.50Q488 49 468 29Q448 9 420-2.50Q392-14 361-14Q329-14 301-2.50Q273 9 252.50 29Q232 49 220.50 76.50Q209 104 209 136Z"  horiz-adv-x="721" vert-adv-y="2000"  />

      
      <glyph glyph-name="uni22" unicode="&#x22;" d="M346 1446L346 1158L323 1002Q316 958 297.50 934.50Q279 911 237 911Q201 911 180 934.50Q159 958 153 1002L131 1158L131 1446L346 1446M714 1446L714 1158L691 1002Q684 958 665.50 934.50Q647 911 605 911Q569 911 548 934.50Q527 958 521 1002L499 1158L499 1446L714 1446Z"  horiz-adv-x="844" vert-adv-y="2000"  />

      
      <glyph glyph-name="uni23" unicode="&#x23;" d="M831 408L754 0L641 0Q611 0 589 24Q567 48 567 83Q567 88 567.50 92.50Q568 97 569 102L628 408L423 408L365 90Q356 42 324 21Q292 0 253 0L144 0L220 408L105 408Q73 408 56 423.50Q39 439 39 475Q39 489 42 507L55 586L245 586L297 862L83 862L102 965Q109 1003 133 1021.50Q157 1040 211 1040L322 1040L384 1362Q392 1402 421 1424Q450 1446 489 1446L601 1446L525 1040L729 1040L806 1446L916 1446Q951 1446 973 1426Q995 1406 995 1375Q995 1365 994 1360L932 1040L1135 1040L1116 937Q1109 899 1084.50 880.50Q1060 862 1007 862L907 862L856 586L998 586Q1030 586 1046.50 570.50Q1063 555 1063 518Q1063 504 1060 486L1048 408L831 408M448 586L653 586L704 862L500 862L448 586Z"  horiz-adv-x="1160" vert-adv-y="2000"  />

      
      <glyph glyph-name="uni24" unicode="&#x24;" d="M463-9Q346 7 243.50 55Q141 103 69 174L145 287Q155 302 171.50 311.50Q188 321 206 321Q228 321 253 305.50Q278 290 310 269Q342 248 383 227Q424 206 480 196L518 644Q447 664 377.50 691Q308 718 252.50 762.50Q197 807 163 875Q129 943 129 1045Q129 1121 159.50 1193.50Q190 1266 248 1323Q306 1380 391 1417Q476 1454 586 1459L597 1585Q599 1609 617 1628Q635 1647 664 1647L755 1647L738 1450Q844 1433 921 1390Q998 1347 1055 1293L995 1202Q981 1182 967 1172Q953 1162 933 1162Q918 1162 897.50 1171.50Q877 1181 850.50 1194.50Q824 1208 792 1222Q760 1236 721 1245L686 831Q758 809 828.50 782.50Q899 756 955.50 714Q1012 672 1047 609.50Q1082 547 1082 453Q1082 360 1051 278.50Q1020 197 960.50 134.50Q901 72 814 33Q727-6 615-14L603-161Q601-184 583-203.50Q565-223 536-223L445-223L463-9M848 415Q848 453 834.50 481.50Q821 510 796.50 532Q772 554 739 570Q706 586 667 599L633 193Q739 207 793.50 264.50Q848 322 848 415M362 1069Q362 1031 375 1002Q388 973 411.50 950.50Q435 928 467 910.50Q499 893 537 879L568 1249Q513 1242 474 1225.50Q435 1209 410 1185Q385 1161 373.50 1131.50Q362 1102 362 1069Z"  horiz-adv-x="1160" vert-adv-y="2000"  />

      
      <glyph glyph-name="uni25" unicode="&#x25;" d="M729 1096Q729 1014 701.50 948Q674 882 628 835.50Q582 789 521 764Q460 739 394 739Q322 739 261 764Q200 789 155.50 835.50Q111 882 86 948Q61 1014 61 1096Q61 1180 86 1248Q111 1316 155.50 1363Q200 1410 261 1435.50Q322 1461 394 1461Q466 1461 527.50 1435.50Q589 1410 634 1363Q679 1316 704 1248Q729 1180 729 1096M538 1096Q538 1154 527 1193Q516 1232 496.50 1256Q477 1280 450.50 1290.50Q424 1301 394 1301Q364 1301 338 1290.50Q312 1280 293 1256Q274 1232 263.50 1193Q253 1154 253 1096Q253 1040 263.50 1002.50Q274 965 293 942Q312 919 338 909Q364 899 394 899Q424 899 450.50 909Q477 919 496.50 942Q516 965 527 1002.50Q538 1040 538 1096M1210 1407Q1222 1422 1240 1434Q1258 1446 1290 1446L1469 1446L395 37Q383 21 364.50 10.50Q346 0 320 0L136 0L1210 1407M1545 340Q1545 258 1517.50 192Q1490 126 1444 79.50Q1398 33 1337 7.50Q1276-18 1210-18Q1138-18 1077 7.50Q1016 33 971.50 79.50Q927 126 902 192Q877 258 877 340Q877 424 902 492Q927 560 971.50 607Q1016 654 1077 679.50Q1138 705 1210 705Q1282 705 1343.50 679.50Q1405 654 1450 607Q1495 560 1520 492Q1545 424 1545 340M1355 340Q1355 398 1343.50 437Q1332 476 1312.50 500Q1293 524 1266.50 534.50Q1240 545 1210 545Q1180 545 1154 534.50Q1128 524 1109.50 500Q1091 476 1080 437Q1069 398 1069 340Q1069 284 1080 246Q1091 208 1109.50 185Q1128 162 1154 152Q1180 142 1210 142Q1240 142 1266.50 152Q1293 162 1312.50 185Q1332 208 1343.50 246Q1355 284 1355 340Z"  horiz-adv-x="1606" vert-adv-y="2000"  />

      
      <glyph glyph-name="uni26" unicode="&#x26;" d="M663 1462Q751 1462 820.50 1435Q890 1408 939.50 1363Q989 1318 1017.50 1260Q1046 1202 1051 1140L894 1107Q891 1106 887.50 1106Q884 1106 881 1106Q864 1106 850.50 1115.50Q837 1125 829 1145Q820 1171 806 1194.50Q792 1218 772 1235.50Q752 1253 725 1263.50Q698 1274 663 1274Q621 1274 588 1259.50Q555 1245 532 1220.50Q509 1196 497 1163.50Q485 1131 485 1095Q485 1065 491.50 1037Q498 1009 512 981Q526 953 548.50 923.50Q571 894 604 860L988 461Q1021 524 1041 594Q1061 664 1067 736Q1069 759 1082 773Q1095 787 1118 787L1273 787Q1272 655 1235 535Q1198 415 1129 314L1432 0L1190 0Q1171 0 1156.50 2Q1142 4 1129 9.50Q1116 15 1104 24Q1092 33 1079 47L979 150Q883 72 765.50 28Q648-16 511-16Q427-16 347 12.50Q267 41 204 95Q141 149 102.50 225.50Q64 302 64 398Q64 465 86 525.50Q108 586 147 638Q186 690 239.50 732Q293 774 357 804Q304 879 279.50 950.50Q255 1022 255 1093Q255 1168 282.50 1235.50Q310 1303 362.50 1353Q415 1403 491 1432.50Q567 1462 663 1462M315 418Q315 363 334 319Q353 275 386 244.50Q419 214 462.50 197.50Q506 181 555 181Q643 181 715.50 208.50Q788 236 848 285L468 675Q388 623 351.50 558Q315 493 315 418Z"  horiz-adv-x="1428" vert-adv-y="2000"  />

      
      <glyph glyph-name="uni27" unicode="&#x27;" d="M346 1446L346 1158L323 1002Q316 958 297.50 934.50Q279 911 237 911Q201 911 180 934.50Q159 958 153 1002L131 1158L131 1446L346 1446Z"  horiz-adv-x="476" vert-adv-y="2000"  />

      
      <glyph glyph-name="uni28" unicode="&#x28;" d="M320 627Q320 421 370 222Q420 23 513-152Q520-165 522.50-176Q525-187 525-196Q525-216 515-228.50Q505-241 491-249L381-316Q307-202 255-87Q203 28 170 145Q137 262 121.50 382Q106 502 106 627Q106 752 121.50 872.50Q137 993 170 1110Q203 1227 255 1341.50Q307 1456 381 1570L491 1504Q505 1496 515 1483.50Q525 1471 525 1452Q525 1433 512 1407Q420 1232 370 1032.50Q320 833 320 627Z"  horiz-adv-x="600" vert-adv-y="2000"  />

      
      <glyph glyph-name="uni29" unicode="&#x29;" d="M280 627Q280 833 230 1032.50Q180 1232 88 1407Q75 1433 75 1452Q75 1471 85 1483.50Q95 1496 109 1504L219 1570Q293 1456 345 1341.50Q397 1227 430 1110Q463 993 478.50 872.50Q494 752 494 627Q494 502 478.50 382Q463 262 430 145Q397 28 345-87Q293-202 219-316L109-249Q95-241 85-228.50Q75-216 75-196Q75-187 77.50-176Q80-165 87-152Q180 23 230 222Q280 421 280 627Z"  horiz-adv-x="600" vert-adv-y="2000"  />

      
      <glyph glyph-name="uni2a" unicode="&#x2a;" d="M340 837L340 1020Q340 1040 342.50 1059Q345 1078 351 1095Q340 1081 325 1070Q310 1059 293 1048L135 956L76 1056L235 1148Q253 1159 270.50 1166Q288 1173 307 1176Q288 1178 270.50 1186Q253 1194 235 1205L76 1298L134 1398L293 1304Q310 1293 325.50 1281.50Q341 1270 352 1256Q345 1273 342.50 1292Q340 1311 340 1331L340 1516L458 1516L458 1333Q458 1312 455.50 1292.50Q453 1273 446 1256Q457 1270 472 1281.50Q487 1293 505 1304L663 1396L722 1296L563 1205Q545 1194 527.50 1186.50Q510 1179 491 1176Q525 1170 563 1148L722 1055L664 955L505 1048Q487 1059 472 1070Q457 1081 445 1095Q458 1063 458 1021L458 837L340 837Z"  horiz-adv-x="800" vert-adv-y="2000"  />

      
      <glyph glyph-name="uni2b" unicode="&#x2b;" d="M678 1173L678 763L1067 763L1067 580L678 580L678 168L478 168L478 580L91 580L91 763L478 763L478 1173L678 1173Z"  horiz-adv-x="1160" vert-adv-y="2000"  />

      
      <glyph glyph-name="uni2c" unicode="&#x2c;" d="M80 152Q80 180 90.50 204.50Q101 229 120 247.50Q139 266 166 276.50Q193 287 225 287Q263 287 291 273.50Q319 260 338 236.50Q357 213 366 182.50Q375 152 375 118Q375 70 360.50 17Q346-36 318-89Q290-142 249-192Q208-242 155-284L112-245Q94-230 94-208Q94-200 99.50-190Q105-180 113-172Q124-160 140-142.50Q156-125 172-102.50Q188-80 201.50-53.50Q215-27 221 3Q190 3 164 14.50Q138 26 119.50 46Q101 66 90.50 93Q80 120 80 152Z"  horiz-adv-x="450" vert-adv-y="2000"  />

      
      <glyph glyph-name="uni2d" unicode="&#x2d;" d="M100 707L618 707L618 501L100 501L100 707Z"  horiz-adv-x="718" vert-adv-y="2000"  />

      
      <glyph glyph-name="uni2e" unicode="&#x2e;" d="M73 136Q73 167 84.50 195Q96 223 116.50 243Q137 263 165 275Q193 287 225 287Q256 287 284 275Q312 263 332 243Q352 223 364 195Q376 167 376 136Q376 104 364 76.50Q352 49 332 29Q312 9 284-2.50Q256-14 225-14Q193-14 165-2.50Q137 9 116.50 29Q96 49 84.50 76.50Q73 104 73 136Z"  horiz-adv-x="450" vert-adv-y="2000"  />

      
      <glyph glyph-name="uni2f" unicode="&#x2f;" d="M218-3Q209-26 195-43Q181-60 163-71.50Q145-83 125-89Q105-95 86-95L-18-95L566 1399Q583 1441 615 1463.50Q647 1486 692 1486L797 1486L218-3Z"  horiz-adv-x="774" vert-adv-y="2000"  />

      
      <glyph glyph-name="uni30" unicode="&#x30;" d="M1110 723Q1110 534 1069.50 394.50Q1029 255 957.50 164Q886 73 788.50 28.50Q691-16 578-16Q465-16 368.50 28.50Q272 73 201 164Q130 255 90 394.50Q50 534 50 723Q50 913 90 1052Q130 1191 201 1282Q272 1373 368.50 1417.50Q465 1462 578 1462Q691 1462 788.50 1417.50Q886 1373 957.50 1282Q1029 1191 1069.50 1052Q1110 913 1110 723M855 723Q855 880 832 983Q809 1086 770.50 1147Q732 1208 682 1232.50Q632 1257 578 1257Q525 1257 475.50 1232.50Q426 1208 388 1147Q350 1086 327.50 983Q305 880 305 723Q305 566 327.50 463Q350 360 388 299Q426 238 475.50 213.50Q525 189 578 189Q632 189 682 213.50Q732 238 770.50 299Q809 360 832 463Q855 566 855 723Z"  horiz-adv-x="1160" vert-adv-y="2000"  />

      
      <glyph glyph-name="uni31" unicode="&#x31;" d="M269 185L562 185L562 1028Q562 1077 565 1131L357 957Q344 946 330.50 942Q317 938 304 938Q284 938 267.50 946.50Q251 955 243 966L165 1073L606 1448L809 1448L809 185L1069 185L1069 0L269 0L269 185Z"  horiz-adv-x="1160" vert-adv-y="2000"  />

      
      <glyph glyph-name="uni32" unicode="&#x32;" d="M602 1462Q702 1462 785 1432.50Q868 1403 927 1349Q986 1295 1019 1219Q1052 1143 1052 1050Q1052 970 1028.50 902Q1005 834 965.50 772Q926 710 873 652Q820 594 762 534L436 201Q484 215 530 222.50Q576 230 618 230L989 230Q1029 230 1052.50 207.50Q1076 185 1076 148L1076 0L84 0L84 82Q84 107 94.50 134Q105 161 128 184L567 624Q622 680 665.50 731Q709 782 738.50 832Q768 882 783.50 933.50Q799 985 799 1042Q799 1094 784 1133.50Q769 1173 741 1200Q713 1227 674.50 1240.50Q636 1254 588 1254Q499 1254 441.50 1209Q384 1164 361 1088Q350 1050 328 1033.50Q306 1017 272 1017Q257 1017 239 1020L109 1043Q124 1147 167 1225.50Q210 1304 274.50 1356.50Q339 1409 422.50 1435.50Q506 1462 602 1462Z"  horiz-adv-x="1160" vert-adv-y="2000"  />

      
      <glyph glyph-name="uni33" unicode="&#x33;" d="M625 1462Q725 1462 805.50 1433.50Q886 1405 943 1354.50Q1000 1304 1030.50 1236Q1061 1168 1061 1089Q1061 1020 1045.50 967.50Q1030 915 1000.50 876Q971 837 928.50 810Q886 783 832 765Q962 724 1026 640Q1090 556 1090 429Q1090 321 1050 238Q1010 155 942 98.50Q874 42 784.50 13Q695-16 595-16Q486-16 405 9Q324 34 264 83Q204 132 162 203Q120 274 90 367L199 412Q227 424 256 424Q282 424 302.50 413Q323 402 334 381Q352 346 373.50 312Q395 278 425 251.50Q455 225 495.50 208.50Q536 192 592 192Q655 192 702 212.50Q749 233 780.50 266Q812 299 827.50 339.50Q843 380 843 421Q843 473 832 515.50Q821 558 786 588Q751 618 685.50 635Q620 652 510 652L510 828Q601 829 661 845Q721 861 756.50 889.50Q792 918 806 958Q820 998 820 1046Q820 1149 764 1201.50Q708 1254 611 1254Q523 1254 465 1207.50Q407 1161 384 1088Q372 1050 351 1033.50Q330 1017 296 1017Q280 1017 262 1020L132 1043Q147 1147 190 1225.50Q233 1304 297.50 1356.50Q362 1409 445.50 1435.50Q529 1462 625 1462Z"  horiz-adv-x="1160" vert-adv-y="2000"  />

      
      <glyph glyph-name="uni34" unicode="&#x34;" d="M942 545L1124 545L1124 402Q1124 382 1111 367.50Q1098 353 1073 353L942 353L942 0L726 0L726 353L116 353Q91 353 72 368.50Q53 384 48 407L23 532L708 1447L942 1447L942 545M726 1018Q726 1050 728 1087Q730 1124 735 1164L286 545L726 545L726 1018Z"  horiz-adv-x="1160" vert-adv-y="2000"  />

      
      <glyph glyph-name="uni35" unicode="&#x35;" d="M989 1341Q989 1288 955.50 1255Q922 1222 844 1222L446 1222L394 920Q492 940 573 940Q687 940 773.50 906Q860 872 919 812Q978 752 1008 671.50Q1038 591 1038 498Q1038 383 997.50 288Q957 193 885 125.50Q813 58 714.50 21Q616-16 500-16Q432-16 371-2Q310 12 256.50 35.50Q203 59 157.50 89.50Q112 120 76 154L152 259Q176 293 216 293Q241 293 266.50 277Q292 261 326 242Q360 223 405 207Q450 191 514 191Q582 191 634 213Q686 235 720.50 274.50Q755 314 772.50 368.50Q790 423 790 487Q790 605 721.50 671.50Q653 738 520 738Q415 738 309 700L155 744L275 1446L989 1446L989 1341Z"  horiz-adv-x="1160" vert-adv-y="2000"  />

      
      <glyph glyph-name="uni36" unicode="&#x36;" d="M670 903Q752 903 829.50 876Q907 849 966 794.50Q1025 740 1061 659Q1097 578 1097 470Q1097 369 1060 280.50Q1023 192 956 126Q889 60 794.50 22Q700-16 586-16Q470-16 378 21Q286 58 221 124.50Q156 191 121.50 284.50Q87 378 87 492Q87 594 128.50 701.50Q170 809 257 925L602 1388Q620 1412 654.50 1429Q689 1446 734 1446L954 1446L525 921Q511 904 498.50 889Q486 874 474 858Q516 879 564.50 891Q613 903 670 903M324 454Q324 394 340.50 344.50Q357 295 389.50 260Q422 225 470 205.50Q518 186 581 186Q640 186 689.50 206Q739 226 774.50 262Q810 298 830 346.50Q850 395 850 452Q850 514 831 563.50Q812 613 777 647.50Q742 682 693 700Q644 718 585 718Q526 718 478 698Q430 678 395.50 642.50Q361 607 342.50 558.50Q324 510 324 454Z"  horiz-adv-x="1160" vert-adv-y="2000"  />

      
      <glyph glyph-name="uni37" unicode="&#x37;" d="M1096 1446L1096 1339Q1096 1291 1085.50 1261.50Q1075 1232 1065 1212L518 84Q501 49 470 24.50Q439 0 386 0L207 0L767 1105Q802 1173 845 1222L153 1222Q130 1222 113 1239Q96 1256 96 1279L96 1446L1096 1446Z"  horiz-adv-x="1160" vert-adv-y="2000"  />

      
      <glyph glyph-name="uni38" unicode="&#x38;" d="M580-16Q468-16 375.50 14Q283 44 217 99Q151 154 114.50 232Q78 310 78 406Q78 534 141 622.50Q204 711 337 754Q231 798 178.50 879Q126 960 126 1074Q126 1156 159.50 1227Q193 1298 253 1350.50Q313 1403 396.50 1432.50Q480 1462 580 1462Q680 1462 763.50 1432.50Q847 1403 907 1350.50Q967 1298 1000.50 1227Q1034 1156 1034 1074Q1034 960 981 879Q928 798 823 754Q956 711 1019 622.50Q1082 534 1082 406Q1082 310 1045.50 232Q1009 154 943 99Q877 44 784.50 14Q692-16 580-16M580 177Q641 177 687 194.50Q733 212 764.50 243Q796 274 812 317Q828 360 828 410Q828 529 762 590Q696 651 580 651Q464 651 398 590Q332 529 332 410Q332 360 348 317Q364 274 395.50 243Q427 212 473 194.50Q519 177 580 177M580 845Q640 845 681 864Q722 883 747 914.50Q772 946 782.50 986.50Q793 1027 793 1070Q793 1111 780 1148Q767 1185 741 1213.50Q715 1242 675 1259Q635 1276 580 1276Q525 1276 485 1259Q445 1242 418.50 1213.50Q392 1185 379.50 1148Q367 1111 367 1070Q367 1027 377.50 986.50Q388 946 413 914.50Q438 883 479 864Q520 845 580 845Z"  horiz-adv-x="1160" vert-adv-y="2000"  />

      
      <glyph glyph-name="uni39" unicode="&#x39;" d="M530 577Q455 577 383 603Q311 629 254.50 681.50Q198 734 164 811.50Q130 889 130 993Q130 1090 166 1175Q202 1260 267 1324Q332 1388 423 1425Q514 1462 624 1462Q735 1462 823.50 1427Q912 1392 974.50 1329Q1037 1266 1070.50 1178Q1104 1090 1104 985Q1104 918 1092.50 858Q1081 798 1059.50 742.50Q1038 687 1008 634.50Q978 582 941 529L610 57Q593 33 559.50 16.50Q526 0 483 0L256 0L705 561Q722 582 737 602Q752 622 766 642Q716 610 656 593.50Q596 577 530 577M867 1010Q867 1069 849 1115.50Q831 1162 798 1194Q765 1226 719.50 1243Q674 1260 620 1260Q564 1260 519 1241.50Q474 1223 442.50 1190Q411 1157 394 1111.50Q377 1066 377 1012Q377 891 439.50 827.50Q502 764 617 764Q677 764 723.50 783Q770 802 802 835Q834 868 850.50 913Q867 958 867 1010Z"  horiz-adv-x="1160" vert-adv-y="2000"  />

      
      <glyph glyph-name="uni3a" unicode="&#x3a;" d="M113 136Q113 167 124.50 195Q136 223 156.50 243Q177 263 205 275Q233 287 265 287Q296 287 324 275Q352 263 372 243Q392 223 404 195Q416 167 416 136Q416 104 404 76.50Q392 49 372 29Q352 9 324-2.50Q296-14 265-14Q233-14 205-2.50Q177 9 156.50 29Q136 49 124.50 76.50Q113 104 113 136M113 849Q113 880 124.50 908Q136 936 156.50 956Q177 976 205 988Q233 1000 265 1000Q296 1000 324 988Q352 976 372 956Q392 936 404 908Q416 880 416 849Q416 817 404 789.50Q392 762 372 742Q352 722 324 710.50Q296 699 265 699Q233 699 205 710.50Q177 722 156.50 742Q136 762 124.50 789.50Q113 817 113 849Z"  horiz-adv-x="530" vert-adv-y="2000"  />

      
      <glyph glyph-name="uni3b" unicode="&#x3b;" d="M120 152Q120 180 130.50 204.50Q141 229 160 247.50Q179 266 206 276.50Q233 287 265 287Q303 287 331 273.50Q359 260 378 236.50Q397 213 406 182.50Q415 152 415 118Q415 70 400.50 17Q386-36 358-89Q330-142 289-192Q248-242 195-284L152-245Q134-230 134-208Q134-200 139.50-190Q145-180 153-172Q164-160 180-142.50Q196-125 212-102.50Q228-80 241.50-53.50Q255-27 261 3Q230 3 204 14.50Q178 26 159.50 46Q141 66 130.50 93Q120 120 120 152M113 849Q113 880 124.50 908Q136 936 156.50 956Q177 976 205 988Q233 1000 265 1000Q296 1000 324 988Q352 976 372 956Q392 936 404 908Q416 880 416 849Q416 817 404 789.50Q392 762 372 742Q352 722 324 710.50Q296 699 265 699Q233 699 205 710.50Q177 722 156.50 742Q136 762 124.50 789.50Q113 817 113 849Z"  horiz-adv-x="530" vert-adv-y="2000"  />

      
      <glyph glyph-name="uni3c" unicode="&#x3c;" d="M139 724L931 1137L931 961Q931 941 921 924.50Q911 908 888 896L525 710Q502 698 476.50 689.50Q451 681 422 674Q451 667 476.50 658.50Q502 650 525 638L888 451Q911 439 921 422.50Q931 406 931 386L931 210L139 624L139 724Z"  horiz-adv-x="1160" vert-adv-y="2000"  />

      
      <glyph glyph-name="uni3d" unicode="&#x3d;" d="M136 588L1022 588L1022 404L136 404L136 588M136 940L1022 940L1022 757L136 757L136 940Z"  horiz-adv-x="1160" vert-adv-y="2000"  />

      
      <glyph glyph-name="uni3e" unicode="&#x3e;" d="M229 210L229 386Q229 406 239 422.50Q249 439 272 451L635 638Q679 660 738 674Q709 681 683.50 689.50Q658 698 635 710L272 896Q249 908 239 924.50Q229 941 229 961L229 1137L1021 724L1021 624L229 210Z"  horiz-adv-x="1160" vert-adv-y="2000"  />

      
      <glyph glyph-name="uni3f" unicode="&#x3f;" d="M37 1315Q71 1345 111.50 1372Q152 1399 199 1419Q246 1439 301 1450.50Q356 1462 420 1462Q507 1462 578.50 1438Q650 1414 701 1369.50Q752 1325 780 1262Q808 1199 808 1121Q808 1045 786 989.50Q764 934 730.50 893Q697 852 658 822Q619 792 584 765.50Q549 739 523.50 713.50Q498 688 493 656L470 510L301 510L284 673Q283 678 283 681.50Q283 685 283 690Q283 734 305 766.50Q327 799 360 827.50Q393 856 431 883Q469 910 502 941.50Q535 973 557 1013Q579 1053 579 1107Q579 1143 565.50 1171.50Q552 1200 528 1220.50Q504 1241 470.50 1252Q437 1263 398 1263Q341 1263 301.50 1250.50Q262 1238 234.50 1222.50Q207 1207 188 1194.50Q169 1182 154 1182Q118 1182 102 1212L37 1315M226 136Q226 167 237.50 195Q249 223 269.50 243Q290 263 318 275Q346 287 378 287Q409 287 437 275Q465 263 485 243Q505 223 517 195Q529 167 529 136Q529 104 517 76.50Q505 49 485 29Q465 9 437-2.50Q409-14 378-14Q346-14 318-2.50Q290 9 269.50 29Q249 49 237.50 76.50Q226 104 226 136Z"  horiz-adv-x="841" vert-adv-y="2000"  />

      
      <glyph glyph-name="uni40" unicode="&#x40;" d="M1166 184Q1098 184 1044.50 216Q991 248 970 319Q911 247 845 216Q779 185 703 185Q640 185 593.50 207Q547 229 515.50 267.50Q484 306 468.50 358.50Q453 411 453 473Q453 530 467.50 588.50Q482 647 511 701.50Q540 756 583.50 803.50Q627 851 686 886.50Q745 922 818 942.50Q891 963 980 963Q1057 963 1112 951Q1167 939 1218 917L1122 546Q1106 482 1106 439Q1106 409 1113.50 389Q1121 369 1133.50 357Q1146 345 1164 340.50Q1182 336 1203 336Q1245 336 1282.50 362.50Q1320 389 1348 437Q1376 485 1392.50 551Q1409 617 1409 695Q1409 825 1368.50 924Q1328 1023 1255.50 1089.50Q1183 1156 1082 1189.50Q981 1223 861 1223Q730 1223 617.50 1173.50Q505 1124 422.50 1038Q340 952 293.50 835Q247 718 247 583Q247 419 298 294.50Q349 170 438 86.50Q527 3 647.50-39Q768-81 908-81Q985-81 1052-72.50Q1119-64 1175-49.50Q1231-35 1277-16.50Q1323 2 1359 23Q1379 34 1393 34Q1422 34 1434 2L1468-87Q1364-155 1225-198Q1086-241 908-241Q727-241 573-184Q419-127 306.50-20.50Q194 86 130.50 239Q67 392 67 583Q67 690 94.50 791Q122 892 173 980.50Q224 1069 296 1143Q368 1217 456 1270Q544 1323 646.50 1352.50Q749 1382 861 1382Q1003 1382 1133.50 1334.50Q1264 1287 1364.50 1198.50Q1465 1110 1525 982.50Q1585 855 1585 695Q1585 588 1553.50 494.50Q1522 401 1465.50 332Q1409 263 1332.50 223.50Q1256 184 1166 184M752 344Q778 344 804.50 352Q831 360 855 380.50Q879 401 899 435Q919 469 932 520L1005 802Q973 808 939 808Q877 808 823 781Q769 754 729.50 708Q690 662 667 602.50Q644 543 644 479Q644 415 671.50 379.50Q699 344 752 344Z"  horiz-adv-x="1645" vert-adv-y="2000"  />

      
      <glyph glyph-name="uni41" unicode="&#x41;" d="M1417 0L1209 0Q1174 0 1151.50 17.50Q1129 35 1119 61L1011 356L412 356L304 61Q296 38 272.50 19Q249 0 215 0L6 0L574 1446L849 1446L1417 0M481 546L942 546L766 1027Q754 1059 739.50 1102.50Q725 1146 711 1197Q697 1146 683.50 1102Q670 1058 657 1025L481 546Z"  horiz-adv-x="1420" vert-adv-y="2000"  />

      
      <glyph glyph-name="uni42" unicode="&#x42;" d="M146 0L146 1446L645 1446Q787 1446 887.50 1419Q988 1392 1052.50 1342Q1117 1292 1147 1221Q1177 1150 1177 1061Q1177 1010 1162 963.50Q1147 917 1115.50 876.50Q1084 836 1035.50 803Q987 770 920 747Q1218 680 1218 425Q1218 333 1183 255Q1148 177 1081 120.50Q1014 64 916 32Q818 0 692 0L146 0M415 634L415 210L688 210Q763 210 813.50 228Q864 246 894.50 276Q925 306 938.50 346Q952 386 952 431Q952 478 937 515.50Q922 553 890 579.50Q858 606 808 620Q758 634 687 634L415 634M415 820L630 820Q767 820 838 870Q909 920 909 1029Q909 1142 845 1190Q781 1238 645 1238L415 1238L415 820Z"  horiz-adv-x="1303" vert-adv-y="2000"  />

      
      <glyph glyph-name="uni43" unicode="&#x43;" d="M1140 341Q1162 341 1178 324L1284 209Q1196 100 1067.50 42Q939-16 759-16Q598-16 469.50 39Q341 94 250 192Q159 290 110.50 426Q62 562 62 723Q62 886 116 1021.50Q170 1157 268 1255Q366 1353 502.50 1407.50Q639 1462 804 1462Q965 1462 1085.50 1410.50Q1206 1359 1292 1274L1202 1149Q1194 1137 1181.50 1128Q1169 1119 1147 1119Q1124 1119 1100 1137Q1076 1155 1039 1176Q1002 1197 945.50 1215Q889 1233 802 1233Q700 1233 614.50 1197.50Q529 1162 467.50 1096Q406 1030 371.50 935.50Q337 841 337 723Q337 601 371.50 506Q406 411 465 346Q524 281 604 246.50Q684 212 776 212Q831 212 875.50 218Q920 224 957.50 237Q995 250 1028.50 270.50Q1062 291 1095 321Q1105 330 1116 335.50Q1127 341 1140 341Z"  horiz-adv-x="1341" vert-adv-y="2000"  />

      
      <glyph glyph-name="uni44" unicode="&#x44;" d="M1430 723Q1430 564 1377 431Q1324 298 1228 202Q1132 106 997 53Q862 0 698 0L146 0L146 1446L698 1446Q862 1446 997 1392.50Q1132 1339 1228 1243.50Q1324 1148 1377 1015Q1430 882 1430 723M1155 723Q1155 842 1123 936.50Q1091 1031 1032 1096.50Q973 1162 888.50 1197Q804 1232 698 1232L417 1232L417 214L698 214Q804 214 888.50 249Q973 284 1032 349.50Q1091 415 1123 509.50Q1155 604 1155 723Z"  horiz-adv-x="1495" vert-adv-y="2000"  />

      
      <glyph glyph-name="uni45" unicode="&#x45;" d="M1058 1446L1058 1232L417 1232L417 831L922 831L922 624L417 624L417 215L1058 215L1058 0L146 0L146 1446L1058 1446Z"  horiz-adv-x="1145" vert-adv-y="2000"  />

      
      <glyph glyph-name="uni46" unicode="&#x46;" d="M1058 1446L1058 1232L417 1232L417 804L958 804L958 589L417 589L417 0L146 0L146 1446L1058 1446Z"  horiz-adv-x="1123" vert-adv-y="2000"  />

      
      <glyph glyph-name="uni47" unicode="&#x47;" d="M810 198Q901 198 968.50 214.50Q1036 231 1097 260L1097 523L916 523Q890 523 875 537.50Q860 552 860 573L860 725L1341 725L1341 140Q1286 100 1226.50 70.50Q1167 41 1099.50 22Q1032 3 955-6.50Q878-16 789-16Q631-16 498 39Q365 94 268 192Q171 290 116.50 426Q62 562 62 723Q62 886 115 1022Q168 1158 265.50 1256Q363 1354 502 1408Q641 1462 814 1462Q991 1462 1120.50 1409.50Q1250 1357 1340 1273L1262 1151Q1239 1114 1201 1114Q1177 1114 1152 1130Q1120 1149 1086.50 1168Q1053 1187 1012.50 1201Q972 1215 921.50 1224Q871 1233 805 1233Q698 1233 611.50 1197Q525 1161 464 1094Q403 1027 370 933Q337 839 337 723Q337 598 372 500.50Q407 403 470 336Q533 269 620 233.50Q707 198 810 198Z"  horiz-adv-x="1446" vert-adv-y="2000"  />

      
      <glyph glyph-name="uni48" unicode="&#x48;" d="M1366 0L1095 0L1095 632L417 632L417 0L146 0L146 1446L417 1446L417 824L1095 824L1095 1446L1366 1446L1366 0Z"  horiz-adv-x="1512" vert-adv-y="2000"  />

      
      <glyph glyph-name="uni49" unicode="&#x49;" d="M449 0L179 0L179 1446L449 1446L449 0Z"  horiz-adv-x="628" vert-adv-y="2000"  />

      
      <glyph glyph-name="uni4a" unicode="&#x4a;" d="M728 514Q728 392 698 294Q668 196 608.50 127Q549 58 460 21Q371-16 253-16Q199-16 147-9.50Q95-3 38 11L52 171Q54 193 68.50 206.50Q83 220 111 220Q128 220 155.50 213Q183 206 225 206Q282 206 326 222.50Q370 239 399.50 275Q429 311 444 368.50Q459 426 459 508L459 1446L728 1446L728 514Z"  horiz-adv-x="874" vert-adv-y="2000"  />

      
      <glyph glyph-name="uni4b" unicode="&#x4b;" d="M424 840L487 840Q525 840 550 850.50Q575 861 593 884L992 1389Q1017 1421 1044.50 1433.50Q1072 1446 1114 1446L1346 1446L859 845Q836 817 815 798Q794 779 770 767Q803 755 829.50 733Q856 711 881 677L1383 0L1145 0Q1097 0 1073.50 13.50Q1050 27 1034 53L625 587Q605 613 580 624.50Q555 636 509 636L424 636L424 0L155 0L155 1447L424 1447L424 840Z"  horiz-adv-x="1396" vert-adv-y="2000"  />

      
      <glyph glyph-name="uni4c" unicode="&#x4c;" d="M415 222L994 222L994 0L146 0L146 1446L415 1446L415 222Z"  horiz-adv-x="1034" vert-adv-y="2000"  />

      
      <glyph glyph-name="uni4d" unicode="&#x4d;" d="M872 600Q889 568 903.50 533.50Q918 499 932 464Q946 500 961 535Q976 570 993 602L1421 1403Q1429 1418 1437.50 1427Q1446 1436 1456.50 1440Q1467 1444 1480 1445Q1493 1446 1511 1446L1714 1446L1714 0L1477 0L1477 934Q1477 960 1478.50 991Q1480 1022 1483 1054L1046 234Q1031 206 1007 190.50Q983 175 951 175L914 175Q882 175 858 190.50Q834 206 819 234L376 1057Q380 1024 381.50 992.50Q383 961 383 934L383 0L146 0L146 1446L349 1446Q367 1446 380 1445Q393 1444 403.50 1440Q414 1436 423 1427Q432 1418 440 1403L872 600L872 600Z"  horiz-adv-x="1860" vert-adv-y="2000"  />

      
      <glyph glyph-name="uni4e" unicode="&#x4e;" d="M287 1446Q305 1446 317 1444.50Q329 1443 338.50 1438.50Q348 1434 357 1425.50Q366 1417 377 1403L1136 436Q1132 471 1130.50 504.50Q1129 538 1129 567L1129 1446L1366 1446L1366 0L1227 0Q1195 0 1174 10Q1153 20 1133 46L377 1009Q380 977 381.50 945.50Q383 914 383 888L383 0L146 0L146 1446L287 1446L287 1446Z"  horiz-adv-x="1512" vert-adv-y="2000"  />

      
      <glyph glyph-name="uni4f" unicode="&#x4f;" d="M1533 723Q1533 564 1480 428.50Q1427 293 1331 194Q1235 95 1100 39.50Q965-16 801-16Q637-16 501.50 39.50Q366 95 269.50 194Q173 293 120 428.50Q67 564 67 723Q67 882 120 1017.50Q173 1153 269.50 1252Q366 1351 501.50 1406.50Q637 1462 801 1462Q965 1462 1100 1406Q1235 1350 1331 1251.50Q1427 1153 1480 1017.50Q1533 882 1533 723M1257 723Q1257 842 1225.50 936.50Q1194 1031 1135 1097Q1076 1163 991.50 1198Q907 1233 801 1233Q695 1233 610 1198Q525 1163 465.50 1097Q406 1031 374 936.50Q342 842 342 723Q342 604 374 509.50Q406 415 465.50 349.50Q525 284 610 249Q695 214 801 214Q907 214 991.50 249Q1076 284 1135 349.50Q1194 415 1225.50 509.50Q1257 604 1257 723Z"  horiz-adv-x="1599" vert-adv-y="2000"  />

      
      <glyph glyph-name="uni50" unicode="&#x50;" d="M424 509L424 0L155 0L155 1446L626 1446Q771 1446 877 1412Q983 1378 1052 1317Q1121 1256 1154 1171Q1187 1086 1187 985Q1187 880 1152 792.50Q1117 705 1047 642Q977 579 872 544Q767 509 626 509L424 509M424 719L626 719Q700 719 755 737.50Q810 756 846 790.50Q882 825 900 874.50Q918 924 918 985Q918 1043 900 1090Q882 1137 846 1170Q810 1203 755 1220.50Q700 1238 626 1238L424 1238L424 719Z"  horiz-adv-x="1250" vert-adv-y="2000"  />

      
      <glyph glyph-name="uni51" unicode="&#x51;" d="M1533 723Q1533 626 1513 537.50Q1493 449 1455.50 372Q1418 295 1364 230.50Q1310 166 1241 117L1608-283L1386-283Q1338-283 1299.50-270Q1261-257 1229-222L1017 12Q966-2 912.50-9Q859-16 801-16Q637-16 501.50 39.50Q366 95 269.50 194Q173 293 120 428.50Q67 564 67 723Q67 882 120 1017.50Q173 1153 269.50 1252Q366 1351 501.50 1406.50Q637 1462 801 1462Q965 1462 1100 1406Q1235 1350 1331 1251.50Q1427 1153 1480 1017.50Q1533 882 1533 723M1257 723Q1257 842 1225.50 936.50Q1194 1031 1135 1097Q1076 1163 991.50 1198Q907 1233 801 1233Q695 1233 610 1198Q525 1163 465.50 1097Q406 1031 374 936.50Q342 842 342 723Q342 604 374 509.50Q406 415 465.50 349.50Q525 284 610 249Q695 214 801 214Q907 214 991.50 249Q1076 284 1135 349.50Q1194 415 1225.50 509.50Q1257 604 1257 723Z"  horiz-adv-x="1599" vert-adv-y="2000"  />

      
      <glyph glyph-name="uni52" unicode="&#x52;" d="M424 565L424 0L155 0L155 1446L596 1446Q744 1446 849.50 1415.50Q955 1385 1022.50 1330Q1090 1275 1121.50 1198.50Q1153 1122 1153 1030Q1153 957 1131.50 892Q1110 827 1069.50 774Q1029 721 969.50 681Q910 641 834 617Q885 588 922 534L1284 0L1042 0Q1007 0 982.50 14Q958 28 941 54L637 517Q620 543 599.50 554Q579 565 539 565L424 565M424 758L592 758Q668 758 724.50 777Q781 796 817.50 829.50Q854 863 872 909Q890 955 890 1010Q890 1120 817.50 1179Q745 1238 596 1238L424 1238L424 758Z"  horiz-adv-x="1310" vert-adv-y="2000"  />

      
      <glyph glyph-name="uni53" unicode="&#x53;" d="M921 1183Q910 1161 895.50 1152Q881 1143 861 1143Q841 1143 816 1158.50Q791 1174 757 1193Q723 1212 677.50 1227.50Q632 1243 570 1243Q514 1243 472.50 1229.50Q431 1216 402.50 1192Q374 1168 360 1134.50Q346 1101 346 1061Q346 1010 374.50 976Q403 942 450 918Q497 894 557 875Q617 856 679.50 834.50Q742 813 802 784.50Q862 756 909 712.50Q956 669 984.50 606Q1013 543 1013 453Q1013 355 979.50 269.50Q946 184 881.50 120.50Q817 57 724 20.50Q631-16 511-16Q442-16 375-2.50Q308 11 246.50 36Q185 61 131.50 96Q78 131 36 174L114 303Q125 317 140.50 326.50Q156 336 175 336Q200 336 229 315.50Q258 295 297.50 270Q337 245 390.50 224.50Q444 204 519 204Q634 204 697 258.50Q760 313 760 415Q760 472 731.50 508Q703 544 656 568.50Q609 593 549 610Q489 627 427 647Q365 667 305 695Q245 723 198 768Q151 813 122.50 880.50Q94 948 94 1047Q94 1126 125.50 1201Q157 1276 217.50 1334Q278 1392 366 1427Q454 1462 567 1462Q695 1462 803 1422Q911 1382 987 1310L921 1183Z"  horiz-adv-x="1073" vert-adv-y="2000"  />

      
      <glyph glyph-name="uni54" unicode="&#x54;" d="M1165 1446L1165 1225L730 1225L730 0L461 0L461 1225L24 1225L24 1446L1165 1446Z"  horiz-adv-x="1190" vert-adv-y="2000"  />

      
      <glyph glyph-name="uni55" unicode="&#x55;" d="M728 217Q806 217 867.50 243Q929 269 971.50 316Q1014 363 1036.50 430Q1059 497 1059 580L1059 1446L1328 1446L1328 580Q1328 451 1286.50 341.50Q1245 232 1167 152.50Q1089 73 978 28.50Q867-16 728-16Q589-16 478 28.50Q367 73 289.50 152.50Q212 232 170.50 341.50Q129 451 129 580L129 1446L398 1446L398 581Q398 498 420.50 431Q443 364 485 316.50Q527 269 588.50 243Q650 217 728 217Z"  horiz-adv-x="1456" vert-adv-y="2000"  />

      
      <glyph glyph-name="uni56" unicode="&#x56;" d="M4 1446L221 1446Q256 1446 278 1429Q300 1412 311 1385L651 503Q668 460 683.50 408.50Q699 357 713 300Q736 415 770 503L1109 1385Q1118 1408 1141 1427Q1164 1446 1198 1446L1415 1446L831 0L588 0L4 1446Z"  horiz-adv-x="1420" vert-adv-y="2000"  />

      
      <glyph glyph-name="uni57" unicode="&#x57;" d="M12 1446L238 1446Q273 1446 296.50 1429.50Q320 1413 328 1385L574 520Q583 488 590.50 450.50Q598 413 605 371Q613 413 622.50 450.50Q632 488 643 520L927 1385Q935 1408 958.50 1427Q982 1446 1016 1446L1095 1446Q1130 1446 1153 1429.50Q1176 1413 1185 1385L1467 520Q1489 456 1505 378Q1512 417 1519.50 453Q1527 489 1535 520L1781 1385Q1788 1410 1812 1428Q1836 1446 1870 1446L2081 1446L1632 0L1389 0L1073 988Q1067 1007 1060.50 1029Q1054 1051 1048 1076Q1042 1051 1035.50 1029Q1029 1007 1023 988L704 0L461 0L12 1446Z"  horiz-adv-x="2093" vert-adv-y="2000"  />

      
      <glyph glyph-name="uni58" unicode="&#x58;" d="M493 744L32 1446L300 1446Q328 1446 340.50 1438.50Q353 1431 363 1414L692 883Q697 896 703 908.50Q709 921 717 934L1018 1409Q1040 1446 1075 1446L1333 1446L867 755L1346 0L1077 0Q1050 0 1033.50 14Q1017 28 1006 46L671 600Q667 588 662 577.50Q657 567 652 558L331 46Q320 29 304 14.50Q288 0 264 0L12 0L493 744Z"  horiz-adv-x="1358" vert-adv-y="2000"  />

      
      <glyph glyph-name="uni59" unicode="&#x59;" d="M789 562L789 0L520 0L520 562L-7 1446L230 1446Q265 1446 285.50 1429Q306 1412 320 1386L585 903Q608 860 625 821.50Q642 783 656 746Q669 784 685.50 822.50Q702 861 725 903L988 1386Q999 1408 1021 1427Q1043 1446 1077 1446L1315 1446L789 562Z"  horiz-adv-x="1309" vert-adv-y="2000"  />

      
      <glyph glyph-name="uni5a" unicode="&#x5a;" d="M1179 1446L1179 1347Q1179 1301 1153 1263L411 215L1161 215L1161 0L62 0L62 106Q62 126 69 144.50Q76 163 87 179L831 1232L109 1232L109 1446L1179 1446Z"  horiz-adv-x="1234" vert-adv-y="2000"  />

      
      <glyph glyph-name="uni5b" unicode="&#x5b;" d="M115-308L115 1547L525 1547L525 1450Q525 1424 506.50 1405.50Q488 1387 459 1387L321 1387L321-148L459-148Q488-148 506.50-166.50Q525-185 525-211L525-308L115-308Z"  horiz-adv-x="600" vert-adv-y="2000"  />

      
      <glyph glyph-name="uni5c" unicode="&#x5c;" d="M-28 1486L78 1486Q122 1486 154.50 1463.50Q187 1441 204 1399L787-95L683-95Q644-95 606.50-72Q569-49 552-3L-28 1486Z"  horiz-adv-x="781" vert-adv-y="2000"  />

      
      <glyph glyph-name="uni5d" unicode="&#x5d;" d="M75-308L75-211Q75-185 93.50-166.50Q112-148 141-148L279-148L279 1387L141 1387Q112 1387 93.50 1405.50Q75 1424 75 1450L75 1547L485 1547L485-308L75-308Z"  horiz-adv-x="600" vert-adv-y="2000"  />

      
      <glyph glyph-name="uni5e" unicode="&#x5e;" d="M1028 777L847 777Q824 777 809.50 789Q795 801 785 818L626 1107Q611 1135 598.50 1160Q586 1185 578 1211Q570 1185 559 1159.50Q548 1134 533 1107L377 818Q368 801 353 789Q338 777 312 777L122 777L495 1446L655 1446L1028 777Z"  horiz-adv-x="1160" vert-adv-y="2000"  />

      
      <glyph glyph-name="uni5f" unicode="&#x5f;" d="M788-134L788-294L0-294L0-134L788-134Z"  horiz-adv-x="788" vert-adv-y="2000"  />

      
      <glyph glyph-name="uni60" unicode="&#x60;" d="M230 1462Q271 1462 290.50 1448.50Q310 1435 325 1409L468 1166L327 1166Q299 1166 281.50 1173.50Q264 1181 246 1201L-1 1462L230 1462Z"  horiz-adv-x="638" vert-adv-y="2000"  />

      
      <glyph glyph-name="uni61" unicode="&#x61;" d="M936 0L825 0Q790 0 770 10.50Q750 21 740 53L718 126Q679 91 641.50 64.50Q604 38 564 20Q524 2 479-7Q434-16 379-16Q314-16 259 1.50Q204 19 164.50 54Q125 89 103 141Q81 193 81 262Q81 320 111.50 376.50Q142 433 213 478.50Q284 524 402 554Q520 584 695 588L695 648Q695 751 651.50 800.50Q608 850 525 850Q465 850 425 836Q385 822 355.50 804.50Q326 787 301 773Q276 759 246 759Q221 759 203 772Q185 785 174 804L129 883Q306 1045 556 1045Q646 1045 716.50 1015.50Q787 986 836 933.50Q885 881 910.50 808Q936 735 936 648L936 0M456 154Q494 154 526 161Q558 168 586.50 182Q615 196 641.50 216.50Q668 237 695 265L695 438Q587 433 514.50 419.50Q442 406 398 385Q354 364 335.50 336Q317 308 317 275Q317 210 355.50 182Q394 154 456 154Z"  horiz-adv-x="1047" vert-adv-y="2000"  />

      
      <glyph glyph-name="uni62" unicode="&#x62;" d="M135 0L135 1486L382 1486L382 900Q443 965 520 1003.50Q597 1042 700 1042Q784 1042 853.50 1007.50Q923 973 973.50 907Q1024 841 1051.50 744Q1079 647 1079 521Q1079 406 1048 308Q1017 210 959.50 138Q902 66 820.50 25.50Q739-15 638-15Q591-15 552-5.50Q513 4 481 21Q449 38 421.50 62.50Q394 87 369 117L358 48Q352 22 337.50 11Q323 0 298 0L135 0M615 850Q538 850 483.50 817.50Q429 785 382 726L382 266Q424 214 473.50 193.50Q523 173 581 173Q637 173 682 194Q727 215 758.50 258Q790 301 807 366.50Q824 432 824 521Q824 611 809.50 673.50Q795 736 768 775Q741 814 702.50 832Q664 850 615 850Z"  horiz-adv-x="1140" vert-adv-y="2000"  />

      
      <glyph glyph-name="uni63" unicode="&#x63;" d="M853 809Q842 795 831.50 787Q821 779 801 779Q782 779 764 790.50Q746 802 721 816.50Q696 831 661.50 842.50Q627 854 576 854Q511 854 462 830.50Q413 807 380.50 763Q348 719 332 656.50Q316 594 316 515Q316 433 333.50 369Q351 305 384 261.50Q417 218 464 195.50Q511 173 570 173Q629 173 665.50 187.50Q702 202 727 219.50Q752 237 770.50 251.50Q789 266 812 266Q842 266 857 243L928 153Q887 105 839 72.50Q791 40 739.50 20.50Q688 1 633-7Q578-15 524-15Q429-15 345 20.50Q261 56 198.50 124Q136 192 99.50 290.50Q63 389 63 515Q63 628 95.50 724.50Q128 821 191 891.50Q254 962 347 1002Q440 1042 561 1042Q676 1042 762.50 1005Q849 968 918 899L853 809Z"  horiz-adv-x="954" vert-adv-y="2000"  />

      
      <glyph glyph-name="uni64" unicode="&#x64;" d="M854 0Q806 0 791 45L771 144Q739 108 704 79Q669 50 628.50 29Q588 8 541.50-3.50Q495-15 441-15Q357-15 287 20Q217 55 166.50 121.50Q116 188 88.50 286Q61 384 61 510Q61 624 92 722Q123 820 181 892Q239 964 320 1004.50Q401 1045 502 1045Q588 1045 649 1017.50Q710 990 758 944L758 1486L1005 1486L1005 0L854 0M525 181Q602 181 656 213Q710 245 758 304L758 764Q716 815 666.50 836Q617 857 560 857Q504 857 458.50 836Q413 815 381.50 772.50Q350 730 333 664.50Q316 599 316 510Q316 420 330.50 357.50Q345 295 372 255.50Q399 216 438 198.50Q477 181 525 181Z"  horiz-adv-x="1140" vert-adv-y="2000"  />

      
      <glyph glyph-name="uni65" unicode="&#x65;" d="M556 1042Q653 1042 734.50 1011Q816 980 875 920.50Q934 861 967 774.50Q1000 688 1000 577Q1000 549 997.50 530.50Q995 512 988.50 501.50Q982 491 971 486.50Q960 482 943 482L309 482Q320 324 394 250Q468 176 590 176Q650 176 693.50 190Q737 204 769.50 221Q802 238 826.50 252Q851 266 874 266Q889 266 900 260Q911 254 919 243L991 153Q950 105 899 72.50Q848 40 792.50 20.50Q737 1 679.50-7Q622-15 568-15Q461-15 369 20.50Q277 56 209 125.50Q141 195 102 297.50Q63 400 63 535Q63 640 97 732.50Q131 825 194.50 893.50Q258 962 349.50 1002Q441 1042 556 1042M561 865Q453 865 392 804Q331 743 314 631L778 631Q778 679 765 721.50Q752 764 725 796Q698 828 657 846.50Q616 865 561 865Z"  horiz-adv-x="1069" vert-adv-y="2000"  />

      
      <glyph glyph-name="uni66" unicode="&#x66;" d="M176 0L176 840L87 854Q58 859 40.50 874Q23 889 23 916L23 1017L176 1017L176 1093Q176 1181 202.50 1251Q229 1321 278.50 1370Q328 1419 399 1445Q470 1471 559 1471Q630 1471 691 1452L686 1328Q684 1299 659 1292Q634 1285 601 1285Q557 1285 522.50 1275.50Q488 1266 464 1242.50Q440 1219 427.50 1180.50Q415 1142 415 1085L415 1017L682 1017L682 841L423 841L423 0L176 0Z"  horiz-adv-x="701" vert-adv-y="2000"  />

      
      <glyph glyph-name="uni67" unicode="&#x67;" d="M487 1044Q553 1044 611 1030.50Q669 1017 717 991L1012 991L1012 899Q1012 876 1000 863Q988 850 959 845L867 828Q877 802 882.50 773Q888 744 888 712Q888 636 857.50 574.50Q827 513 773.50 470Q720 427 646.50 403.50Q573 380 487 380Q429 380 374 391Q326 362 326 326Q326 295 354.50 280.50Q383 266 429.50 260Q476 254 535 252.50Q594 251 656 246Q718 241 777 228.50Q836 216 882.50 189Q929 162 957.50 115.50Q986 69 986-4Q986-72 952.50-136Q919-200 855.50-250Q792-300 700-330.50Q608-361 490-361Q373-361 287-338.50Q201-316 144.50-278.50Q88-241 60-192Q32-143 32-90Q32-18 76 31Q120 80 198 109Q160 130 137 165Q114 200 114 256Q114 279 122 303.50Q130 328 146.50 352Q163 376 188 397.50Q213 419 247 436Q169 478 124.50 548Q80 618 80 712Q80 788 110.50 849.50Q141 911 195.50 954.50Q250 998 324.50 1021Q399 1044 487 1044M758-46Q758-16 740 3Q722 22 691 32.50Q660 43 618.50 48Q577 53 530.50 55.50Q484 58 434.50 60.50Q385 63 339 69Q297 46 271.50 14.50Q246-17 246-58Q246-85 259.50-108.50Q273-132 302.50-149Q332-166 379-175.50Q426-185 494-185Q563-185 613-174.50Q663-164 695.50-145.50Q728-127 743-101.50Q758-76 758-46M487 538Q533 538 567 550.50Q601 563 623.50 585Q646 607 657.50 638Q669 669 669 706Q669 782 623.50 826.50Q578 871 487 871Q396 871 350.50 826.50Q305 782 305 706Q305 670 316.50 639Q328 608 350.50 585.50Q373 563 407.50 550.50Q442 538 487 538Z"  horiz-adv-x="1035" vert-adv-y="2000"  />

      
      <glyph glyph-name="uni68" unicode="&#x68;" d="M132 0L132 1486L379 1486L379 915Q439 972 511 1007Q583 1042 680 1042Q764 1042 829 1013.50Q894 985 937.50 933.50Q981 882 1003.50 810.50Q1026 739 1026 653L1026 0L779 0L779 653Q779 747 735.50 798.50Q692 850 605 850Q541 850 485 821Q429 792 379 742L379 0L132 0Z"  horiz-adv-x="1137" vert-adv-y="2000"  />

      
      <glyph glyph-name="uni69" unicode="&#x69;" d="M395 1026L395 0L148 0L148 1026L395 1026M432 1325Q432 1293 419 1265Q406 1237 384.50 1216Q363 1195 334 1182.50Q305 1170 272 1170Q240 1170 211.50 1182.50Q183 1195 162 1216Q141 1237 128.50 1265Q116 1293 116 1325Q116 1358 128.50 1387Q141 1416 162 1437Q183 1458 211.50 1470.50Q240 1483 272 1483Q305 1483 334 1470.50Q363 1458 384.50 1437Q406 1416 419 1387Q432 1358 432 1325Z"  horiz-adv-x="542" vert-adv-y="2000"  />

      
      <glyph glyph-name="uni6a" unicode="&#x6a;" d="M395 1026L395-35Q395-102 377.50-161Q360-220 321.50-264.50Q283-309 220.50-334.50Q158-360 68-360Q33-360 3-355.50Q-27-351-58-341L-50-208Q-47-188-34-182.50Q-21-177 16-177Q53-177 78.50-169.50Q104-162 119.50-145.50Q135-129 141.50-102Q148-75 148-35L148 1026L395 1026M432 1325Q432 1293 419 1265Q406 1237 384.50 1216Q363 1195 334 1182.50Q305 1170 272 1170Q240 1170 211.50 1182.50Q183 1195 162 1216Q141 1237 128.50 1265Q116 1293 116 1325Q116 1358 128.50 1387Q141 1416 162 1437Q183 1458 211.50 1470.50Q240 1483 272 1483Q305 1483 334 1470.50Q363 1458 384.50 1437Q406 1416 419 1387Q432 1358 432 1325Z"  horiz-adv-x="538" vert-adv-y="2000"  />

      
      <glyph glyph-name="uni6b" unicode="&#x6b;" d="M382 1486L382 635L428 635Q453 635 467 642Q481 649 497 668L752 983Q769 1003 788 1014.50Q807 1026 838 1026L1064 1026L745 645Q728 624 710 606.50Q692 589 671 576Q692 561 708 541Q724 521 740 498L1082 0L859 0Q830 0 810 10Q790 20 774 44L513 433Q498 456 483 463Q468 470 438 470L382 470L382 0L135 0L135 1486L382 1486Z"  horiz-adv-x="1103" vert-adv-y="2000"  />

      
      <glyph glyph-name="uni6c" unicode="&#x6c;" d="M395 1486L395 0L148 0L148 1486L395 1486Z"  horiz-adv-x="542" vert-adv-y="2000"  />

      
      <glyph glyph-name="uni6d" unicode="&#x6d;" d="M132 0L132 1026L283 1026Q331 1026 346 981L362 905Q389 935 418.50 960Q448 985 481.50 1003Q515 1021 553.50 1031.50Q592 1042 638 1042Q735 1042 797.50 989.50Q860 937 891 850Q915 901 951 937.50Q987 974 1030 997Q1073 1020 1121.50 1031Q1170 1042 1219 1042Q1304 1042 1370 1016Q1436 990 1481 940Q1526 890 1549.50 818Q1573 746 1573 653L1573 0L1326 0L1326 653Q1326 751 1283 800.50Q1240 850 1157 850Q1119 850 1086.50 837Q1054 824 1029.50 799.50Q1005 775 991 738Q977 701 977 653L977 0L729 0L729 653Q729 756 687.50 803Q646 850 565 850Q512 850 465.50 823.50Q419 797 379 751L379 0L132 0Z"  horiz-adv-x="1684" vert-adv-y="2000"  />

      
      <glyph glyph-name="uni6e" unicode="&#x6e;" d="M132 0L132 1026L283 1026Q331 1026 346 981L363 900Q394 932 428.50 958Q463 984 501.50 1003Q540 1022 584 1032Q628 1042 680 1042Q764 1042 829 1013.50Q894 985 937.50 933.50Q981 882 1003.50 810.50Q1026 739 1026 653L1026 0L779 0L779 653Q779 747 735.50 798.50Q692 850 605 850Q541 850 485 821Q429 792 379 742L379 0L132 0Z"  horiz-adv-x="1137" vert-adv-y="2000"  />

      
      <glyph glyph-name="uni6f" unicode="&#x6f;" d="M570 1042Q685 1042 778.50 1005Q872 968 938 900Q1004 832 1040 734Q1076 636 1076 515Q1076 393 1040 295Q1004 197 938 128Q872 59 778.50 22Q685-15 570-15Q455-15 361 22Q267 59 200.50 128Q134 197 97.50 295Q61 393 61 515Q61 636 97.50 734Q134 832 200.50 900Q267 968 361 1005Q455 1042 570 1042M570 175Q698 175 759.50 261Q821 347 821 513Q821 679 759.50 766Q698 853 570 853Q440 853 378 765.50Q316 678 316 513Q316 348 378 261.50Q440 175 570 175Z"  horiz-adv-x="1137" vert-adv-y="2000"  />

      
      <glyph glyph-name="uni70" unicode="&#x70;" d="M132-335L132 1026L283 1026Q307 1026 324 1015Q341 1004 346 981L366 886Q428 957 508.50 1001Q589 1045 697 1045Q781 1045 850.50 1010Q920 975 970.50 908.50Q1021 842 1048.50 744.50Q1076 647 1076 521Q1076 406 1045 308Q1014 210 956.50 138Q899 66 817.50 25.50Q736-15 635-15Q548-15 487.50 11.50Q427 38 379 85L379-335L132-335M612 850Q535 850 480.50 817.50Q426 785 379 726L379 266Q421 214 470.50 193.50Q520 173 577 173Q633 173 678.50 194Q724 215 755.50 258Q787 301 804 366.50Q821 432 821 521Q821 611 806.50 673.50Q792 736 765 775Q738 814 699.50 832Q661 850 612 850Z"  horiz-adv-x="1131" vert-adv-y="2000"  />

      
      <glyph glyph-name="uni71" unicode="&#x71;" d="M1005 1026L1005-335L758-335L758 129Q727 96 692.50 69.50Q658 43 619 24.50Q580 6 536-4.50Q492-15 441-15Q357-15 287 20Q217 55 166.50 121.50Q116 188 88.50 286Q61 384 61 510Q61 624 92 722Q123 820 181 892Q239 964 320 1004.50Q401 1045 502 1045Q550 1045 589.50 1036.50Q629 1028 662.50 1012Q696 996 724 974Q752 952 778 924L791 981Q796 1004 813 1015Q830 1026 854 1026L1005 1026M525 181Q602 181 656 213Q710 245 758 304L758 764Q716 815 666.50 836Q617 857 560 857Q504 857 458.50 836Q413 815 381.50 772.50Q350 730 333 664.50Q316 599 316 510Q316 420 330.50 357.50Q345 295 372 255.50Q399 216 438 198.50Q477 181 525 181Z"  horiz-adv-x="1140" vert-adv-y="2000"  />

      
      <glyph glyph-name="uni72" unicode="&#x72;" d="M132 0L132 1026L277 1026Q315 1026 330 1012Q345 998 350 964L365 840Q420 935 494 990Q568 1045 660 1045Q736 1045 786 1010L754 825Q751 807 741 799.50Q731 792 714 792Q699 792 673 799Q647 806 604 806Q527 806 472 763.50Q417 721 379 639L379 0L132 0Z"  horiz-adv-x="817" vert-adv-y="2000"  />

      
      <glyph glyph-name="uni73" unicode="&#x73;" d="M741 826Q731 810 720 803.50Q709 797 692 797Q674 797 653.50 807Q633 817 606 829.50Q579 842 544.50 852Q510 862 463 862Q390 862 348 831Q306 800 306 750Q306 717 327.50 694.50Q349 672 384.50 655Q420 638 465 624.50Q510 611 557 595Q604 579 649 558.50Q694 538 729.50 506.50Q765 475 786.50 431Q808 387 808 325Q808 251 781 188.50Q754 126 702 80.50Q650 35 573.50 9.50Q497-16 398-16Q345-16 294.50-6.50Q244 3 197.50 20Q151 37 111.50 60Q72 83 42 110L99 204Q110 221 125 230Q140 239 163 239Q186 239 206.50 226Q227 213 254 198Q281 183 317.50 170Q354 157 410 157Q454 157 485.50 167.50Q517 178 537.50 195Q558 212 567.50 234.50Q577 257 577 281Q577 317 555.50 340Q534 363 498.50 380Q463 397 417.50 410.50Q372 424 324.50 440Q277 456 231.50 477.50Q186 499 150.50 532Q115 565 93.50 613Q72 661 72 729Q72 792 97 849Q122 906 170.50 948.50Q219 991 291.50 1016.50Q364 1042 459 1042Q565 1042 652 1007Q739 972 797 915L741 826Z"  horiz-adv-x="874" vert-adv-y="2000"  />

      
      <glyph glyph-name="uni74" unicode="&#x74;" d="M469-16Q336-16 264 59.50Q192 135 192 268L192 841L88 841Q68 841 53.50 854Q39 867 39 893L39 991L204 1018L256 1298Q260 1318 274.50 1329Q289 1340 311 1340L439 1340L439 1017L709 1017L709 841L439 841L439 285Q439 237 463 210Q487 183 527 183Q550 183 565.50 188.50Q581 194 592.50 200Q604 206 613 211.50Q622 217 631 217Q642 217 649 211.50Q656 206 664 195L738 75Q684 30 614 7Q544-16 469-16Z"  horiz-adv-x="774" vert-adv-y="2000"  />

      
      <glyph glyph-name="uni75" unicode="&#x75;" d="M358 1026L358 374Q358 280 401.50 228.50Q445 177 532 177Q596 177 652 205.50Q708 234 758 284L758 1026L1005 1026L1005 0L854 0Q806 0 791 45L774 127Q742 95 708 68.50Q674 42 635.50 23.50Q597 5 552.50-5.50Q508-16 457-16Q373-16 308.50 12.50Q244 41 200 93Q156 145 133.50 216.50Q111 288 111 374L111 1026L358 1026Z"  horiz-adv-x="1137" vert-adv-y="2000"  />

      
      <glyph glyph-name="uni76" unicode="&#x76;" d="M646 0L422 0L14 1026L219 1026Q246 1026 264.50 1013Q283 1000 290 980L488 432Q505 384 516.50 338Q528 292 537 246Q546 292 557.50 338Q569 384 587 432L790 980Q797 1000 815 1013Q833 1026 858 1026L1053 1026L646 0Z"  horiz-adv-x="1067" vert-adv-y="2000"  />

      
      <glyph glyph-name="uni77" unicode="&#x77;" d="M7 1026L203 1026Q231 1026 250 1013Q269 1000 274 980L421 432Q433 387 440.50 344Q448 301 455 258Q466 301 478.50 344Q491 387 505 432L675 982Q681 1002 699 1015Q717 1028 741 1028L850 1028Q877 1028 895 1015Q913 1002 919 982L1087 422Q1100 379 1110.50 338.50Q1121 298 1131 257Q1138 300 1146.50 343Q1155 386 1168 432L1320 980Q1325 1000 1344 1013Q1363 1026 1388 1026L1575 1026L1250 0L1051 0Q1019 0 1005 44L820 637Q811 666 803.50 695.50Q796 725 791 754Q785 724 778 694.50Q771 665 762 635L575 44Q561 0 521 0L332 0L7 1026Z"  horiz-adv-x="1582" vert-adv-y="2000"  />

      
      <glyph glyph-name="uni78" unicode="&#x78;" d="M375 529L38 1026L276 1026Q303 1026 316 1018.50Q329 1011 339 994L554 651Q559 668 566.50 685Q574 702 585 719L758 989Q770 1008 783 1017Q796 1026 815 1026L1042 1026L704 540L1056 0L818 0Q791 0 774.50 14Q758 28 747 46L529 403Q520 367 504 343L312 46Q301 29 285 14.50Q269 0 245 0L24 0L375 529Z"  horiz-adv-x="1080" vert-adv-y="2000"  />

      
      <glyph glyph-name="uni79" unicode="&#x79;" d="M496-282Q485-308 467.50-321.50Q450-335 414-335L230-335L422 76L7 1026L223 1026Q253 1026 269 1012Q285 998 293 980L512 448Q523 422 531 394Q539 366 545 338Q553 367 562.50 394Q572 421 583 449L789 980Q797 1000 815.50 1013Q834 1026 857 1026L1055 1026L496-282Z"  horiz-adv-x="1067" vert-adv-y="2000"  />

      
      <glyph glyph-name="uni7a" unicode="&#x7a;" d="M874 924Q874 898 864.50 873.50Q855 849 842 832L354 190L860 190L860 0L67 0L67 103Q67 120 75 143.50Q83 167 100 188L592 837L96 837L96 1026L874 1026L874 924Z"  horiz-adv-x="939" vert-adv-y="2000"  />

      
      <glyph glyph-name="uni7b" unicode="&#x7b;" d="M149 410Q149 471 120.50 509.50Q92 548 29 548L29 691Q92 691 120.50 729.50Q149 768 149 829Q149 876 142.50 922.50Q136 969 127.50 1016Q119 1063 112.50 1110.50Q106 1158 106 1207Q106 1283 128 1345.50Q150 1408 195.50 1453Q241 1498 310.50 1522.50Q380 1547 474 1547L527 1547L527 1437Q527 1424 521.50 1414.50Q516 1405 507.50 1399Q499 1393 490 1390Q481 1387 474 1387L465 1387Q395 1387 358 1343Q321 1299 321 1222Q321 1167 327 1116.50Q333 1066 339.50 1018.50Q346 971 352 925Q358 879 358 832Q358 794 347.50 760Q337 726 316.50 698.50Q296 671 267.50 650Q239 629 203 619Q239 608 267.50 587.50Q296 567 316.50 539Q337 511 347.50 477Q358 443 358 406Q358 359 352 313Q346 267 339.50 219.50Q333 172 327 121.50Q321 71 321 16Q321-60 358-104Q395-148 465-148L474-148Q481-148 490-151Q499-154 507.50-160Q516-166 521.50-176Q527-186 527-199L527-308L474-308Q380-308 310.50-283.50Q241-259 195.50-214.50Q150-170 128-107.50Q106-45 106 31Q106 80 112.50 127.50Q119 175 127.50 222Q136 269 142.50 316Q149 363 149 410Z"  horiz-adv-x="600" vert-adv-y="2000"  />

      
      <glyph glyph-name="uni7c" unicode="&#x7c;" d="M204 1547L396 1547L396-335L204-335L204 1547Z"  horiz-adv-x="600" vert-adv-y="2000"  />

      
      <glyph glyph-name="uni7d" unicode="&#x7d;" d="M451 410Q451 363 457.50 316Q464 269 472.50 222Q481 175 487.50 127.50Q494 80 494 31Q494-45 472-107.50Q450-170 404.50-214.50Q359-259 289.50-283.50Q220-308 126-308L73-308L73-199Q73-186 78.50-176Q84-166 92.50-160Q101-154 110-151Q119-148 126-148L135-148Q205-148 242-104Q279-60 279 16Q279 71 273 121.50Q267 172 260.50 219.50Q254 267 248 313Q242 359 242 406Q242 443 252.50 477Q263 511 283 539Q303 567 332 587.50Q361 608 397 619Q361 629 332 650Q303 671 283 698.50Q263 726 252.50 760Q242 794 242 832Q242 879 248 925Q254 971 260.50 1018.50Q267 1066 273 1116.50Q279 1167 279 1222Q279 1299 242 1343Q205 1387 135 1387L126 1387Q119 1387 110 1390Q101 1393 92.50 1399Q84 1405 78.50 1414.50Q73 1424 73 1437L73 1547L126 1547Q220 1547 289.50 1522.50Q359 1498 404.50 1453Q450 1408 472 1345.50Q494 1283 494 1207Q494 1158 487.50 1110.50Q481 1063 472.50 1016Q464 969 457.50 922.50Q451 876 451 829Q451 768 479.50 729.50Q508 691 571 691L571 548Q508 548 479.50 509.50Q451 471 451 410Z"  horiz-adv-x="600" vert-adv-y="2000"  />

      
      <glyph glyph-name="uni7e" unicode="&#x7e;" d="M745 648Q801 648 832 684Q863 720 863 785L1062 785Q1062 708 1041.50 645.50Q1021 583 982.50 538.50Q944 494 888 470Q832 446 760 446Q707 446 658.50 460Q610 474 566.50 490.50Q523 507 485 521Q447 535 415 535Q359 535 328 499Q297 463 297 398L98 398Q98 475 118.50 537.50Q139 600 177.50 644.50Q216 689 272 713Q328 737 400 737Q453 737 501.50 723Q550 709 593.50 692.50Q637 676 675 662Q713 648 745 648Z"  horiz-adv-x="1160" vert-adv-y="2000"  />

      
      <glyph glyph-name="unia1" unicode="&#xa1;" d="M247-335L247 198Q247 289 256 376.50Q265 464 280 562L447 562Q462 464 471 376.50Q480 289 480 198L480-335L247-335M209 892Q209 924 220.50 951.50Q232 979 252 999Q272 1019 300 1030.50Q328 1042 360 1042Q392 1042 419.50 1030.50Q447 1019 467.50 999Q488 979 500 951.50Q512 924 512 892Q512 860 500 832.50Q488 805 467.50 785Q447 765 419.50 753Q392 741 360 741Q328 741 300 753Q272 765 252 785Q232 805 220.50 832.50Q209 860 209 892Z"  horiz-adv-x="721" vert-adv-y="2000"  />

      
      <glyph glyph-name="unia2" unicode="&#xa2;" d="M539-8Q450 5 374 45.50Q298 86 242 152.50Q186 219 154.50 309.50Q123 400 123 513Q123 622 156 716.50Q189 811 253.50 881Q318 951 412.50 993Q507 1035 629 1040L643 1197Q645 1220 663 1239.50Q681 1259 710 1259L801 1259L781 1030Q860 1016 924 982.50Q988 949 1042 899L978 812Q968 798 958 791Q948 784 928 784Q914 784 899 790.50Q884 797 864.50 807Q845 817 821 827Q797 837 765 845L707 172Q760 177 795.50 191.50Q831 206 856.50 221Q882 236 901 248Q920 260 940 260Q970 260 986 239L1054 151Q1019 110 977 81Q935 52 889 32.50Q843 13 793 2.50Q743-8 691-12L679-159Q677-183 659-202.50Q641-222 612-222L521-222L539-8M367 513Q367 379 416 296.50Q465 214 556 185L613 852Q487 836 427 748Q367 660 367 513Z"  horiz-adv-x="1160" vert-adv-y="2000"  />

      
      <glyph glyph-name="unia3" unicode="&#xa3;" d="M39 679Q39 713 60 737.50Q81 762 122 762L230 762L230 998Q230 1092 258 1176.50Q286 1261 343 1324.50Q400 1388 486 1425Q572 1462 688 1462Q768 1462 831.50 1441.50Q895 1421 944.50 1386Q994 1351 1030.50 1303.50Q1067 1256 1093 1201L994 1138Q962 1122 937 1122Q900 1122 871 1155Q852 1177 833.50 1195.50Q815 1214 793.50 1227Q772 1240 746.50 1247Q721 1254 688 1254Q585 1254 534 1186.50Q483 1119 483 999L483 762L892 762L892 664Q892 640 872.50 620Q853 600 822 600L483 600L483 406Q483 340 458.50 288.50Q434 237 391 193Q465 210 538 210L1124 210L1124 106Q1124 88 1116.50 69Q1109 50 1095 34.50Q1081 19 1061.50 9.50Q1042 0 1018 0L59 0L59 155Q93 163 124 177.50Q155 192 178.50 214.50Q202 237 216 267.50Q230 298 230 339L230 600L39 600L39 679Z"  horiz-adv-x="1160" vert-adv-y="2000"  />

      
      <glyph glyph-name="unia4" unicode="&#xa4;" d="M211 673Q211 726 224.50 773.50Q238 821 263 863L110 1015L235 1137L385 987Q428 1013 477 1027.50Q526 1042 580 1042Q632 1042 680 1028.50Q728 1015 770 990L922 1142L1045 1019L894 868Q920 825 934.50 776Q949 727 949 673Q949 620 935.50 573Q922 526 897 484L1050 332L925 209L774 359Q732 333 683 319Q634 305 580 305Q528 305 480.50 318Q433 331 391 356L238 204L115 328L266 478Q240 521 225.50 570Q211 619 211 673M393 673Q393 635 407.50 600.50Q422 566 447.50 540.50Q473 515 507 500Q541 485 580 485Q619 485 653.50 500Q688 515 713.50 540.50Q739 566 754 600.50Q769 635 769 673Q769 713 754 747.50Q739 782 713.50 807.50Q688 833 653.50 848Q619 863 580 863Q541 863 507 848Q473 833 447.50 807.50Q422 782 407.50 747.50Q393 713 393 673Z"  horiz-adv-x="1160" vert-adv-y="2000"  />

      
      <glyph glyph-name="unia5" unicode="&#xa5;" d="M133 633L409 633L11 1446L216 1446Q251 1446 273 1429.50Q295 1413 307 1386L526 898Q546 853 558 815Q570 777 578 740Q586 777 597.50 815.50Q609 854 629 898L846 1386Q857 1409 879 1427.50Q901 1446 935 1446L1142 1446L743 633L1019 633L1019 495L700 495L700 400L1019 400L1019 263L700 263L700 0L453 0L453 263L133 263L133 400L453 400L453 495L133 495L133 633Z"  horiz-adv-x="1160" vert-adv-y="2000"  />

      
      <glyph glyph-name="unia6" unicode="&#xa6;" d="M204 1547L396 1547L396 738L204 738L204 1547M204 473L396 473L396-335L204-335L204 473Z"  horiz-adv-x="600" vert-adv-y="2000"  />

      
      <glyph glyph-name="unia7" unicode="&#xa7;" d="M827 1245Q817 1229 806 1222Q795 1215 778 1215Q759 1215 738.50 1225Q718 1235 691 1247.50Q664 1260 629.50 1270Q595 1280 548 1280Q506 1280 474 1270.50Q442 1261 420.50 1244.50Q399 1228 387.50 1206Q376 1184 376 1159Q376 1127 399.50 1103Q423 1079 462 1057.50Q501 1036 550.50 1016Q600 996 652 973.50Q704 951 753.50 924Q803 897 842 862Q881 827 904.50 781Q928 735 928 675Q928 594 890.50 528.50Q853 463 770 423Q815 386 843.50 337Q872 288 872 220Q872 146 845.50 83.50Q819 21 767-24.50Q715-70 638.50-95.50Q562-121 462-121Q409-121 358.50-111.50Q308-102 261.50-85Q215-68 175.50-45Q136-22 106 5L164 99Q175 116 189.50 125Q204 134 227 134Q250 134 270.50 121Q291 108 319 93Q347 78 386 65Q425 52 484 52Q566 52 611.50 86Q657 120 657 180Q657 220 633 249Q609 278 569 300.50Q529 323 478.50 341.50Q428 360 375.50 381Q323 402 272.50 427.50Q222 453 182 488Q142 523 118 571Q94 619 94 685Q94 764 135.50 826.50Q177 889 262 926Q216 965 187 1018.50Q158 1072 158 1148Q158 1211 182.50 1267.50Q207 1324 256 1367Q305 1410 377 1435.50Q449 1461 544 1461Q650 1461 737.50 1426Q825 1391 882 1334L827 1245M313 725Q313 683 342 652.50Q371 622 417.50 597.50Q464 573 522 550.50Q580 528 637 502Q677 522 695 552.50Q713 583 713 619Q713 663 685 693.50Q657 724 612 749Q567 774 510.50 796Q454 818 398 844Q353 820 333 791.50Q313 763 313 725Z"  horiz-adv-x="1010" vert-adv-y="2000"  />

      
      <glyph glyph-name="unia8" unicode="&#xa8;" d="M270 1292Q270 1264 259 1239.50Q248 1215 228.50 1197Q209 1179 183.50 1168.50Q158 1158 130 1158Q103 1158 78.50 1168.50Q54 1179 35 1197Q16 1215 5 1239.50Q-6 1264-6 1292Q-6 1321 5 1346.50Q16 1372 35 1391Q54 1410 78.50 1421Q103 1432 130 1432Q158 1432 183.50 1421Q209 1410 228.50 1391Q248 1372 259 1346.50Q270 1321 270 1292M644 1292Q644 1264 633 1239.50Q622 1215 603 1197Q584 1179 558.50 1168.50Q533 1158 505 1158Q477 1158 452 1168.50Q427 1179 408.50 1197Q390 1215 379 1239.50Q368 1264 368 1292Q368 1321 379 1346.50Q390 1372 408.50 1391Q427 1410 452 1421Q477 1432 505 1432Q533 1432 558.50 1421Q584 1410 603 1391Q622 1372 633 1346.50Q644 1321 644 1292Z"  horiz-adv-x="638" vert-adv-y="2000"  />

      
      <glyph glyph-name="unia9" unicode="&#xa9;" d="M1017 512Q1028 512 1037 507.50Q1046 503 1052 495L1134 408Q1078 337 993 299.50Q908 262 793 262Q693 262 612 297.50Q531 333 473.50 395.50Q416 458 385 542.50Q354 627 354 726Q354 828 389 913Q424 998 486 1059.50Q548 1121 631.50 1155Q715 1189 813 1189Q925 1189 1004.50 1152Q1084 1115 1138 1056L1073 967Q1067 959 1057 951Q1047 943 1030 943Q1013 943 998 953Q983 963 962 975Q941 987 909 997Q877 1007 826 1007Q766 1007 719 987.50Q672 968 639.50 931.50Q607 895 590 843Q573 791 573 726Q573 658 590.50 606Q608 554 639 518.50Q670 483 712.50 464.50Q755 446 805 446Q854 446 885.50 454Q917 462 939 473Q961 484 978 495Q995 506 1017 512M53 723Q53 825 79.50 919.50Q106 1014 154 1096Q202 1178 269.50 1245.50Q337 1313 419 1361Q501 1409 595 1435.50Q689 1462 791 1462Q893 1462 987.50 1435.50Q1082 1409 1164 1361Q1246 1313 1313.50 1245.50Q1381 1178 1429 1096Q1477 1014 1503.50 919.50Q1530 825 1530 723Q1530 622 1503.50 527.50Q1477 433 1429 351.50Q1381 270 1313.50 202.50Q1246 135 1164 87Q1082 39 987.50 12.50Q893-14 791-14Q689-14 595 12.50Q501 39 419 87Q337 135 269.50 202.50Q202 270 154 351.50Q106 433 79.50 527Q53 621 53 723M188 723Q188 593 234.50 480Q281 367 362.50 283.50Q444 200 554 152Q664 104 791 104Q918 104 1029 152Q1140 200 1222 283.50Q1304 367 1351 480Q1398 593 1398 723Q1398 810 1376.50 890Q1355 970 1316 1039.50Q1277 1109 1221.50 1165.50Q1166 1222 1099 1262.50Q1032 1303 954 1325Q876 1347 791 1347Q706 1347 628.50 1325Q551 1303 484 1262.50Q417 1222 362.50 1165.50Q308 1109 269 1039.50Q230 970 209 890Q188 810 188 723Z"  horiz-adv-x="1583" vert-adv-y="2000"  />

      
      <glyph glyph-name="uniaa" unicode="&#xaa;" d="M622 841L539 841Q515 841 501 847.50Q487 854 479 877L467 913Q443 893 421 878Q399 863 376 853Q353 843 326.50 838Q300 833 267 833Q225 833 191 844Q157 855 132.50 876.50Q108 898 94.50 929.50Q81 961 81 1002Q81 1035 98 1069.50Q115 1104 157 1132Q199 1160 270 1178.50Q341 1197 449 1200L449 1225Q449 1279 425.50 1301.50Q402 1324 357 1324Q323 1324 301 1317Q279 1310 262 1301Q245 1292 230 1285Q215 1278 194 1278Q175 1278 162 1288Q149 1298 142 1311L111 1368Q167 1419 234 1442.50Q301 1466 379 1466Q435 1466 480 1448Q525 1430 556.50 1397.50Q588 1365 605 1321Q622 1277 622 1225L622 841M323 954Q361 954 390 967.50Q419 981 449 1010L449 1091Q390 1089 352 1082Q314 1075 291.50 1064.50Q269 1054 260 1040.50Q251 1027 251 1011Q251 979 269.50 966.50Q288 954 323 954Z"  horiz-adv-x="696" vert-adv-y="2000"  />

      
      <glyph glyph-name="uniab" unicode="&#xab;" d="M123 522L123 554L379 950L460 912Q480 903 489 889Q498 875 498 858Q498 837 485 815L347 580Q333 554 315 538Q331 524 347 496L485 260Q498 238 498 216Q498 182 460 164L379 126L123 522M452 522L452 554L708 950L789 912Q809 903 818 889Q827 875 827 858Q827 837 814 815L676 580Q662 554 644 538Q660 524 676 496L814 260Q827 238 827 216Q827 182 789 164L708 126L452 522Z"  horiz-adv-x="972" vert-adv-y="2000"  />

      
      <glyph glyph-name="uniac" unicode="&#xac;" d="M136 763L1022 763L1022 297L813 297L813 580L136 580L136 763Z"  horiz-adv-x="1160" vert-adv-y="2000"  />

      
      <glyph glyph-name="uniad" unicode="&#xad;" d="M100 707L618 707L618 501L100 501L100 707Z"  horiz-adv-x="718" vert-adv-y="2000"  />

      
      <glyph glyph-name="uniae" unicode="&#xae;" d="M53 723Q53 825 79.50 919.50Q106 1014 154 1096Q202 1178 269.50 1245.50Q337 1313 419 1361Q501 1409 595 1435.50Q689 1462 791 1462Q893 1462 987.50 1435.50Q1082 1409 1164 1361Q1246 1313 1313.50 1245.50Q1381 1178 1429 1096Q1477 1014 1503.50 919.50Q1530 825 1530 723Q1530 622 1503.50 527.50Q1477 433 1429 351.50Q1381 270 1313.50 202.50Q1246 135 1164 87Q1082 39 987.50 12.50Q893-14 791-14Q689-14 595 12.50Q501 39 419 87Q337 135 269.50 202.50Q202 270 154 351.50Q106 433 79.50 527Q53 621 53 723M188 723Q188 593 234.50 480Q281 367 362.50 283.50Q444 200 554 152Q664 104 791 104Q918 104 1029 152Q1140 200 1222 283.50Q1304 367 1351 480Q1398 593 1398 723Q1398 810 1376.50 890Q1355 970 1316 1039.50Q1277 1109 1221.50 1165.50Q1166 1222 1099 1262.50Q1032 1303 954 1325Q876 1347 791 1347Q706 1347 628.50 1325Q551 1303 484 1262.50Q417 1222 362.50 1165.50Q308 1109 269 1039.50Q230 970 209 890Q188 810 188 723M679 602L679 277L465 277L465 1174L786 1174Q973 1174 1060 1107Q1147 1040 1147 915Q1147 826 1101 759.50Q1055 693 958 662Q981 649 996 629.50Q1011 610 1026 584L1207 277L1001 277Q956 277 938 310L794 573Q784 587 771.50 594.50Q759 602 734 602L679 602M679 755L768 755Q819 755 852 763.50Q885 772 903.50 789Q922 806 929 831Q936 856 936 888Q936 919 930 942.50Q924 966 907.50 981.50Q891 997 861.50 1004.50Q832 1012 786 1012L679 1012L679 755Z"  horiz-adv-x="1583" vert-adv-y="2000"  />

      
      <glyph glyph-name="uniaf" unicode="&#xaf;" d="M20 1372L618 1372L618 1214L20 1214L20 1372Z"  horiz-adv-x="638" vert-adv-y="2000"  />

      
      <glyph glyph-name="unib0" unicode="&#xb0;" d="M55 1123Q55 1194 81.50 1256.50Q108 1319 154.50 1365Q201 1411 264 1437.50Q327 1464 400 1464Q473 1464 536.50 1437.50Q600 1411 647 1365Q694 1319 721 1256.50Q748 1194 748 1123Q748 1054 721 992Q694 930 647 883.50Q600 837 536.50 810Q473 783 400 783Q327 783 264 810Q201 837 154.50 883.50Q108 930 81.50 992Q55 1054 55 1123M227 1121Q227 1084 240 1052Q253 1020 276.50 996.50Q300 973 331.50 959.50Q363 946 400 946Q437 946 469 959.50Q501 973 524.50 996.50Q548 1020 561 1052Q574 1084 574 1121Q574 1159 561 1191.50Q548 1224 524.50 1248Q501 1272 469 1286Q437 1300 400 1300Q363 1300 331.50 1286Q300 1272 276.50 1248Q253 1224 240 1191.50Q227 1159 227 1121Z"  horiz-adv-x="803" vert-adv-y="2000"  />

      
      <glyph glyph-name="unib1" unicode="&#xb1;" d="M678 1241L678 887L1067 887L1067 703L678 703L678 362L478 362L478 703L91 703L91 887L478 887L478 1241L678 1241M91 263L1067 263L1067 80L91 80L91 263Z"  horiz-adv-x="1160" vert-adv-y="2000"  />

      
      <glyph glyph-name="unib2" unicode="&#xb2;" d="M350 1649Q408 1649 453.50 1632Q499 1615 530.50 1586Q562 1557 578 1517.50Q594 1478 594 1432Q594 1391 581.50 1357Q569 1323 548.50 1292Q528 1261 501 1232Q474 1203 445 1173L317 1043Q345 1051 372 1055.50Q399 1060 422 1060L551 1060Q579 1060 594.50 1045Q610 1030 610 1005L610 900L69 900L69 957Q69 974 75.50 993Q82 1012 98 1028L307 1234Q329 1256 349 1280.50Q369 1305 383 1329.50Q397 1354 405.50 1378.50Q414 1403 414 1426Q414 1462 394.50 1484.50Q375 1507 340 1507Q307 1507 287 1490.50Q267 1474 254 1443Q243 1425 230.50 1416Q218 1407 195 1407Q190 1407 184.50 1407.50Q179 1408 172 1409L73 1424Q90 1539 164 1594Q238 1649 350 1649Z"  horiz-adv-x="666" vert-adv-y="2000"  />

      
      <glyph glyph-name="unib3" unicode="&#xb3;" d="M360 1649Q417 1649 461 1632.50Q505 1616 536 1589Q567 1562 583 1527.50Q599 1493 599 1456Q599 1393 573 1349.50Q547 1306 490 1282Q550 1262 581 1225.50Q612 1189 612 1130Q612 1068 589 1023.50Q566 979 529 949.50Q492 920 445 906Q398 892 350 892Q296 892 253 902.50Q210 913 176.50 936.50Q143 960 118 998.50Q93 1037 74 1093L151 1124Q173 1132 191 1132Q228 1132 242 1104Q248 1093 256 1081Q264 1069 276 1059.50Q288 1050 304 1044Q320 1038 341 1038Q386 1038 410 1063Q434 1088 434 1123Q434 1150 427 1168Q420 1186 403.50 1197Q387 1208 358.50 1212.50Q330 1217 288 1217L288 1333Q330 1333 357.50 1339.50Q385 1346 400.50 1357.50Q416 1369 422.50 1386Q429 1403 429 1424Q429 1461 409.50 1482.50Q390 1504 351 1504Q316 1504 295.50 1487.50Q275 1471 264 1445Q255 1425 243 1415.50Q231 1406 211 1406Q200 1406 185 1409L94 1424Q102 1481 125.50 1523.50Q149 1566 184 1594Q219 1622 264 1635.50Q309 1649 360 1649Z"  horiz-adv-x="666" vert-adv-y="2000"  />

      
      <glyph glyph-name="unib4" unicode="&#xb4;" d="M665 1462L418 1201Q399 1181 381.50 1173.50Q364 1166 336 1166L188 1166L330 1409Q345 1435 365 1448.50Q385 1462 425 1462L665 1462Z"  horiz-adv-x="638" vert-adv-y="2000"  />

      
      <glyph glyph-name="unib5" unicode="&#xb5;" d="M358 1026L358 374Q358 280 401.50 228.50Q445 177 532 177Q596 177 652 205.50Q708 234 758 284L758 1026L1005 1026L1005 0L854 0Q806 0 791 45L774 128Q743 97 713 75.50Q683 54 652 40.50Q621 27 587.50 21Q554 15 516 15Q457 15 409 33Q361 51 324 84Q335 40 338.50-7Q342-54 342-95L342-335L220-335Q168-335 139.50-308.50Q111-282 111-232L111 1026L358 1026Z"  horiz-adv-x="1137" vert-adv-y="2000"  />

      
      <glyph glyph-name="unib6" unicode="&#xb6;" d="M1370 1446L1370 1239L1156 1239L1156-209L940-209L940 1239L705 1239L705-209L489-209L489 630Q385 630 301 662.50Q217 695 157.50 750.50Q98 806 65.50 880Q33 954 33 1037Q33 1128 65.50 1203Q98 1278 157.50 1332Q217 1386 301 1416Q385 1446 489 1446L1370 1446Z"  horiz-adv-x="1401" vert-adv-y="2000"  />

      
      <glyph glyph-name="unib7" unicode="&#xb7;" d="M91 595Q91 634 105.50 668.50Q120 703 145.50 728.50Q171 754 205 768.50Q239 783 278 783Q318 783 352.50 768.50Q387 754 412.50 728.50Q438 703 453 668.50Q468 634 468 595Q468 556 453 522.50Q438 489 412.50 463.50Q387 438 352.50 423.50Q318 409 278 409Q239 409 205 423.50Q171 438 145.50 463.50Q120 489 105.50 522.50Q91 556 91 595Z"  horiz-adv-x="559" vert-adv-y="2000"  />

      
      <glyph glyph-name="unib8" unicode="&#xb8;" d="M183-227Q190-227 197.50-229Q205-231 214.50-234Q224-237 235.50-239Q247-241 263-241Q296-241 312.50-228.50Q329-216 329-198Q329-169 293-156.50Q257-144 182-134L227 14L381 14L361-55Q450-77 486-114.50Q522-152 522-203Q522-236 504.50-263Q487-290 455-309Q423-328 378-338.50Q333-349 279-349Q238-349 202.50-343Q167-337 132-326L155-250Q161-227 183-227Z"  horiz-adv-x="638" vert-adv-y="2000"  />

      
      <glyph glyph-name="unib9" unicode="&#xb9;" d="M161 1014L300 1014L300 1374L305 1425L228 1364Q212 1352 194 1352Q179 1352 167 1358Q155 1364 150 1372L95 1447L328 1641L477 1641L477 1014L592 1014L592 900L161 900L161 1014Z"  horiz-adv-x="666" vert-adv-y="2000"  />

      
      <glyph glyph-name="uniba" unicode="&#xba;" d="M390 1464Q462 1464 522 1442Q582 1420 625 1379.50Q668 1339 691.50 1280.50Q715 1222 715 1149Q715 1075 691.50 1015.50Q668 956 625 914.50Q582 873 522 851Q462 829 390 829Q316 829 255.50 851Q195 873 152 914.50Q109 956 85 1015.50Q61 1075 61 1149Q61 1222 85 1280.50Q109 1339 152 1379.50Q195 1420 255.50 1442Q316 1464 390 1464M390 973Q457 973 489.50 1015.50Q522 1058 522 1147Q522 1236 489.50 1278Q457 1320 390 1320Q319 1320 286.50 1278Q254 1236 254 1147Q254 1058 286.50 1015.50Q319 973 390 973Z"  horiz-adv-x="776" vert-adv-y="2000"  />

      
      <glyph glyph-name="unibb" unicode="&#xbb;" d="M263 126L182 164Q162 173 153 187Q144 201 144 218Q144 238 157 260L295 496Q311 524 327 538Q309 554 295 580L157 815Q144 837 144 858Q144 894 182 912L263 950L519 554L519 522L263 126M592 126L511 164Q491 173 482 187Q473 201 473 218Q473 238 486 260L624 496Q640 524 656 538Q638 554 624 580L486 815Q473 837 473 858Q473 894 511 912L592 950L848 554L848 522L592 126Z"  horiz-adv-x="972" vert-adv-y="2000"  />

      
      <glyph glyph-name="unibc" unicode="&#xbc;" d="M455 71Q429 30 399.50 15Q370 0 332 0L226 0L1060 1365Q1083 1403 1114 1424.50Q1145 1446 1190 1446L1295 1446L455 71M1320 282L1414 282L1414 194Q1414 181 1405 171Q1396 161 1380 161L1320 161L1320 0L1172 0L1172 161L883 161Q859 161 845.50 171.50Q832 182 829 198L814 274L1149 741L1320 741L1320 282M142 820L281 820L281 1180L286 1231L209 1170Q193 1158 175 1158Q160 1158 148 1164Q136 1170 131 1178L76 1253L309 1447L458 1447L458 820L573 820L573 706L142 706L142 820M1172 450Q1172 473 1173.50 501Q1175 529 1179 559L977 282L1172 282L1172 450Z"  horiz-adv-x="1424" vert-adv-y="2000"  />

      
      <glyph glyph-name="unibd" unicode="&#xbd;" d="M414 71Q388 30 358.50 15Q329 0 291 0L185 0L1019 1365Q1042 1403 1073 1424.50Q1104 1446 1149 1446L1254 1446L414 71M1128 749Q1186 749 1231.50 732Q1277 715 1308.50 686Q1340 657 1356 617.50Q1372 578 1372 532Q1372 491 1359.50 457Q1347 423 1326.50 392Q1306 361 1279 332Q1252 303 1223 273L1095 143Q1123 151 1150 155.50Q1177 160 1200 160L1329 160Q1357 160 1372.50 145Q1388 130 1388 105L1388 0L847 0L847 57Q847 74 853.50 93Q860 112 876 128L1085 334Q1107 356 1127 380.50Q1147 405 1161 429.50Q1175 454 1183.50 478.50Q1192 503 1192 526Q1192 562 1172.50 584.50Q1153 607 1118 607Q1085 607 1066 591.50Q1047 576 1032 543Q1016 507 973 507Q968 507 962.50 507.50Q957 508 950 509L851 524Q868 639 942 694Q1016 749 1128 749M142 820L281 820L281 1180L286 1231L209 1170Q193 1158 175 1158Q160 1158 148 1164Q136 1170 131 1178L76 1253L309 1447L458 1447L458 820L573 820L573 706L142 706L142 820Z"  horiz-adv-x="1424" vert-adv-y="2000"  />

      
      <glyph glyph-name="unibe" unicode="&#xbe;" d="M458 71Q432 30 402.50 15Q373 0 335 0L229 0L1063 1365Q1086 1403 1117 1424.50Q1148 1446 1193 1446L1298 1446L458 71M1320 282L1414 282L1414 194Q1414 181 1405 171Q1396 161 1380 161L1320 161L1320 0L1172 0L1172 161L883 161Q859 161 845.50 171.50Q832 182 829 198L814 274L1149 741L1320 741L1320 282M341 1455Q398 1455 442 1438.50Q486 1422 517 1395Q548 1368 564 1333.50Q580 1299 580 1262Q580 1199 554 1155.50Q528 1112 471 1088Q531 1068 562 1031.50Q593 995 593 936Q593 874 570 829.50Q547 785 510 755.50Q473 726 426 712Q379 698 331 698Q277 698 234 708.50Q191 719 157.50 742.50Q124 766 99 804.50Q74 843 55 899L132 930Q154 938 172 938Q209 938 223 910Q229 899 237 887Q245 875 257 865.50Q269 856 285 850Q301 844 322 844Q367 844 391 869Q415 894 415 929Q415 956 408 974Q401 992 384.50 1003Q368 1014 339.50 1018.50Q311 1023 269 1023L269 1139Q311 1139 338.50 1145.50Q366 1152 381.50 1163.50Q397 1175 403.50 1192Q410 1209 410 1230Q410 1267 390.50 1288.50Q371 1310 332 1310Q297 1310 276.50 1294Q256 1278 245 1251Q235 1231 223.50 1221.50Q212 1212 192 1212Q181 1212 166 1215L75 1230Q83 1287 106.50 1329.50Q130 1372 165 1400Q200 1428 245 1441.50Q290 1455 341 1455M1172 450Q1172 473 1173.50 501Q1175 529 1179 559L977 282L1172 282L1172 450Z"  horiz-adv-x="1425" vert-adv-y="2000"  />

      
      <glyph glyph-name="unibf" unicode="&#xbf;" d="M820-203Q785-233 744.50-259.50Q704-286 657-306.50Q610-327 555-338.50Q500-350 436-350Q349-350 277.50-327Q206-304 155-261Q104-218 76-156.50Q48-95 48-17Q48 59 70 112Q92 165 125.50 202.50Q159 240 198.50 266Q238 292 273 315Q308 338 333.50 361.50Q359 385 364 417L387 562L556 562L573 399Q574 394 574 389.50Q574 385 574 380Q574 334 552 303Q530 272 497 248Q464 224 426 202.50Q388 181 355 154.50Q322 128 300 92.50Q278 57 278 5Q278-31 291.50-59.50Q305-88 329-108.50Q353-129 386-140Q419-151 458-151Q515-151 554.50-138Q594-125 621.50-110Q649-95 668-82Q687-69 703-69Q738-69 754-100L820-203M324 892Q324 923 335.50 951Q347 979 367.50 999Q388 1019 416 1031Q444 1043 476 1043Q507 1043 535 1031Q563 1019 583 999Q603 979 615 951Q627 923 627 892Q627 860 615 832.50Q603 805 583 785Q563 765 535 753.50Q507 742 476 742Q444 742 416 753.50Q388 765 367.50 785Q347 805 335.50 832.50Q324 860 324 892Z"  horiz-adv-x="841" vert-adv-y="2000"  />

      
      <glyph glyph-name="unic0" unicode="&#xc0;" d="M1417 0L1209 0Q1174 0 1151.50 17.50Q1129 35 1119 61L1011 356L412 356L304 61Q296 38 272.50 19Q249 0 215 0L6 0L574 1446L849 1446L1417 0M481 546L942 546L766 1027Q754 1059 739.50 1102.50Q725 1146 711 1197Q697 1146 683.50 1102Q670 1058 657 1025L481 546M568 1791Q588 1791 602 1789.50Q616 1788 627.50 1783.50Q639 1779 649 1771Q659 1763 671 1751L868 1549L673 1549Q659 1549 648.50 1549.50Q638 1550 629 1552.50Q620 1555 611 1560Q602 1565 591 1573L294 1791L568 1791Z"  horiz-adv-x="1420" vert-adv-y="2000"  />

      
      <glyph glyph-name="unic1" unicode="&#xc1;" d="M1417 0L1209 0Q1174 0 1151.50 17.50Q1129 35 1119 61L1011 356L412 356L304 61Q296 38 272.50 19Q249 0 215 0L6 0L574 1446L849 1446L1417 0M481 546L942 546L766 1027Q754 1059 739.50 1102.50Q725 1146 711 1197Q697 1146 683.50 1102Q670 1058 657 1025L481 546M1095 1791L799 1575Q788 1567 778.50 1562Q769 1557 759.50 1554Q750 1551 739.50 1550Q729 1549 715 1549L521 1549L717 1751Q729 1763 739.50 1771Q750 1779 761 1783.50Q772 1788 786 1789.50Q800 1791 820 1791L1095 1791Z"  horiz-adv-x="1420" vert-adv-y="2000"  />

      
      <glyph glyph-name="unic2" unicode="&#xc2;" d="M1417 0L1209 0Q1174 0 1151.50 17.50Q1129 35 1119 61L1011 356L412 356L304 61Q296 38 272.50 19Q249 0 215 0L6 0L574 1446L849 1446L1417 0M481 546L942 546L766 1027Q754 1059 739.50 1102.50Q725 1146 711 1197Q697 1146 683.50 1102Q670 1058 657 1025L481 546M1076 1549L889 1549Q874 1549 856 1553Q838 1557 827 1565L726 1632Q722 1634 718.50 1637Q715 1640 711 1643Q709 1641 705 1638Q701 1635 696 1632L595 1565Q584 1557 566 1553Q548 1549 533 1549L346 1549L588 1768L834 1768L1076 1549Z"  horiz-adv-x="1420" vert-adv-y="2000"  />

      
      <glyph glyph-name="unic3" unicode="&#xc3;" d="M1417 0L1209 0Q1174 0 1151.50 17.50Q1129 35 1119 61L1011 356L412 356L304 61Q296 38 272.50 19Q249 0 215 0L6 0L574 1446L849 1446L1417 0M481 546L942 546L766 1027Q754 1059 739.50 1102.50Q725 1146 711 1197Q697 1146 683.50 1102Q670 1058 657 1025L481 546M834 1699Q861 1699 877.50 1714.50Q894 1730 895 1762L1029 1762Q1029 1712 1016 1671Q1003 1630 979 1601Q955 1572 920 1555.50Q885 1539 840 1539Q804 1539 770.50 1550Q737 1561 706.50 1574Q676 1587 649.50 1598Q623 1609 602 1609Q575 1609 559 1592.50Q543 1576 542 1544L406 1544Q406 1593 419 1634.50Q432 1676 457 1706Q482 1736 517 1752.50Q552 1769 596 1769Q632 1769 666 1758Q700 1747 730.50 1734Q761 1721 787 1710Q813 1699 834 1699Z"  horiz-adv-x="1420" vert-adv-y="2000"  />

      
      <glyph glyph-name="unic4" unicode="&#xc4;" d="M1417 0L1209 0Q1174 0 1151.50 17.50Q1129 35 1119 61L1011 356L412 356L304 61Q296 38 272.50 19Q249 0 215 0L6 0L574 1446L849 1446L1417 0M481 546L942 546L766 1027Q754 1059 739.50 1102.50Q725 1146 711 1197Q697 1146 683.50 1102Q670 1058 657 1025L481 546M629 1667Q629 1640 618 1616Q607 1592 588 1574Q569 1556 544 1546Q519 1536 491 1536Q465 1536 441.50 1546Q418 1556 400 1574Q382 1592 371.50 1616Q361 1640 361 1667Q361 1694 371.50 1718.50Q382 1743 400 1761.50Q418 1780 441.50 1791Q465 1802 491 1802Q519 1802 544 1791Q569 1780 588 1761.50Q607 1743 618 1718.50Q629 1694 629 1667M1061 1667Q1061 1640 1050.50 1616Q1040 1592 1022 1574Q1004 1556 979.50 1546Q955 1536 927 1536Q900 1536 875.50 1546Q851 1556 832.50 1574Q814 1592 803.50 1616Q793 1640 793 1667Q793 1694 803.50 1718.50Q814 1743 832.50 1761.50Q851 1780 875.50 1791Q900 1802 927 1802Q955 1802 979.50 1791Q1004 1780 1022 1761.50Q1040 1743 1050.50 1718.50Q1061 1694 1061 1667Z"  horiz-adv-x="1420" vert-adv-y="2000"  />

      
      <glyph glyph-name="unic5" unicode="&#xc5;" d="M1417 0L1209 0Q1174 0 1151.50 17.50Q1129 35 1119 61L1011 356L412 356L304 61Q296 38 272.50 19Q249 0 215 0L6 0L574 1446L849 1446L1417 0M481 546L942 546L766 1027Q754 1059 739.50 1102.50Q725 1146 711 1197Q697 1146 683.50 1102Q670 1058 657 1025L481 546M505 1683Q505 1726 522 1761Q539 1796 567 1821Q595 1846 632 1860Q669 1874 710 1874Q753 1874 791 1860Q829 1846 858 1821Q887 1796 904 1761Q921 1726 921 1683Q921 1641 904 1606.50Q887 1572 858 1547Q829 1522 791 1508.50Q753 1495 710 1495Q669 1495 632 1508.50Q595 1522 567 1547Q539 1572 522 1606.50Q505 1641 505 1683M623 1683Q623 1644 646.50 1619Q670 1594 714 1594Q754 1594 778 1619Q802 1644 802 1683Q802 1725 778 1749Q754 1773 714 1773Q670 1773 646.50 1749Q623 1725 623 1683Z"  horiz-adv-x="1420" vert-adv-y="2000"  />

      
      <glyph glyph-name="unic6" unicode="&#xc6;" d="M1780 1232L1086 1232L1136 831L1645 831L1645 624L1161 624L1211 215L1780 215L1780 0L983 0L939 356L419 356L277 60Q264 33 238 16.50Q212 0 176 0L-28 0L707 1446L1780 1446L1780 1232M511 546L916 546L830 1246Q814 1195 796.50 1150Q779 1105 762 1067L511 546Z"  horiz-adv-x="1868" vert-adv-y="2000"  />

      
      <glyph glyph-name="unic7" unicode="&#xc7;" d="M632-227Q639-227 646.50-229Q654-231 663.50-234Q673-237 684.50-239Q696-241 712-241Q745-241 761.50-228.50Q778-216 778-198Q778-169 742-156.50Q706-144 631-134L668-11Q527 4 415 64.50Q303 125 224.50 221.50Q146 318 104 445.50Q62 573 62 723Q62 886 116 1021.50Q170 1157 268 1255Q366 1353 502.50 1407.50Q639 1462 804 1462Q965 1462 1085.50 1410.50Q1206 1359 1292 1274L1202 1149Q1194 1137 1181.50 1128Q1169 1119 1147 1119Q1124 1119 1100 1137Q1076 1155 1039 1176Q1002 1197 945.50 1215Q889 1233 802 1233Q700 1233 614.50 1197.50Q529 1162 467.50 1096Q406 1030 371.50 935.50Q337 841 337 723Q337 601 371.50 506Q406 411 465 346Q524 281 604 246.50Q684 212 776 212Q831 212 875.50 218Q920 224 957.50 237Q995 250 1028.50 270.50Q1062 291 1095 321Q1105 330 1116 335.50Q1127 341 1140 341Q1162 341 1178 324L1284 209Q1204 109 1090.50 52.50Q977-4 822-14L810-55Q899-77 935-114.50Q971-152 971-203Q971-236 953.50-263Q936-290 904-309Q872-328 827-338.50Q782-349 728-349Q687-349 651.50-343Q616-337 581-326L604-250Q610-227 632-227Z"  horiz-adv-x="1341" vert-adv-y="2000"  />

      
      <glyph glyph-name="unic8" unicode="&#xc8;" d="M1058 1446L1058 1232L417 1232L417 831L922 831L922 624L417 624L417 215L1058 215L1058 0L146 0L146 1446L1058 1446M474 1791Q494 1791 508 1789.50Q522 1788 533.50 1783.50Q545 1779 555 1771Q565 1763 577 1751L774 1549L579 1549Q565 1549 554.50 1549.50Q544 1550 535 1552.50Q526 1555 517 1560Q508 1565 497 1573L200 1791L474 1791Z"  horiz-adv-x="1145" vert-adv-y="2000"  />

      
      <glyph glyph-name="unic9" unicode="&#xc9;" d="M1058 1446L1058 1232L417 1232L417 831L922 831L922 624L417 624L417 215L1058 215L1058 0L146 0L146 1446L1058 1446M1001 1791L705 1575Q694 1567 684.50 1562Q675 1557 665.50 1554Q656 1551 645.50 1550Q635 1549 621 1549L427 1549L623 1751Q635 1763 645.50 1771Q656 1779 667 1783.50Q678 1788 692 1789.50Q706 1791 726 1791L1001 1791Z"  horiz-adv-x="1145" vert-adv-y="2000"  />

      
      <glyph glyph-name="unica" unicode="&#xca;" d="M1058 1446L1058 1232L417 1232L417 831L922 831L922 624L417 624L417 215L1058 215L1058 0L146 0L146 1446L1058 1446M982 1549L795 1549Q780 1549 762 1553Q744 1557 733 1565L632 1632Q628 1634 624.50 1637Q621 1640 617 1643Q615 1641 611 1638Q607 1635 602 1632L501 1565Q490 1557 472 1553Q454 1549 439 1549L252 1549L494 1768L740 1768L982 1549Z"  horiz-adv-x="1145" vert-adv-y="2000"  />

      
      <glyph glyph-name="unicb" unicode="&#xcb;" d="M1058 1446L1058 1232L417 1232L417 831L922 831L922 624L417 624L417 215L1058 215L1058 0L146 0L146 1446L1058 1446M535 1667Q535 1640 524 1616Q513 1592 494 1574Q475 1556 450 1546Q425 1536 397 1536Q371 1536 347.50 1546Q324 1556 306 1574Q288 1592 277.50 1616Q267 1640 267 1667Q267 1694 277.50 1718.50Q288 1743 306 1761.50Q324 1780 347.50 1791Q371 1802 397 1802Q425 1802 450 1791Q475 1780 494 1761.50Q513 1743 524 1718.50Q535 1694 535 1667M967 1667Q967 1640 956.50 1616Q946 1592 928 1574Q910 1556 885.50 1546Q861 1536 833 1536Q806 1536 781.50 1546Q757 1556 738.50 1574Q720 1592 709.50 1616Q699 1640 699 1667Q699 1694 709.50 1718.50Q720 1743 738.50 1761.50Q757 1780 781.50 1791Q806 1802 833 1802Q861 1802 885.50 1791Q910 1780 928 1761.50Q946 1743 956.50 1718.50Q967 1694 967 1667Z"  horiz-adv-x="1145" vert-adv-y="2000"  />

      
      <glyph glyph-name="unicc" unicode="&#xcc;" d="M449 0L179 0L179 1446L449 1446L449 0M176 1791Q196 1791 210 1789.50Q224 1788 235.50 1783.50Q247 1779 257 1771Q267 1763 279 1751L476 1549L281 1549Q267 1549 256.50 1549.50Q246 1550 237 1552.50Q228 1555 219 1560Q210 1565 199 1573L-98 1791L176 1791Z"  horiz-adv-x="628" vert-adv-y="2000"  />

      
      <glyph glyph-name="unicd" unicode="&#xcd;" d="M449 0L179 0L179 1446L449 1446L449 0M703 1791L407 1575Q396 1567 386.50 1562Q377 1557 367.50 1554Q358 1551 347.50 1550Q337 1549 323 1549L129 1549L325 1751Q337 1763 347.50 1771Q358 1779 369 1783.50Q380 1788 394 1789.50Q408 1791 428 1791L703 1791Z"  horiz-adv-x="628" vert-adv-y="2000"  />

      
      <glyph glyph-name="unice" unicode="&#xce;" d="M449 0L179 0L179 1446L449 1446L449 0M683 1549L496 1549Q481 1549 463 1553Q445 1557 434 1565L333 1632Q329 1634 325.50 1637Q322 1640 318 1643Q316 1641 312 1638Q308 1635 303 1632L202 1565Q191 1557 173 1553Q155 1549 140 1549L-47 1549L195 1768L441 1768L683 1549Z"  horiz-adv-x="628" vert-adv-y="2000"  />

      
      <glyph glyph-name="unicf" unicode="&#xcf;" d="M449 0L179 0L179 1446L449 1446L449 0M236 1667Q236 1640 225 1616Q214 1592 195 1574Q176 1556 151 1546Q126 1536 98 1536Q72 1536 48.50 1546Q25 1556 7 1574Q-11 1592-21.50 1616Q-32 1640-32 1667Q-32 1694-21.50 1718.50Q-11 1743 7 1761.50Q25 1780 48.50 1791Q72 1802 98 1802Q126 1802 151 1791Q176 1780 195 1761.50Q214 1743 225 1718.50Q236 1694 236 1667M668 1667Q668 1640 657.50 1616Q647 1592 629 1574Q611 1556 586.50 1546Q562 1536 534 1536Q507 1536 482.50 1546Q458 1556 439.50 1574Q421 1592 410.50 1616Q400 1640 400 1667Q400 1694 410.50 1718.50Q421 1743 439.50 1761.50Q458 1780 482.50 1791Q507 1802 534 1802Q562 1802 586.50 1791Q611 1780 629 1761.50Q647 1743 657.50 1718.50Q668 1694 668 1667Z"  horiz-adv-x="628" vert-adv-y="2000"  />

      
      <glyph glyph-name="unid0" unicode="&#xd0;" d="M53 804L233 804L233 1446L785 1446Q949 1446 1084 1392.50Q1219 1339 1315 1243.50Q1411 1148 1464 1015Q1517 882 1517 723Q1517 564 1464 431Q1411 298 1315 202Q1219 106 1084 53Q949 0 785 0L233 0L233 651L53 651L53 804M1241 723Q1241 842 1209.50 936.50Q1178 1031 1119 1096.50Q1060 1162 975.50 1197Q891 1232 785 1232L504 1232L504 804L865 804L865 651L504 651L504 214L785 214Q891 214 975.50 249Q1060 284 1119 349.50Q1178 415 1209.50 509.50Q1241 604 1241 723Z"  horiz-adv-x="1581" vert-adv-y="2000"  />

      
      <glyph glyph-name="unid1" unicode="&#xd1;" d="M287 1446Q305 1446 317 1444.50Q329 1443 338.50 1438.50Q348 1434 357 1425.50Q366 1417 377 1403L1136 436Q1132 471 1130.50 504.50Q1129 538 1129 567L1129 1446L1366 1446L1366 0L1227 0Q1195 0 1174 10Q1153 20 1133 46L377 1009Q380 977 381.50 945.50Q383 914 383 888L383 0L146 0L146 1446L287 1446L287 1446M895 1699Q922 1699 938.50 1714.50Q955 1730 956 1762L1090 1762Q1090 1712 1077 1671Q1064 1630 1040 1601Q1016 1572 981 1555.50Q946 1539 901 1539Q865 1539 831.50 1550Q798 1561 767.50 1574Q737 1587 710.50 1598Q684 1609 663 1609Q636 1609 620 1592.50Q604 1576 603 1544L467 1544Q467 1593 480 1634.50Q493 1676 518 1706Q543 1736 578 1752.50Q613 1769 657 1769Q693 1769 727 1758Q761 1747 791.50 1734Q822 1721 848 1710Q874 1699 895 1699Z"  horiz-adv-x="1512" vert-adv-y="2000"  />

      
      <glyph glyph-name="unid2" unicode="&#xd2;" d="M1533 723Q1533 564 1480 428.50Q1427 293 1331 194Q1235 95 1100 39.50Q965-16 801-16Q637-16 501.50 39.50Q366 95 269.50 194Q173 293 120 428.50Q67 564 67 723Q67 882 120 1017.50Q173 1153 269.50 1252Q366 1351 501.50 1406.50Q637 1462 801 1462Q965 1462 1100 1406Q1235 1350 1331 1251.50Q1427 1153 1480 1017.50Q1533 882 1533 723M1257 723Q1257 842 1225.50 936.50Q1194 1031 1135 1097Q1076 1163 991.50 1198Q907 1233 801 1233Q695 1233 610 1198Q525 1163 465.50 1097Q406 1031 374 936.50Q342 842 342 723Q342 604 374 509.50Q406 415 465.50 349.50Q525 284 610 249Q695 214 801 214Q907 214 991.50 249Q1076 284 1135 349.50Q1194 415 1225.50 509.50Q1257 604 1257 723M660 1791Q680 1791 694 1789.50Q708 1788 719.50 1783.50Q731 1779 741 1771Q751 1763 763 1751L960 1549L765 1549Q751 1549 740.50 1549.50Q730 1550 721 1552.50Q712 1555 703 1560Q694 1565 683 1573L386 1791L660 1791Z"  horiz-adv-x="1599" vert-adv-y="2000"  />

      
      <glyph glyph-name="unid3" unicode="&#xd3;" d="M1533 723Q1533 564 1480 428.50Q1427 293 1331 194Q1235 95 1100 39.50Q965-16 801-16Q637-16 501.50 39.50Q366 95 269.50 194Q173 293 120 428.50Q67 564 67 723Q67 882 120 1017.50Q173 1153 269.50 1252Q366 1351 501.50 1406.50Q637 1462 801 1462Q965 1462 1100 1406Q1235 1350 1331 1251.50Q1427 1153 1480 1017.50Q1533 882 1533 723M1257 723Q1257 842 1225.50 936.50Q1194 1031 1135 1097Q1076 1163 991.50 1198Q907 1233 801 1233Q695 1233 610 1198Q525 1163 465.50 1097Q406 1031 374 936.50Q342 842 342 723Q342 604 374 509.50Q406 415 465.50 349.50Q525 284 610 249Q695 214 801 214Q907 214 991.50 249Q1076 284 1135 349.50Q1194 415 1225.50 509.50Q1257 604 1257 723M1187 1791L891 1575Q880 1567 870.50 1562Q861 1557 851.50 1554Q842 1551 831.50 1550Q821 1549 807 1549L613 1549L809 1751Q821 1763 831.50 1771Q842 1779 853 1783.50Q864 1788 878 1789.50Q892 1791 912 1791L1187 1791Z"  horiz-adv-x="1599" vert-adv-y="2000"  />

      
      <glyph glyph-name="unid4" unicode="&#xd4;" d="M1533 723Q1533 564 1480 428.50Q1427 293 1331 194Q1235 95 1100 39.50Q965-16 801-16Q637-16 501.50 39.50Q366 95 269.50 194Q173 293 120 428.50Q67 564 67 723Q67 882 120 1017.50Q173 1153 269.50 1252Q366 1351 501.50 1406.50Q637 1462 801 1462Q965 1462 1100 1406Q1235 1350 1331 1251.50Q1427 1153 1480 1017.50Q1533 882 1533 723M1257 723Q1257 842 1225.50 936.50Q1194 1031 1135 1097Q1076 1163 991.50 1198Q907 1233 801 1233Q695 1233 610 1198Q525 1163 465.50 1097Q406 1031 374 936.50Q342 842 342 723Q342 604 374 509.50Q406 415 465.50 349.50Q525 284 610 249Q695 214 801 214Q907 214 991.50 249Q1076 284 1135 349.50Q1194 415 1225.50 509.50Q1257 604 1257 723M1168 1549L981 1549Q966 1549 948 1553Q930 1557 919 1565L818 1632Q814 1634 810.50 1637Q807 1640 803 1643Q801 1641 797 1638Q793 1635 788 1632L687 1565Q676 1557 658 1553Q640 1549 625 1549L438 1549L680 1768L926 1768L1168 1549Z"  horiz-adv-x="1599" vert-adv-y="2000"  />

      
      <glyph glyph-name="unid5" unicode="&#xd5;" d="M1533 723Q1533 564 1480 428.50Q1427 293 1331 194Q1235 95 1100 39.50Q965-16 801-16Q637-16 501.50 39.50Q366 95 269.50 194Q173 293 120 428.50Q67 564 67 723Q67 882 120 1017.50Q173 1153 269.50 1252Q366 1351 501.50 1406.50Q637 1462 801 1462Q965 1462 1100 1406Q1235 1350 1331 1251.50Q1427 1153 1480 1017.50Q1533 882 1533 723M1257 723Q1257 842 1225.50 936.50Q1194 1031 1135 1097Q1076 1163 991.50 1198Q907 1233 801 1233Q695 1233 610 1198Q525 1163 465.50 1097Q406 1031 374 936.50Q342 842 342 723Q342 604 374 509.50Q406 415 465.50 349.50Q525 284 610 249Q695 214 801 214Q907 214 991.50 249Q1076 284 1135 349.50Q1194 415 1225.50 509.50Q1257 604 1257 723M926 1699Q953 1699 969.50 1714.50Q986 1730 987 1762L1121 1762Q1121 1712 1108 1671Q1095 1630 1071 1601Q1047 1572 1012 1555.50Q977 1539 932 1539Q896 1539 862.50 1550Q829 1561 798.50 1574Q768 1587 741.50 1598Q715 1609 694 1609Q667 1609 651 1592.50Q635 1576 634 1544L498 1544Q498 1593 511 1634.50Q524 1676 549 1706Q574 1736 609 1752.50Q644 1769 688 1769Q724 1769 758 1758Q792 1747 822.50 1734Q853 1721 879 1710Q905 1699 926 1699Z"  horiz-adv-x="1599" vert-adv-y="2000"  />

      
      <glyph glyph-name="unid6" unicode="&#xd6;" d="M1533 723Q1533 564 1480 428.50Q1427 293 1331 194Q1235 95 1100 39.50Q965-16 801-16Q637-16 501.50 39.50Q366 95 269.50 194Q173 293 120 428.50Q67 564 67 723Q67 882 120 1017.50Q173 1153 269.50 1252Q366 1351 501.50 1406.50Q637 1462 801 1462Q965 1462 1100 1406Q1235 1350 1331 1251.50Q1427 1153 1480 1017.50Q1533 882 1533 723M1257 723Q1257 842 1225.50 936.50Q1194 1031 1135 1097Q1076 1163 991.50 1198Q907 1233 801 1233Q695 1233 610 1198Q525 1163 465.50 1097Q406 1031 374 936.50Q342 842 342 723Q342 604 374 509.50Q406 415 465.50 349.50Q525 284 610 249Q695 214 801 214Q907 214 991.50 249Q1076 284 1135 349.50Q1194 415 1225.50 509.50Q1257 604 1257 723M721 1667Q721 1640 710 1616Q699 1592 680 1574Q661 1556 636 1546Q611 1536 583 1536Q557 1536 533.50 1546Q510 1556 492 1574Q474 1592 463.50 1616Q453 1640 453 1667Q453 1694 463.50 1718.50Q474 1743 492 1761.50Q510 1780 533.50 1791Q557 1802 583 1802Q611 1802 636 1791Q661 1780 680 1761.50Q699 1743 710 1718.50Q721 1694 721 1667M1153 1667Q1153 1640 1142.50 1616Q1132 1592 1114 1574Q1096 1556 1071.50 1546Q1047 1536 1019 1536Q992 1536 967.50 1546Q943 1556 924.50 1574Q906 1592 895.50 1616Q885 1640 885 1667Q885 1694 895.50 1718.50Q906 1743 924.50 1761.50Q943 1780 967.50 1791Q992 1802 1019 1802Q1047 1802 1071.50 1791Q1096 1780 1114 1761.50Q1132 1743 1142.50 1718.50Q1153 1694 1153 1667Z"  horiz-adv-x="1599" vert-adv-y="2000"  />

      
      <glyph glyph-name="unid7" unicode="&#xd7;" d="M1033 996L708 671L1049 331L918 202L578 541L237 200L106 329L448 671L121 998L251 1128L578 801L902 1126L1033 996Z"  horiz-adv-x="1160" vert-adv-y="2000"  />

      
      <glyph glyph-name="unid8" unicode="&#xd8;" d="M1533 723Q1533 564 1480 428.50Q1427 293 1331 194Q1235 95 1100 39.50Q965-16 801-16Q700-16 611 5Q522 26 444 66L368-39Q339-79 298.50-95Q258-111 220-111L114-111L309 157Q194 257 130.50 402Q67 547 67 723Q67 882 120 1017.50Q173 1153 269.50 1252Q366 1351 501.50 1406.50Q637 1462 801 1462Q911 1462 1007.50 1437Q1104 1412 1186 1364L1245 1446Q1258 1464 1269 1477Q1280 1490 1292.50 1497.50Q1305 1505 1320 1508.50Q1335 1512 1357 1512L1495 1512L1316 1266Q1420 1166 1476.50 1027.50Q1533 889 1533 723M342 723Q342 608 371 517Q400 426 456 360L1045 1170Q941 1233 801 1233Q695 1233 610 1198Q525 1163 465.50 1097Q406 1031 374 936.50Q342 842 342 723M1257 723Q1257 826 1233.50 910Q1210 994 1165 1058L585 260Q680 214 801 214Q907 214 991.50 249Q1076 284 1135 349.50Q1194 415 1225.50 509.50Q1257 604 1257 723Z"  horiz-adv-x="1599" vert-adv-y="2000"  />

      
      <glyph glyph-name="unid9" unicode="&#xd9;" d="M728 217Q806 217 867.50 243Q929 269 971.50 316Q1014 363 1036.50 430Q1059 497 1059 580L1059 1446L1328 1446L1328 580Q1328 451 1286.50 341.50Q1245 232 1167 152.50Q1089 73 978 28.50Q867-16 728-16Q589-16 478 28.50Q367 73 289.50 152.50Q212 232 170.50 341.50Q129 451 129 580L129 1446L398 1446L398 581Q398 498 420.50 431Q443 364 485 316.50Q527 269 588.50 243Q650 217 728 217M586 1791Q606 1791 620 1789.50Q634 1788 645.50 1783.50Q657 1779 667 1771Q677 1763 689 1751L886 1549L691 1549Q677 1549 666.50 1549.50Q656 1550 647 1552.50Q638 1555 629 1560Q620 1565 609 1573L312 1791L586 1791Z"  horiz-adv-x="1456" vert-adv-y="2000"  />

      
      <glyph glyph-name="unida" unicode="&#xda;" d="M728 217Q806 217 867.50 243Q929 269 971.50 316Q1014 363 1036.50 430Q1059 497 1059 580L1059 1446L1328 1446L1328 580Q1328 451 1286.50 341.50Q1245 232 1167 152.50Q1089 73 978 28.50Q867-16 728-16Q589-16 478 28.50Q367 73 289.50 152.50Q212 232 170.50 341.50Q129 451 129 580L129 1446L398 1446L398 581Q398 498 420.50 431Q443 364 485 316.50Q527 269 588.50 243Q650 217 728 217M1113 1791L817 1575Q806 1567 796.50 1562Q787 1557 777.50 1554Q768 1551 757.50 1550Q747 1549 733 1549L539 1549L735 1751Q747 1763 757.50 1771Q768 1779 779 1783.50Q790 1788 804 1789.50Q818 1791 838 1791L1113 1791Z"  horiz-adv-x="1456" vert-adv-y="2000"  />

      
      <glyph glyph-name="unidb" unicode="&#xdb;" d="M728 217Q806 217 867.50 243Q929 269 971.50 316Q1014 363 1036.50 430Q1059 497 1059 580L1059 1446L1328 1446L1328 580Q1328 451 1286.50 341.50Q1245 232 1167 152.50Q1089 73 978 28.50Q867-16 728-16Q589-16 478 28.50Q367 73 289.50 152.50Q212 232 170.50 341.50Q129 451 129 580L129 1446L398 1446L398 581Q398 498 420.50 431Q443 364 485 316.50Q527 269 588.50 243Q650 217 728 217M1093 1549L906 1549Q891 1549 873 1553Q855 1557 844 1565L743 1632Q739 1634 735.50 1637Q732 1640 728 1643Q726 1641 722 1638Q718 1635 713 1632L612 1565Q601 1557 583 1553Q565 1549 550 1549L363 1549L605 1768L851 1768L1093 1549Z"  horiz-adv-x="1456" vert-adv-y="2000"  />

      
      <glyph glyph-name="unidc" unicode="&#xdc;" d="M728 217Q806 217 867.50 243Q929 269 971.50 316Q1014 363 1036.50 430Q1059 497 1059 580L1059 1446L1328 1446L1328 580Q1328 451 1286.50 341.50Q1245 232 1167 152.50Q1089 73 978 28.50Q867-16 728-16Q589-16 478 28.50Q367 73 289.50 152.50Q212 232 170.50 341.50Q129 451 129 580L129 1446L398 1446L398 581Q398 498 420.50 431Q443 364 485 316.50Q527 269 588.50 243Q650 217 728 217M646 1667Q646 1640 635 1616Q624 1592 605 1574Q586 1556 561 1546Q536 1536 508 1536Q482 1536 458.50 1546Q435 1556 417 1574Q399 1592 388.50 1616Q378 1640 378 1667Q378 1694 388.50 1718.50Q399 1743 417 1761.50Q435 1780 458.50 1791Q482 1802 508 1802Q536 1802 561 1791Q586 1780 605 1761.50Q624 1743 635 1718.50Q646 1694 646 1667M1078 1667Q1078 1640 1067.50 1616Q1057 1592 1039 1574Q1021 1556 996.50 1546Q972 1536 944 1536Q917 1536 892.50 1546Q868 1556 849.50 1574Q831 1592 820.50 1616Q810 1640 810 1667Q810 1694 820.50 1718.50Q831 1743 849.50 1761.50Q868 1780 892.50 1791Q917 1802 944 1802Q972 1802 996.50 1791Q1021 1780 1039 1761.50Q1057 1743 1067.50 1718.50Q1078 1694 1078 1667Z"  horiz-adv-x="1456" vert-adv-y="2000"  />

      
      <glyph glyph-name="unidd" unicode="&#xdd;" d="M789 562L789 0L520 0L520 562L-7 1446L230 1446Q265 1446 285.50 1429Q306 1412 320 1386L585 903Q608 860 625 821.50Q642 783 656 746Q669 784 685.50 822.50Q702 861 725 903L988 1386Q999 1408 1021 1427Q1043 1446 1077 1446L1315 1446L789 562M1041 1791L745 1575Q734 1567 724.50 1562Q715 1557 705.50 1554Q696 1551 685.50 1550Q675 1549 661 1549L467 1549L663 1751Q675 1763 685.50 1771Q696 1779 707 1783.50Q718 1788 732 1789.50Q746 1791 766 1791L1041 1791Z"  horiz-adv-x="1309" vert-adv-y="2000"  />

      
      <glyph glyph-name="unide" unicode="&#xde;" d="M424 261L424 0L155 0L155 1446L424 1446L424 1198L626 1198Q771 1198 877 1164Q983 1130 1052 1069Q1121 1008 1154 923Q1187 838 1187 737Q1187 632 1152 544.50Q1117 457 1047 394Q977 331 872 296Q767 261 626 261L424 261M424 471L626 471Q700 471 755 489.50Q810 508 846 542.50Q882 577 900 626.50Q918 676 918 737Q918 795 900 842Q882 889 846 922Q810 955 755 972.50Q700 990 626 990L424 990L424 471Z"  horiz-adv-x="1250" vert-adv-y="2000"  />

      
      <glyph glyph-name="unidf" unicode="&#xdf;" d="M700 1471Q817 1471 900 1437Q983 1403 1035 1352Q1087 1301 1111 1242Q1135 1183 1135 1132Q1135 1074 1115.50 1033Q1096 992 1066.50 961Q1037 930 1003 907Q969 884 939.50 863Q910 842 890.50 819.50Q871 797 871 768Q871 735 896 711Q921 687 958 664Q995 641 1039 615Q1083 589 1120 551.50Q1157 514 1182 461Q1207 408 1207 331Q1207 246 1175.50 181.50Q1144 117 1090 73Q1036 29 964.50 6.50Q893-16 813-16Q767-16 722-6.50Q677 3 635.50 20Q594 37 557 60Q520 83 490 110L548 204Q558 221 573 230Q588 239 611 239Q634 239 655 226Q676 213 701 198Q726 183 758 170Q790 157 835 157Q898 157 937 194.50Q976 232 976 292Q976 339 949 370Q922 401 881.50 425.50Q841 450 794 473.50Q747 497 706.50 528.50Q666 560 639 605Q612 650 612 719Q612 776 633 817Q654 858 685.50 890Q717 922 754 947.50Q791 973 822.50 1000Q854 1027 875 1058Q896 1089 896 1131Q896 1164 884.50 1193.50Q873 1223 848 1244.50Q823 1266 783.50 1279Q744 1292 689 1292Q558 1292 490.50 1211.50Q423 1131 423 976L423 0L176 0L176 984Q176 1090 212.50 1179Q249 1268 316.50 1333Q384 1398 481 1434.50Q578 1471 700 1471Z"  horiz-adv-x="1270" vert-adv-y="2000"  />

      
      <glyph glyph-name="unie0" unicode="&#xe0;" d="M936 0L825 0Q790 0 770 10.50Q750 21 740 53L718 126Q679 91 641.50 64.50Q604 38 564 20Q524 2 479-7Q434-16 379-16Q314-16 259 1.50Q204 19 164.50 54Q125 89 103 141Q81 193 81 262Q81 320 111.50 376.50Q142 433 213 478.50Q284 524 402 554Q520 584 695 588L695 648Q695 751 651.50 800.50Q608 850 525 850Q465 850 425 836Q385 822 355.50 804.50Q326 787 301 773Q276 759 246 759Q221 759 203 772Q185 785 174 804L129 883Q306 1045 556 1045Q646 1045 716.50 1015.50Q787 986 836 933.50Q885 881 910.50 808Q936 735 936 648L936 0M456 154Q494 154 526 161Q558 168 586.50 182Q615 196 641.50 216.50Q668 237 695 265L695 438Q587 433 514.50 419.50Q442 406 398 385Q354 364 335.50 336Q317 308 317 275Q317 210 355.50 182Q394 154 456 154M457 1462Q498 1462 517.50 1448.50Q537 1435 552 1409L695 1166L554 1166Q526 1166 508.50 1173.50Q491 1181 473 1201L226 1462L457 1462Z"  horiz-adv-x="1047" vert-adv-y="2000"  />

      
      <glyph glyph-name="unie1" unicode="&#xe1;" d="M936 0L825 0Q790 0 770 10.50Q750 21 740 53L718 126Q679 91 641.50 64.50Q604 38 564 20Q524 2 479-7Q434-16 379-16Q314-16 259 1.50Q204 19 164.50 54Q125 89 103 141Q81 193 81 262Q81 320 111.50 376.50Q142 433 213 478.50Q284 524 402 554Q520 584 695 588L695 648Q695 751 651.50 800.50Q608 850 525 850Q465 850 425 836Q385 822 355.50 804.50Q326 787 301 773Q276 759 246 759Q221 759 203 772Q185 785 174 804L129 883Q306 1045 556 1045Q646 1045 716.50 1015.50Q787 986 836 933.50Q885 881 910.50 808Q936 735 936 648L936 0M456 154Q494 154 526 161Q558 168 586.50 182Q615 196 641.50 216.50Q668 237 695 265L695 438Q587 433 514.50 419.50Q442 406 398 385Q354 364 335.50 336Q317 308 317 275Q317 210 355.50 182Q394 154 456 154M892 1462L645 1201Q626 1181 608.50 1173.50Q591 1166 563 1166L415 1166L557 1409Q572 1435 592 1448.50Q612 1462 652 1462L892 1462Z"  horiz-adv-x="1047" vert-adv-y="2000"  />

      
      <glyph glyph-name="unie2" unicode="&#xe2;" d="M936 0L825 0Q790 0 770 10.50Q750 21 740 53L718 126Q679 91 641.50 64.50Q604 38 564 20Q524 2 479-7Q434-16 379-16Q314-16 259 1.50Q204 19 164.50 54Q125 89 103 141Q81 193 81 262Q81 320 111.50 376.50Q142 433 213 478.50Q284 524 402 554Q520 584 695 588L695 648Q695 751 651.50 800.50Q608 850 525 850Q465 850 425 836Q385 822 355.50 804.50Q326 787 301 773Q276 759 246 759Q221 759 203 772Q185 785 174 804L129 883Q306 1045 556 1045Q646 1045 716.50 1015.50Q787 986 836 933.50Q885 881 910.50 808Q936 735 936 648L936 0M456 154Q494 154 526 161Q558 168 586.50 182Q615 196 641.50 216.50Q668 237 695 265L695 438Q587 433 514.50 419.50Q442 406 398 385Q354 364 335.50 336Q317 308 317 275Q317 210 355.50 182Q394 154 456 154M891 1168L726 1168Q695 1168 676 1186L571 1281Q566 1286 560.50 1291Q555 1296 550 1303Q545 1296 539.50 1291Q534 1286 529 1281L422 1186Q414 1179 400.50 1173.50Q387 1168 372 1168L201 1168L430 1446L662 1446L891 1168Z"  horiz-adv-x="1047" vert-adv-y="2000"  />

      
      <glyph glyph-name="unie3" unicode="&#xe3;" d="M936 0L825 0Q790 0 770 10.50Q750 21 740 53L718 126Q679 91 641.50 64.50Q604 38 564 20Q524 2 479-7Q434-16 379-16Q314-16 259 1.50Q204 19 164.50 54Q125 89 103 141Q81 193 81 262Q81 320 111.50 376.50Q142 433 213 478.50Q284 524 402 554Q520 584 695 588L695 648Q695 751 651.50 800.50Q608 850 525 850Q465 850 425 836Q385 822 355.50 804.50Q326 787 301 773Q276 759 246 759Q221 759 203 772Q185 785 174 804L129 883Q306 1045 556 1045Q646 1045 716.50 1015.50Q787 986 836 933.50Q885 881 910.50 808Q936 735 936 648L936 0M456 154Q494 154 526 161Q558 168 586.50 182Q615 196 641.50 216.50Q668 237 695 265L695 438Q587 433 514.50 419.50Q442 406 398 385Q354 364 335.50 336Q317 308 317 275Q317 210 355.50 182Q394 154 456 154M653 1359Q683 1359 700 1375.50Q717 1392 717 1435L867 1435Q867 1379 851.50 1333.50Q836 1288 809 1255.50Q782 1223 744.50 1205.50Q707 1188 662 1188Q626 1188 595 1201Q564 1214 537 1229Q510 1244 486.50 1257Q463 1270 443 1270Q414 1270 397.50 1252.50Q381 1235 381 1193L228 1193Q228 1249 243.50 1294.50Q259 1340 287 1372.50Q315 1405 352.50 1423Q390 1441 434 1441Q470 1441 501.50 1428Q533 1415 560 1400Q587 1385 610 1372Q633 1359 653 1359Z"  horiz-adv-x="1047" vert-adv-y="2000"  />

      
      </font>
</defs>
</svg>
